SplineFontDB: 3.0
FontName: HiVe-MathSym
FullName: HiVe Math Symbols
FamilyName: HiVe
Weight: Regular
Copyright: Copyright (URW)++,Copyright 1999 by (URW)++ Design & Development
Version: 1.0
ItalicAngle: 0
UnderlinePosition: -100
UnderlineWidth: 50
Ascent: 800
Descent: 200
LayerCount: 2
Layer: 0 0 "Back"  1
Layer: 1 0 "Fore"  0
NeedsXUIDChange: 1
UniqueID: 4024606
FSType: 0
OS2Version: 0
OS2_WeightWidthSlopeOnly: 0
OS2_UseTypoMetrics: 0
CreationTime: 1180051505
ModificationTime: 1299557788
OS2TypoAscent: 0
OS2TypoAOffset: 1
OS2TypoDescent: 0
OS2TypoDOffset: 1
OS2TypoLinegap: 0
OS2WinAscent: 0
OS2WinAOffset: 1
OS2WinDescent: 0
OS2WinDOffset: 1
HheadAscent: 0
HheadAOffset: 1
HheadDescent: 0
HheadDOffset: 1
OS2Vendor: 'PfEd'
Lookup: 4 0 1 "'liga' Standard Ligatures lookup 0"  {"'liga' Standard Ligatures lookup 0 subtable"  } ['liga' ('DFLT' <'dflt' > ) ]
Lookup: 4 0 1 "'liga' Standard Ligatures in Latin lookup 1"  {"'liga' Standard Ligatures in Latin lookup 1 subtable"  } ['liga' ('latn' <'dflt' > ) ]
Lookup: 4 0 0 "'frac' Diagonal Fractions lookup 2"  {"'frac' Diagonal Fractions lookup 2 subtable"  } ['frac' ('DFLT' <'dflt' > ) ]
DEI: 91125
Encoding: UnicodeBmp
UnicodeInterp: none
NameList: Adobe Glyph List
DisplaySize: -48
AntiAlias: 1
FitToEm: 1
WinInfo: 10912 16 13
BeginPrivate: 7
BlueValues 23 [-20 0 450 470 662 682]
BlueScale 8 0.039625
StdHW 4 [30]
StdVW 4 [85]
StemSnapH 200 [30 38 43 53 60 73] 
systemdict /internaldict known
{1183615869 systemdict /internaldict get exec
/StemSnapLength 2 copy known { get 6 lt } { pop pop true } ifelse }
{ true } ifelse { pop [30 38] } if
StemSnapV 204 [78 85 91 103 109 115] 
systemdict /internaldict known
{1183615869 systemdict /internaldict get exec
/StemSnapLength 2 copy known { get 6 lt } { pop pop true } ifelse }
{ true } ifelse { pop [85 103] } if
ForceBold 5 false
EndPrivate
BeginChars: 65536 958

StartChar: Adieresis
Encoding: 196 196 0
Width: 722
Flags: W
HStem: 0 19<206 219 457 479.502> 216 41<295 527> 654 20G<553 573> 735 99<479 509 678 708>
LayerCount: 2
Fore
SplineSet
712 19 m 1
 706 0 l 1
 451 0 l 1
 457 19 l 1
 510 20 530 28 537 53 c 0
 541 67 542 93 539 120 c 2
 527 216 l 1
 265 216 l 1
 183 99 l 2
 174 86 167 72 163 60 c 0
 155 32 171 19 219 19 c 1
 213 0 l 1
 15 0 l 1
 21 19 l 1
 69 21 86 37 195 183 c 1
 553 674 l 1
 573 674 l 1
 648 106 l 1
 661 32 668 22 712 19 c 1
295 257 m 1
 526 257 l 1
 494 532 l 1
 295 257 l 1
509 834 m 0
 537 834 553 811 545 784 c 0
 536 757 507 735 479 735 c 0
 452 735 437 757 446 785 c 0
 454 811 484 834 509 834 c 0
708 834 m 0
 736 834 752 811 744 784 c 0
 735 757 706 735 678 735 c 0
 651 735 636 757 645 785 c 0
 653 811 683 834 708 834 c 0
EndSplineSet
Ligature2: "'liga' Standard Ligatures in Latin lookup 1 subtable" A uni0308
EndChar

StartChar: Aacute
Encoding: 193 193 1
Width: 722
Flags: W
HStem: 0 19<206 219 457 479.502> 216 41<295 527> 654 20G<553 573>
LayerCount: 2
Fore
SplineSet
712 19 m 1
 706 0 l 1
 451 0 l 1
 457 19 l 1
 510 20 530 28 537 53 c 0
 541 67 542 93 539 120 c 2
 527 216 l 1
 265 216 l 1
 183 99 l 2
 174 86 167 72 163 60 c 0
 155 32 171 19 219 19 c 1
 213 0 l 1
 15 0 l 1
 21 19 l 1
 69 21 86 37 195 183 c 1
 553 674 l 1
 573 674 l 1
 648 106 l 1
 661 32 668 22 712 19 c 1
295 257 m 1
 526 257 l 1
 494 532 l 1
 295 257 l 1
543 719 m 1
 503 719 l 1
 695 867 l 2
 719 885 729 890 744 890 c 0
 766 890 775 878 769 858 c 0
 764 842 751 829 726 816 c 2
 543 719 l 1
EndSplineSet
Ligature2: "'liga' Standard Ligatures in Latin lookup 1 subtable" A acutecomb
EndChar

StartChar: Agrave
Encoding: 192 192 2
Width: 722
Flags: W
HStem: 0 19<206 219 457 479.502> 216 41<295 527> 654 20G<553 573>
LayerCount: 2
Fore
SplineSet
712 19 m 1
 706 0 l 1
 451 0 l 1
 457 19 l 1
 510 20 530 28 537 53 c 0
 541 67 542 93 539 120 c 2
 527 216 l 1
 265 216 l 1
 183 99 l 2
 174 86 167 72 163 60 c 0
 155 32 171 19 219 19 c 1
 213 0 l 1
 15 0 l 1
 21 19 l 1
 69 21 86 37 195 183 c 1
 553 674 l 1
 573 674 l 1
 648 106 l 1
 661 32 668 22 712 19 c 1
295 257 m 1
 526 257 l 1
 494 532 l 1
 295 257 l 1
657 719 m 1
 617 719 l 1
 492 816 l 2
 478 828 472 843 477 859 c 0
 482 878 499 890 520 890 c 0
 535 890 543 885 555 867 c 2
 657 719 l 1
EndSplineSet
Ligature2: "'liga' Standard Ligatures in Latin lookup 1 subtable" A gravecomb
EndChar

StartChar: Acircumflex
Encoding: 194 194 3
Width: 722
Flags: W
HStem: 0 19<206 219 457 479.502> 216 41<295 527> 654 20G<553 573>
LayerCount: 2
Fore
SplineSet
712 19 m 1
 706 0 l 1
 451 0 l 1
 457 19 l 1
 510 20 530 28 537 53 c 0
 541 67 542 93 539 120 c 2
 527 216 l 1
 265 216 l 1
 183 99 l 2
 174 86 167 72 163 60 c 0
 155 32 171 19 219 19 c 1
 213 0 l 1
 15 0 l 1
 21 19 l 1
 69 21 86 37 195 183 c 1
 553 674 l 1
 573 674 l 1
 648 106 l 1
 661 32 668 22 712 19 c 1
295 257 m 1
 526 257 l 1
 494 532 l 1
 295 257 l 1
732 719 m 1
 698 719 l 1
 607 822 l 1
 455 719 l 1
 421 719 l 1
 596 886 l 1
 658 886 l 1
 732 719 l 1
EndSplineSet
Ligature2: "'liga' Standard Ligatures in Latin lookup 1 subtable" A uni0302
EndChar

StartChar: Abreve
Encoding: 258 258 4
Width: 722
Flags: HW
HStem: 0 20<21 62.5824 169.177 213 457 519.698 673.811 706> 216 41<216 447> 654 20<347 367 367 367> 719 60<336.5 391>
LayerCount: 2
Fore
SplineSet
712 19 m 1
 706 0 l 1
 451 0 l 1
 457 19 l 1
 510 20 530 28 537 53 c 0
 541 67 542 93 539 120 c 2
 527 216 l 1
 265 216 l 1
 183 99 l 2
 174 86 167 72 163 60 c 0
 155 32 171 19 219 19 c 1
 213 0 l 1
 15 0 l 1
 21 19 l 1
 69 21 86 37 195 183 c 1
 553 674 l 1
 573 674 l 1
 648 106 l 1
 661 32 668 22 712 19 c 1
295 257 m 1
 526 257 l 1
 494 532 l 1
 295 257 l 1
741 876 m 1x10
 770 876 l 1
 725 770 664 719 580 719 c 0
 533 719 499 738 484 773 c 0
 474 801 474 825 489 876 c 1
 518 876 l 1
 511 809 536 779 600 779 c 0
 658 779 690 800 741 876 c 1x10
EndSplineSet
Ligature2: "'liga' Standard Ligatures in Latin lookup 1 subtable" A uni0306
EndChar

StartChar: Atilde
Encoding: 195 195 5
Width: 722
Flags: W
HStem: 0 19<206 219 457 479.502> 216 41<295 527> 654 20G<553 573> 744 56<648 689> 790 55<518 555>
LayerCount: 2
Fore
SplineSet
712 19 m 1xe0
 706 0 l 1
 451 0 l 1
 457 19 l 1
 510 20 530 28 537 53 c 0
 541 67 542 93 539 120 c 2
 527 216 l 1
 265 216 l 1
 183 99 l 2
 174 86 167 72 163 60 c 0
 155 32 171 19 219 19 c 1
 213 0 l 1
 15 0 l 1
 21 19 l 1
 69 21 86 37 195 183 c 1
 553 674 l 1
 573 674 l 1
 648 106 l 1
 661 32 668 22 712 19 c 1xe0
295 257 m 1
 526 257 l 1
 494 532 l 1
 295 257 l 1
757 850 m 1
 786 850 l 1
 742 774 703 744 648 744 c 0xf0
 623 744 610 748 575 768 c 2
 555 779 l 2
 542 786 530 790 518 790 c 0xe8
 495 790 473 775 452 744 c 1
 423 744 l 1xf0
 458 809 505 845 555 845 c 0xe8
 577 845 601 839 620 827 c 2
 640 815 l 2
 656 806 674 800 689 800 c 0xf0
 712 800 728 812 757 850 c 1
EndSplineSet
Ligature2: "'liga' Standard Ligatures in Latin lookup 1 subtable" A tildecomb
EndChar

StartChar: Aring
Encoding: 197 197 6
Width: 722
Flags: W
HStem: 0 19<206 219 457 479.502> 216 41<295 527> 654 20G<553 573> 716 34<568 581> 881 34<619 631>
LayerCount: 2
Fore
SplineSet
712 19 m 1
 706 0 l 1
 451 0 l 1
 457 19 l 1
 510 20 530 28 537 53 c 0
 541 67 542 93 539 120 c 2
 527 216 l 1
 265 216 l 1
 183 99 l 2
 174 86 167 72 163 60 c 0
 155 32 171 19 219 19 c 1
 213 0 l 1
 15 0 l 1
 21 19 l 1
 69 21 86 37 195 183 c 1
 553 674 l 1
 573 674 l 1
 648 106 l 1
 661 32 668 22 712 19 c 1
295 257 m 1
 526 257 l 1
 494 532 l 1
 295 257 l 1
631 915 m 0
 686 915 717 870 700 815 c 0
 683 760 625 716 570 716 c 0
 514 716 484 760 501 816 c 0
 518 870 577 915 631 915 c 0
621 881 m 0
 585 881 546 852 535 816 c 0
 524 780 544 750 579 750 c 0
 616 750 655 779 666 815 c 0
 677 851 656 881 621 881 c 0
EndSplineSet
Ligature2: "'liga' Standard Ligatures in Latin lookup 1 subtable" A uni030A
EndChar

StartChar: Aogonek
Encoding: 260 260 7
Width: 722
Flags: HMW
HStem: -165 56<684 694.5> 216 41<216 447> 654 20<347 367 367 367>
VStem: 601 56<-80.5 -72.5>
LayerCount: 2
Fore
SplineSet
712 19 m 1
 706 0 l 1
 682 -5 644 -44 636 -69 c 0
 629 -92 640 -109 662 -109 c 0
 683 -109 705 -99 744 -73 c 1
 759 -89 l 1
 706 -142 665 -165 624 -165 c 0
 583 -165 561 -132 574 -89 c 0
 584 -56 606 -32 655 0 c 1
 451 0 l 1
 457 19 l 1
 510 20 530 28 537 53 c 0
 541 67 542 93 539 120 c 2
 527 216 l 1
 265 216 l 1
 183 99 l 2
 174 86 167 72 163 60 c 0
 155 32 171 19 219 19 c 1
 213 0 l 1
 15 0 l 1
 21 19 l 1
 69 21 86 37 195 183 c 1
 553 674 l 1
 573 674 l 1
 648 106 l 1
 661 32 668 22 712 19 c 1
295 257 m 1
 526 257 l 1
 494 532 l 1
 295 257 l 1
EndSplineSet
Ligature2: "'liga' Standard Ligatures in Latin lookup 1 subtable" A uni0328
EndChar

StartChar: Ccedilla
Encoding: 199 199 8
Width: 667
Flags: W
HStem: -215 35<224 257> -100 38<269 323> -14 44<356 401> 450 193<734 758> 636 40<555 589>
LayerCount: 2
Fore
SplineSet
332 -13 m 1xe8
 296 -65 l 1
 307 -63 313 -62 323 -62 c 0
 377 -62 401 -88 388 -131 c 0
 372 -183 314 -215 237 -215 c 0
 205 -215 183 -211 158 -199 c 1
 182 -168 l 1
 207 -177 222 -180 243 -180 c 0
 277 -180 303 -163 311 -136 c 0
 319 -110 307 -100 269 -100 c 0
 258 -100 249 -101 240 -104 c 1
 235 -99 l 1
 299 -10 l 1
 139 14 72 144 127 325 c 0
 161 435 227 528 316 590 c 0
 395 645 488 676 570 676 c 0xe8
 617 676 664 668 708 652 c 0
 722 646 736 643 745 643 c 0xf0
 765 643 784 655 797 676 c 1
 818 676 l 1xe8
 758 450 l 1
 735 450 l 1xf0
 735 515 729 543 707 575 c 0
 679 615 633 636 576 636 c 0
 431 636 303 519 247 338 c 0
 213 227 217 137 257 88 c 0
 288 50 338 30 401 30 c 0
 484 30 559 60 655 131 c 1
 668 113 l 1
 583 32 469 -14 356 -14 c 0
 348 -14 341 -14 332 -13 c 1xe8
EndSplineSet
Ligature2: "'liga' Standard Ligatures in Latin lookup 1 subtable" C uni0327
EndChar

StartChar: Cacute
Encoding: 262 262 9
Width: 667
Flags: HMW
HStem: -14 44<360.5 416.5> 636 40<322 386.5>
VStem: 28 116<282.5 380>
LayerCount: 2
Fore
SplineSet
758 450 m 1
 735 450 l 1
 735 515 729 543 707 575 c 0
 679 615 633 636 576 636 c 0
 431 636 303 519 247 338 c 0
 213 227 217 137 257 88 c 0
 288 50 338 30 401 30 c 0
 484 30 559 60 655 131 c 1
 668 113 l 1
 582 32 469 -14 356 -14 c 0
 257 -14 176 24 136 89 c 0
 103 146 99 232 127 325 c 0
 161 435 227 528 316 590 c 0
 395 645 488 676 570 676 c 0
 617 676 664 668 708 652 c 0
 722 646 736 643 745 643 c 0
 765 643 784 655 797 676 c 1
 818 676 l 1
 758 450 l 1
580 719 m 1
 540 719 l 1
 732 867 l 2
 756 885 766 890 781 890 c 0
 803 890 812 878 806 858 c 0
 801 842 788 829 763 816 c 2
 580 719 l 1
EndSplineSet
Ligature2: "'liga' Standard Ligatures in Latin lookup 1 subtable" C acutecomb
EndChar

StartChar: Ccaron
Encoding: 268 268 10
Width: 667
Flags: W
HStem: -14 44<356 401> 450 193<734 758> 636 40<552 589>
LayerCount: 2
Fore
SplineSet
758 450 m 1xc0
 735 450 l 1xc0
 735 515 729 543 707 575 c 0
 679 615 633 636 576 636 c 0
 431 636 303 519 247 338 c 0
 213 227 217 137 257 88 c 0
 288 50 338 30 401 30 c 0
 484 30 559 60 655 131 c 1
 668 113 l 1
 582 32 469 -14 356 -14 c 0
 257 -14 176 24 136 89 c 0
 103 146 99 232 127 325 c 0
 161 435 227 528 316 590 c 0
 395 645 488 676 570 676 c 0xa0
 617 676 664 668 708 652 c 0
 722 646 736 643 745 643 c 0xc0
 765 643 784 655 797 676 c 1
 818 676 l 1xa0
 758 450 l 1xc0
790 886 m 1
 614 719 l 1
 552 719 l 1
 479 886 l 1
 513 886 l 1
 602 783 l 1
 756 886 l 1
 790 886 l 1
EndSplineSet
Ligature2: "'liga' Standard Ligatures in Latin lookup 1 subtable" C uni030C
EndChar

StartChar: Dcaron
Encoding: 270 270 11
Width: 722
Flags: W
HStem: 0 37<255 305> 625 37<218 481>
LayerCount: 2
Fore
SplineSet
137 109 m 2
 273 553 l 2
 296 627 289 636 213 643 c 1
 218 662 l 1
 488 662 l 2
 625 662 723 626 770 557 c 0
 808 502 815 424 787 334 c 0
 757 237 693 148 610 89 c 0
 531 33 416 0 300 0 c 2
 16 0 l 1
 22 19 l 1
 99 24 115 37 137 109 c 2
385 586 m 2
 230 78 l 2
 220 46 229 37 269 37 c 0
 356 37 418 49 478 78 c 0
 573 125 640 209 676 327 c 0
 709 435 694 521 633 575 c 0
 595 609 535 625 449 625 c 0
 408 625 395 617 385 586 c 2
788 886 m 1
 612 719 l 1
 550 719 l 1
 477 886 l 1
 511 886 l 1
 600 783 l 1
 754 886 l 1
 788 886 l 1
EndSplineSet
Ligature2: "'liga' Standard Ligatures in Latin lookup 1 subtable" D uni030C
EndChar

StartChar: Edieresis
Encoding: 203 203 12
Width: 611
Flags: W
HStem: 0 37<283 552> 327 41<314 477> 443 20G<607 630> 519 143<214 705> 624 38<214 599> 735 99<430 460 629 659>
LayerCount: 2
Fore
SplineSet
649 169 m 1xec
 552 0 l 1
 12 0 l 1
 18 19 l 1
 92 24 111 39 132 109 c 2
 268 553 l 2
 289 623 281 637 209 643 c 1
 214 662 l 1xf4
 745 662 l 1xec
 705 519 l 1
 680 519 l 1xf4
 690 609 673 624 560 624 c 2
 425 624 l 2
 398 624 390 618 381 590 c 2
 314 368 l 1
 468 368 l 2
 515 368 545 376 563 393 c 0
 578 407 587 422 607 463 c 1
 630 463 l 1
 559 231 l 1
 536 231 l 1
 548 314 537 327 455 327 c 2
 301 327 l 1
 225 80 l 2
 220 63 219 52 223 49 c 1
 228 42 268 37 317 37 c 2
 344 37 l 2
 487 37 538 61 621 169 c 1
 649 169 l 1xec
460 834 m 0
 488 834 504 811 496 784 c 0
 487 757 458 735 430 735 c 0
 403 735 388 757 397 785 c 0
 405 811 435 834 460 834 c 0
659 834 m 0
 687 834 703 811 695 784 c 0
 686 757 657 735 629 735 c 0
 602 735 587 757 596 785 c 0
 604 811 634 834 659 834 c 0
EndSplineSet
Ligature2: "'liga' Standard Ligatures in Latin lookup 1 subtable" E uni0308
EndChar

StartChar: Eacute
Encoding: 201 201 13
Width: 611
Flags: W
HStem: 0 37<283 552> 327 41<314 477> 443 20G<607 630> 519 143<214 705> 624 38<214 589>
LayerCount: 2
Fore
SplineSet
649 169 m 1xe8
 552 0 l 1
 12 0 l 1
 18 19 l 1
 92 24 111 39 132 109 c 2
 268 553 l 2
 289 623 281 637 209 643 c 1
 214 662 l 1xf0
 745 662 l 1xe8
 705 519 l 1
 680 519 l 1xf0
 690 609 673 624 560 624 c 2
 425 624 l 2
 398 624 390 618 381 590 c 2
 314 368 l 1
 468 368 l 2
 515 368 545 376 563 393 c 0
 578 407 587 422 607 463 c 1
 630 463 l 1
 559 231 l 1
 536 231 l 1
 548 314 537 327 455 327 c 2
 301 327 l 1
 225 80 l 2
 220 63 219 52 223 49 c 1
 228 42 268 37 317 37 c 2
 344 37 l 2
 487 37 538 61 621 169 c 1
 649 169 l 1xe8
493 719 m 1
 453 719 l 1
 645 867 l 2
 669 885 679 890 694 890 c 0
 716 890 725 878 719 858 c 0
 714 842 701 829 676 816 c 2
 493 719 l 1
EndSplineSet
Ligature2: "'liga' Standard Ligatures in Latin lookup 1 subtable" E acutecomb
EndChar

StartChar: Egrave
Encoding: 200 200 14
Width: 611
Flags: W
HStem: 0 37<283 552> 327 41<314 477> 443 20G<607 630> 519 143<214 705> 624 38<214 601>
LayerCount: 2
Fore
SplineSet
649 169 m 1xe8
 552 0 l 1
 12 0 l 1
 18 19 l 1
 92 24 111 39 132 109 c 2
 268 553 l 2
 289 623 281 637 209 643 c 1
 214 662 l 1xf0
 745 662 l 1xe8
 705 519 l 1
 680 519 l 1xf0
 690 609 673 624 560 624 c 2
 425 624 l 2
 398 624 390 618 381 590 c 2
 314 368 l 1
 468 368 l 2
 515 368 545 376 563 393 c 0
 578 407 587 422 607 463 c 1
 630 463 l 1
 559 231 l 1
 536 231 l 1
 548 314 537 327 455 327 c 2
 301 327 l 1
 225 80 l 2
 220 63 219 52 223 49 c 1
 228 42 268 37 317 37 c 2
 344 37 l 2
 487 37 538 61 621 169 c 1
 649 169 l 1xe8
601 719 m 1
 561 719 l 1
 436 816 l 2
 422 828 416 843 421 859 c 0
 426 878 443 890 464 890 c 0
 479 890 487 885 499 867 c 2
 601 719 l 1
EndSplineSet
Ligature2: "'liga' Standard Ligatures in Latin lookup 1 subtable" E gravecomb
EndChar

StartChar: Ecircumflex
Encoding: 202 202 15
Width: 611
Flags: W
HStem: 0 37<283 552> 327 41<314 477> 443 20G<607 630> 519 143<214 705> 624 38<214 589>
LayerCount: 2
Fore
SplineSet
649 169 m 1xe8
 552 0 l 1
 12 0 l 1
 18 19 l 1
 92 24 111 39 132 109 c 2
 268 553 l 2
 289 623 281 637 209 643 c 1
 214 662 l 1xf0
 745 662 l 1xe8
 705 519 l 1
 680 519 l 1xf0
 690 609 673 624 560 624 c 2
 425 624 l 2
 398 624 390 618 381 590 c 2
 314 368 l 1
 468 368 l 2
 515 368 545 376 563 393 c 0
 578 407 587 422 607 463 c 1
 630 463 l 1
 559 231 l 1
 536 231 l 1
 548 314 537 327 455 327 c 2
 301 327 l 1
 225 80 l 2
 220 63 219 52 223 49 c 1
 228 42 268 37 317 37 c 2
 344 37 l 2
 487 37 538 61 621 169 c 1
 649 169 l 1xe8
682 719 m 1
 648 719 l 1
 557 822 l 1
 405 719 l 1
 371 719 l 1
 546 886 l 1
 608 886 l 1
 682 719 l 1
EndSplineSet
Ligature2: "'liga' Standard Ligatures in Latin lookup 1 subtable" E uni0302
EndChar

StartChar: Ecaron
Encoding: 282 282 16
Width: 611
Flags: HW
HStem: 0 19<12 12> 0 37<306 333 333 404.5> 327 41<201 355> 624 38<220.5 234 234 369> 643 19<12 12>
VStem: 99 102<109 327 368 553 553 588>
LayerCount: 2
Fore
SplineSet
649 169 m 1x74
 552 0 l 1
 12 0 l 1x44
 18 19 l 1
 92 24 111 39 132 109 c 2
 268 553 l 2
 289 623 281 637 209 643 c 1x8c
 214 662 l 1
 745 662 l 1
 705 519 l 1
 680 519 l 1
 690 609 673 624 560 624 c 2
 425 624 l 2
 398 624 390 618 381 590 c 2
 314 368 l 1
 468 368 l 2
 515 368 545 376 563 393 c 0
 578 407 587 422 607 463 c 1
 630 463 l 1
 559 231 l 1
 536 231 l 1
 548 314 537 327 455 327 c 2
 301 327 l 1
 225 80 l 2
 220 63 219 52 223 49 c 1
 228 42 268 37 317 37 c 2
 344 37 l 2
 487 37 538 61 621 169 c 1
 649 169 l 1x74
732 886 m 1
 556 719 l 1
 494 719 l 1
 421 886 l 1
 455 886 l 1
 544 783 l 1
 698 886 l 1
 732 886 l 1
EndSplineSet
Ligature2: "'liga' Standard Ligatures in Latin lookup 1 subtable" E uni030C
EndChar

StartChar: Edotaccent
Encoding: 278 278 17
Width: 611
Flags: HW
HStem: 0 19<12 12> 0 37<306 333 333 404.5> 327 41<201 355> 624 38<220.5 234 234 369> 643 19<12 12>
VStem: 99 102<109 327 368 553 553 588>
LayerCount: 2
Fore
SplineSet
649 169 m 1x74
 552 0 l 1
 12 0 l 1x44
 18 19 l 1
 92 24 111 39 132 109 c 2
 268 553 l 2
 289 623 281 637 209 643 c 1x8c
 214 662 l 1
 745 662 l 1
 705 519 l 1
 680 519 l 1
 690 609 673 624 560 624 c 2
 425 624 l 2
 398 624 390 618 381 590 c 2
 314 368 l 1
 468 368 l 2
 515 368 545 376 563 393 c 0
 578 407 587 422 607 463 c 1
 630 463 l 1
 559 231 l 1
 536 231 l 1
 548 314 537 327 455 327 c 2
 301 327 l 1
 225 80 l 2
 220 63 219 52 223 49 c 1
 228 42 268 37 317 37 c 2
 344 37 l 2
 487 37 538 61 621 169 c 1
 649 169 l 1x74
560 834 m 0
 588 834 604 811 596 784 c 0
 587 757 558 735 530 735 c 0
 503 735 488 757 497 785 c 0
 505 811 535 834 560 834 c 0
EndSplineSet
Ligature2: "'liga' Standard Ligatures in Latin lookup 1 subtable" E uni0307
EndChar

StartChar: Eogonek
Encoding: 280 280 18
Width: 611
Flags: HW
HStem: -165 56<509 519.5> 0 37<306 333 333 404.5> 327 41<201 355> 624 38<220.5 234 234 369> 643 19<12 12>
VStem: 99 102<109 327 368 553 553 588> 426 56<-80.5 -72.5>
LayerCount: 2
Fore
SplineSet
552 0 m 1x76
 546 0 l 2
 516 0 471 -37 461 -69 c 0
 454 -92 465 -109 487 -109 c 0
 508 -109 530 -99 569 -73 c 1
 584 -89 l 1
 531 -142 490 -165 449 -165 c 0
 408 -165 386 -132 399 -89 c 0
 409 -56 432 -31 480 0 c 1
 12 0 l 1
 18 19 l 1
 92 24 111 38 132 109 c 2
 268 553 l 2
 289 623 281 637 209 643 c 1xce
 214 662 l 1
 745 662 l 1
 705 519 l 1
 680 519 l 1
 690 609 673 624 560 624 c 2
 425 624 l 2
 398 624 390 618 381 590 c 2
 314 368 l 1
 468 368 l 2
 515 368 545 376 563 393 c 0
 578 407 587 422 607 463 c 1
 630 463 l 1
 559 231 l 1
 536 231 l 1
 548 314 537 327 455 327 c 2
 301 327 l 1
 225 80 l 2
 220 63 219 52 223 49 c 1
 228 42 268 37 317 37 c 2
 344 37 l 2
 487 37 538 61 621 169 c 1
 649 169 l 1
 552 0 l 1x76
EndSplineSet
Ligature2: "'liga' Standard Ligatures in Latin lookup 1 subtable" E uni0328
EndChar

StartChar: Gbreve
Encoding: 286 286 19
Width: 722
Flags: W
HStem: -14 40<384 417> 465 178<748 772> 636 40<563 608> 719 60<580 600>
LayerCount: 2
Fore
SplineSet
817 354 m 1xb0
 812 336 l 1
 752 331 736 318 718 259 c 2
 656 56 l 1
 605 21 470 -14 384 -14 c 0
 274 -14 189 24 143 93 c 0
 105 152 101 227 131 325 c 0
 194 529 382 676 582 676 c 0xb0
 627 676 670 668 711 653 c 0
 727 646 742 643 752 643 c 0xd0
 773 643 795 657 807 676 c 1
 829 676 l 1xb0
 772 465 l 1
 749 465 l 1xd0
 743 526 735 553 714 581 c 0
 686 617 642 636 586 636 c 0
 518 636 448 609 389 560 c 0
 330 511 274 420 246 326 c 0
 189 140 254 26 417 26 c 0
 489 26 558 53 568 85 c 2
 618 247 l 2
 631 290 632 313 619 322 c 0
 610 330 599 333 557 336 c 1
 562 354 l 1
 817 354 l 1xb0
741 876 m 1
 770 876 l 1
 725 770 664 719 580 719 c 0
 533 719 499 738 484 773 c 0
 474 801 474 825 489 876 c 1
 518 876 l 1
 511 809 536 779 600 779 c 0
 658 779 690 800 741 876 c 1
EndSplineSet
Ligature2: "'liga' Standard Ligatures in Latin lookup 1 subtable" G uni0306
EndChar

StartChar: Idieresis
Encoding: 207 207 20
Width: 333
Flags: W
HStem: 0 21G<18 315> 642 20G<220 517> 735 99<291 321 490 520>
LayerCount: 2
Fore
SplineSet
148 109 m 2
 284 553 l 2
 307 627 298 638 215 643 c 1
 220 662 l 1
 517 662 l 1
 512 643 l 1
 426 639 408 626 386 553 c 2
 250 109 l 2
 228 36 240 22 321 19 c 1
 315 0 l 1
 18 0 l 1
 24 19 l 1
 109 22 125 34 148 109 c 2
321 834 m 0
 349 834 365 811 357 784 c 0
 348 757 319 735 291 735 c 0
 264 735 249 757 258 785 c 0
 266 811 296 834 321 834 c 0
520 834 m 0
 548 834 564 811 556 784 c 0
 547 757 518 735 490 735 c 0
 463 735 448 757 457 785 c 0
 465 811 495 834 520 834 c 0
EndSplineSet
Ligature2: "'liga' Standard Ligatures in Latin lookup 1 subtable" I uni0308
EndChar

StartChar: Iacute
Encoding: 205 205 21
Width: 333
Flags: W
HStem: 0 21G<18 315> 642 20G<220 517>
LayerCount: 2
Fore
SplineSet
148 109 m 2
 284 553 l 2
 307 627 298 638 215 643 c 1
 220 662 l 1
 517 662 l 1
 512 643 l 1
 426 639 408 626 386 553 c 2
 250 109 l 2
 228 36 240 22 321 19 c 1
 315 0 l 1
 18 0 l 1
 24 19 l 1
 109 22 125 34 148 109 c 2
353 719 m 1
 313 719 l 1
 505 867 l 2
 529 885 539 890 554 890 c 0
 576 890 585 878 579 858 c 0
 574 842 561 829 536 816 c 2
 353 719 l 1
EndSplineSet
Ligature2: "'liga' Standard Ligatures in Latin lookup 1 subtable" I acutecomb
EndChar

StartChar: Igrave
Encoding: 204 204 22
Width: 333
Flags: W
HStem: 0 21G<18 315> 642 20G<220 517>
LayerCount: 2
Fore
SplineSet
148 109 m 2
 284 553 l 2
 307 627 298 638 215 643 c 1
 220 662 l 1
 517 662 l 1
 512 643 l 1
 426 639 408 626 386 553 c 2
 250 109 l 2
 228 36 240 22 321 19 c 1
 315 0 l 1
 18 0 l 1
 24 19 l 1
 109 22 125 34 148 109 c 2
462 719 m 1
 422 719 l 1
 297 816 l 2
 283 828 277 843 282 859 c 0
 287 878 304 890 325 890 c 0
 340 890 348 885 360 867 c 2
 462 719 l 1
EndSplineSet
Ligature2: "'liga' Standard Ligatures in Latin lookup 1 subtable" I gravecomb
EndChar

StartChar: Icircumflex
Encoding: 206 206 23
Width: 333
Flags: W
HStem: 0 21G<18 315> 642 20G<220 517>
LayerCount: 2
Fore
SplineSet
148 109 m 2
 284 553 l 2
 307 627 298 638 215 643 c 1
 220 662 l 1
 517 662 l 1
 512 643 l 1
 426 639 408 626 386 553 c 2
 250 109 l 2
 228 36 240 22 321 19 c 1
 315 0 l 1
 18 0 l 1
 24 19 l 1
 109 22 125 34 148 109 c 2
542 719 m 1
 508 719 l 1
 417 822 l 1
 265 719 l 1
 231 719 l 1
 406 886 l 1
 468 886 l 1
 542 719 l 1
EndSplineSet
Ligature2: "'liga' Standard Ligatures in Latin lookup 1 subtable" I uni0302
EndChar

StartChar: Idotaccent
Encoding: 304 304 24
Width: 333
Flags: W
HStem: 0 21G<18 315> 642 20G<220 517> 735 99<391 421>
LayerCount: 2
Fore
SplineSet
148 109 m 2
 284 553 l 2
 307 627 298 638 215 643 c 1
 220 662 l 1
 517 662 l 1
 512 643 l 1
 426 639 408 626 386 553 c 2
 250 109 l 2
 228 36 240 22 321 19 c 1
 315 0 l 1
 18 0 l 1
 24 19 l 1
 109 22 125 34 148 109 c 2
421 834 m 0
 449 834 465 811 457 784 c 0
 448 757 419 735 391 735 c 0
 364 735 349 757 358 785 c 0
 366 811 396 834 421 834 c 0
EndSplineSet
Ligature2: "'liga' Standard Ligatures in Latin lookup 1 subtable" I uni0307
EndChar

StartChar: Lacute
Encoding: 313 313 25
Width: 611
Flags: W
HStem: 0 39<266 550> 642 20G<214 496>
LayerCount: 2
Fore
SplineSet
626 174 m 1
 651 174 l 1
 550 0 l 1
 12 0 l 1
 18 19 l 1
 92 24 111 39 132 109 c 2
 268 553 l 2
 289 623 281 637 209 643 c 1
 214 662 l 1
 496 662 l 1
 491 643 l 1
 410 638 392 624 370 553 c 2
 225 80 l 2
 215 45 226 39 299 39 c 2
 366 39 l 2
 449 39 509 57 556 96 c 0
 577 113 598 136 626 174 c 1
492 719 m 1
 452 719 l 1
 644 867 l 2
 668 885 678 890 693 890 c 0
 715 890 724 878 718 858 c 0
 713 842 700 829 675 816 c 2
 492 719 l 1
EndSplineSet
Ligature2: "'liga' Standard Ligatures in Latin lookup 1 subtable" L acutecomb
EndChar

StartChar: Lcaron
Encoding: 317 317 26
Width: 611
Flags: W
HStem: 0 39<266 550> 572 104<635 642>
LayerCount: 2
Fore
SplineSet
626 174 m 1
 651 174 l 1
 550 0 l 1
 12 0 l 1
 18 19 l 1
 92 24 111 39 132 109 c 2
 268 553 l 2
 289 623 281 637 209 643 c 1
 214 662 l 1
 496 662 l 1
 491 643 l 1
 410 638 392 624 370 553 c 2
 225 80 l 2
 215 45 226 39 299 39 c 2
 366 39 l 2
 449 39 509 57 556 96 c 0
 577 113 598 136 626 174 c 1
535 433 m 1
 532 452 l 1
 598 489 637 525 647 558 c 0
 649 566 645 572 637 572 c 0
 636 572 636 572 628 570 c 0
 622 569 615 568 609 568 c 0
 573 568 555 587 565 619 c 0
 576 653 607 676 642 676 c 0
 687 676 710 637 694 587 c 0
 676 527 612 466 535 433 c 1
EndSplineSet
Ligature2: "'liga' Standard Ligatures in Latin lookup 1 subtable" L uni030C
EndChar

StartChar: Nacute
Encoding: 323 323 27
Width: 722
Flags: W
HStem: -11 21G<592 609> 643 19<214 230.039>
LayerCount: 2
Fore
SplineSet
609 -11 m 1
 592 -11 l 1
 318 539 l 1
 198 147 l 2
 167 46 177 23 253 19 c 1
 247 0 l 1
 12 0 l 1
 18 19 l 1
 103 25 122 44 154 147 c 2
 289 588 l 1
 263 635 252 643 209 643 c 1
 214 662 l 1
 385 662 l 1
 622 178 l 1
 725 515 l 2
 744 577 746 613 731 627 c 0
 718 636 706 640 669 643 c 1
 674 662 l 1
 909 662 l 1
 904 643 l 1
 864 639 849 635 832 625 c 0
 809 612 788 575 769 515 c 2
 609 -11 l 1
548 719 m 1
 508 719 l 1
 700 867 l 2
 724 885 734 890 749 890 c 0
 771 890 780 878 774 858 c 0
 769 842 756 829 731 816 c 2
 548 719 l 1
EndSplineSet
Ligature2: "'liga' Standard Ligatures in Latin lookup 1 subtable" N acutecomb
EndChar

StartChar: Ncaron
Encoding: 327 327 28
Width: 722
Flags: W
HStem: -11 21G<592 609> 643 19<214 230.039>
LayerCount: 2
Fore
SplineSet
609 -11 m 1
 592 -11 l 1
 318 539 l 1
 198 147 l 2
 167 46 177 23 253 19 c 1
 247 0 l 1
 12 0 l 1
 18 19 l 1
 103 25 122 44 154 147 c 2
 289 588 l 1
 263 635 252 643 209 643 c 1
 214 662 l 1
 385 662 l 1
 622 178 l 1
 725 515 l 2
 744 577 746 613 731 627 c 0
 718 636 706 640 669 643 c 1
 674 662 l 1
 909 662 l 1
 904 643 l 1
 864 639 849 635 832 625 c 0
 809 612 788 575 769 515 c 2
 609 -11 l 1
788 886 m 1
 612 719 l 1
 550 719 l 1
 477 886 l 1
 511 886 l 1
 600 783 l 1
 754 886 l 1
 788 886 l 1
EndSplineSet
Ligature2: "'liga' Standard Ligatures in Latin lookup 1 subtable" N uni030C
EndChar

StartChar: Ntilde
Encoding: 209 209 29
Width: 722
Flags: W
HStem: -11 21G<592 609> 643 19<214 230.039> 744 56<648 689> 790 55<518 555>
LayerCount: 2
Fore
SplineSet
609 -11 m 1xc0
 592 -11 l 1
 318 539 l 1
 198 147 l 2
 167 46 177 23 253 19 c 1
 247 0 l 1
 12 0 l 1
 18 19 l 1
 103 25 122 44 154 147 c 2
 289 588 l 1
 263 635 252 643 209 643 c 1
 214 662 l 1
 385 662 l 1
 622 178 l 1
 725 515 l 2
 744 577 746 613 731 627 c 0
 718 636 706 640 669 643 c 1
 674 662 l 1
 909 662 l 1
 904 643 l 1
 864 639 849 635 832 625 c 0
 809 612 788 575 769 515 c 2
 609 -11 l 1xc0
757 850 m 1
 786 850 l 1
 742 774 703 744 648 744 c 0xe0
 623 744 610 748 575 768 c 2
 555 779 l 2
 542 786 530 790 518 790 c 0xd0
 495 790 473 775 452 744 c 1
 423 744 l 1xe0
 458 809 505 845 555 845 c 0xd0
 577 845 601 839 620 827 c 2
 640 815 l 2
 656 806 674 800 689 800 c 0xe0
 712 800 728 812 757 850 c 1
EndSplineSet
Ligature2: "'liga' Standard Ligatures in Latin lookup 1 subtable" N tildecomb
EndChar

StartChar: Odieresis
Encoding: 214 214 30
Width: 722
Flags: W
HStem: -14 36<349 373> 640 36<547 570> 735 99<486 516 685 715>
LayerCount: 2
Fore
SplineSet
568 676 m 0
 664 676 737 640 779 571 c 0
 815 511 818 426 788 327 c 0
 727 126 548 -14 351 -14 c 0
 263 -14 186 25 147 88 c 0
 111 146 106 237 135 331 c 0
 197 532 377 676 568 676 c 0
557 640 m 0
 502 640 446 618 394 575 c 0
 337 528 280 431 249 329 c 0
 215 218 217 117 255 71 c 0
 280 40 320 22 366 22 c 0
 419 22 469 40 515 75 c 0
 545 98 570 123 586 148 c 0
 622 200 656 269 674 328 c 0
 711 447 708 541 669 590 c 0
 643 622 603 640 557 640 c 0
516 834 m 0
 544 834 560 811 552 784 c 0
 543 757 514 735 486 735 c 0
 459 735 444 757 453 785 c 0
 461 811 491 834 516 834 c 0
715 834 m 0
 743 834 759 811 751 784 c 0
 742 757 713 735 685 735 c 0
 658 735 643 757 652 785 c 0
 660 811 690 834 715 834 c 0
EndSplineSet
Ligature2: "'liga' Standard Ligatures in Latin lookup 1 subtable" O uni0308
EndChar

StartChar: Oacute
Encoding: 211 211 31
Width: 722
Flags: W
HStem: -14 36<349 373> 640 36<546 570>
LayerCount: 2
Fore
SplineSet
568 676 m 0
 664 676 737 640 779 571 c 0
 815 511 818 426 788 327 c 0
 727 126 548 -14 351 -14 c 0
 263 -14 186 25 147 88 c 0
 111 146 106 237 135 331 c 0
 197 532 377 676 568 676 c 0
557 640 m 0
 502 640 446 618 394 575 c 0
 337 528 280 431 249 329 c 0
 215 218 217 117 255 71 c 0
 280 40 320 22 366 22 c 0
 419 22 469 40 515 75 c 0
 545 98 570 123 586 148 c 0
 622 200 656 269 674 328 c 0
 711 447 708 541 669 590 c 0
 643 622 603 640 557 640 c 0
548 719 m 1
 508 719 l 1
 700 867 l 2
 724 885 734 890 749 890 c 0
 771 890 780 878 774 858 c 0
 769 842 756 829 731 816 c 2
 548 719 l 1
EndSplineSet
Ligature2: "'liga' Standard Ligatures in Latin lookup 1 subtable" O acutecomb
EndChar

StartChar: Ograve
Encoding: 210 210 32
Width: 722
Flags: W
HStem: -14 36<349 373> 640 36<547 570>
LayerCount: 2
Fore
SplineSet
568 676 m 0
 664 676 737 640 779 571 c 0
 815 511 818 426 788 327 c 0
 727 126 548 -14 351 -14 c 0
 263 -14 186 25 147 88 c 0
 111 146 106 237 135 331 c 0
 197 532 377 676 568 676 c 0
557 640 m 0
 502 640 446 618 394 575 c 0
 337 528 280 431 249 329 c 0
 215 218 217 117 255 71 c 0
 280 40 320 22 366 22 c 0
 419 22 469 40 515 75 c 0
 545 98 570 123 586 148 c 0
 622 200 656 269 674 328 c 0
 711 447 708 541 669 590 c 0
 643 622 603 640 557 640 c 0
657 719 m 1
 617 719 l 1
 492 816 l 2
 478 828 472 843 477 859 c 0
 482 878 499 890 520 890 c 0
 535 890 543 885 555 867 c 2
 657 719 l 1
EndSplineSet
Ligature2: "'liga' Standard Ligatures in Latin lookup 1 subtable" O gravecomb
EndChar

StartChar: Ocircumflex
Encoding: 212 212 33
Width: 722
Flags: W
HStem: -14 36<349 373> 640 36<547 570>
LayerCount: 2
Fore
SplineSet
568 676 m 0
 664 676 737 640 779 571 c 0
 815 511 818 426 788 327 c 0
 727 126 548 -14 351 -14 c 0
 263 -14 186 25 147 88 c 0
 111 146 106 237 135 331 c 0
 197 532 377 676 568 676 c 0
557 640 m 0
 502 640 446 618 394 575 c 0
 337 528 280 431 249 329 c 0
 215 218 217 117 255 71 c 0
 280 40 320 22 366 22 c 0
 419 22 469 40 515 75 c 0
 545 98 570 123 586 148 c 0
 622 200 656 269 674 328 c 0
 711 447 708 541 669 590 c 0
 643 622 603 640 557 640 c 0
737 719 m 1
 703 719 l 1
 612 822 l 1
 460 719 l 1
 426 719 l 1
 601 886 l 1
 663 886 l 1
 737 719 l 1
EndSplineSet
Ligature2: "'liga' Standard Ligatures in Latin lookup 1 subtable" O uni0302
EndChar

StartChar: Otilde
Encoding: 213 213 34
Width: 722
Flags: W
HStem: -14 36<349 373> 640 36<547 575> 744 56<648 689> 790 55<518 555>
LayerCount: 2
Fore
SplineSet
568 676 m 0xc0
 664 676 737 640 779 571 c 0
 815 511 818 426 788 327 c 0
 727 126 548 -14 351 -14 c 0
 263 -14 186 25 147 88 c 0
 111 146 106 237 135 331 c 0
 197 532 377 676 568 676 c 0xc0
557 640 m 0
 502 640 446 618 394 575 c 0
 337 528 280 431 249 329 c 0
 215 218 217 117 255 71 c 0
 280 40 320 22 366 22 c 0
 419 22 469 40 515 75 c 0
 545 98 570 123 586 148 c 0
 622 200 656 269 674 328 c 0
 711 447 708 541 669 590 c 0
 643 622 603 640 557 640 c 0
757 850 m 1
 786 850 l 1
 742 774 703 744 648 744 c 0xe0
 623 744 610 748 575 768 c 2
 555 779 l 2
 542 786 530 790 518 790 c 0xd0
 495 790 473 775 452 744 c 1
 423 744 l 1xe0
 458 809 505 845 555 845 c 0xd0
 577 845 601 839 620 827 c 2
 640 815 l 2
 656 806 674 800 689 800 c 0xe0
 712 800 728 812 757 850 c 1
EndSplineSet
Ligature2: "'liga' Standard Ligatures in Latin lookup 1 subtable" O tildecomb
EndChar

StartChar: Ohungarumlaut
Encoding: 336 336 35
Width: 722
Flags: W
HStem: -14 36<349 373> 640 36<547 570>
LayerCount: 2
Fore
SplineSet
568 676 m 0
 664 676 737 640 779 571 c 0
 815 511 818 426 788 327 c 0
 727 126 548 -14 351 -14 c 0
 263 -14 186 25 147 88 c 0
 111 146 106 237 135 331 c 0
 197 532 377 676 568 676 c 0
557 640 m 0
 502 640 446 618 394 575 c 0
 337 528 280 431 249 329 c 0
 215 218 217 117 255 71 c 0
 280 40 320 22 366 22 c 0
 419 22 469 40 515 75 c 0
 545 98 570 123 586 148 c 0
 622 200 656 269 674 328 c 0
 711 447 708 541 669 590 c 0
 643 622 603 640 557 640 c 0
648 719 m 1
 608 719 l 1
 800 867 l 2
 824 885 834 890 849 890 c 0
 871 890 880 878 874 858 c 0
 869 842 856 829 831 816 c 2
 648 719 l 1
492 719 m 1
 452 719 l 1
 644 867 l 2
 668 885 678 890 693 890 c 0
 715 890 724 878 718 858 c 0
 713 842 700 829 675 816 c 2
 492 719 l 1
EndSplineSet
Ligature2: "'liga' Standard Ligatures in Latin lookup 1 subtable" O uni030B
EndChar

StartChar: Racute
Encoding: 340 340 36
Width: 667
Flags: W
HStem: 0 21G<17 294 498 659> 625 37<219 466>
LayerCount: 2
Fore
SplineSet
665 19 m 1
 659 0 l 1
 498 0 l 1
 354 308 l 1
 298 306 l 1
 237 109 l 2
 215 37 224 24 300 19 c 1
 294 0 l 1
 17 0 l 1
 23 19 l 1
 100 25 113 37 139 120 c 2
 271 553 l 2
 293 624 286 635 214 643 c 1
 219 662 l 1
 495 662 l 2
 589 662 664 636 690 595 c 0
 707 566 709 529 696 486 c 0
 681 439 649 397 609 371 c 0
 568 344 535 332 464 319 c 1
 592 66 l 1
 611 32 628 22 665 19 c 1
384 589 m 2
 309 343 l 1
 405 345 442 351 496 377 c 0
 538 396 572 438 587 488 c 0
 616 582 571 625 446 625 c 0
 406 625 393 617 384 589 c 2
520 719 m 1
 480 719 l 1
 672 867 l 2
 696 885 706 890 721 890 c 0
 743 890 752 878 746 858 c 0
 741 842 728 829 703 816 c 2
 520 719 l 1
EndSplineSet
Ligature2: "'liga' Standard Ligatures in Latin lookup 1 subtable" R acutecomb
EndChar

StartChar: Rcaron
Encoding: 344 344 37
Width: 667
Flags: W
HStem: 0 21G<17 294 498 659> 625 37<219 466>
LayerCount: 2
Fore
SplineSet
665 19 m 1
 659 0 l 1
 498 0 l 1
 354 308 l 1
 298 306 l 1
 237 109 l 2
 215 37 224 24 300 19 c 1
 294 0 l 1
 17 0 l 1
 23 19 l 1
 100 25 113 37 139 120 c 2
 271 553 l 2
 293 624 286 635 214 643 c 1
 219 662 l 1
 495 662 l 2
 589 662 664 636 690 595 c 0
 707 566 709 529 696 486 c 0
 681 439 649 397 609 371 c 0
 568 344 535 332 464 319 c 1
 592 66 l 1
 611 32 628 22 665 19 c 1
384 589 m 2
 309 343 l 1
 405 345 442 351 496 377 c 0
 538 396 572 438 587 488 c 0
 616 582 571 625 446 625 c 0
 406 625 393 617 384 589 c 2
760 886 m 1
 584 719 l 1
 522 719 l 1
 449 886 l 1
 483 886 l 1
 572 783 l 1
 726 886 l 1
 760 886 l 1
EndSplineSet
Ligature2: "'liga' Standard Ligatures in Latin lookup 1 subtable" R uni030C
EndChar

StartChar: Sacute
Encoding: 346 346 38
Width: 556
Flags: W
HStem: -13 21G<68 90> 20 2<128 274> 20 179<103 128> 463 179<586 611> 635 41<437 469>
LayerCount: 2
Fore
SplineSet
654 676 m 1x88
 611 463 l 1
 586 463 l 1x90
 588 522 582 548 560 580 c 0
 536 616 500 635 455 635 c 0
 393 635 340 597 323 542 c 0
 306 488 335 444 422 386 c 0
 532 315 567 250 542 168 c 0
 511 65 398 -14 283 -14 c 0
 243 -14 205 -6 172 9 c 0
 155 16 139 20 128 20 c 0xc8
 113 20 97 6 90 -13 c 1
 68 -13 l 1
 103 199 l 1
 126 199 l 1xa0
 139 77 185 22 274 22 c 0
 347 22 411 68 431 135 c 0
 439 159 440 180 435 193 c 0
 422 231 382 272 322 310 c 0
 228 369 201 425 225 505 c 0
 241 557 272 599 317 630 c 0
 358 659 408 676 451 676 c 0xc8
 483 676 517 668 550 654 c 1
 565 646 580 642 590 642 c 0x90
 607 642 622 653 633 676 c 1
 654 676 l 1x88
465 719 m 1
 425 719 l 1
 617 867 l 2
 641 885 651 890 666 890 c 0
 688 890 697 878 691 858 c 0
 686 842 673 829 648 816 c 2
 465 719 l 1
EndSplineSet
Ligature2: "'liga' Standard Ligatures in Latin lookup 1 subtable" S acutecomb
EndChar

StartChar: Scaron
Encoding: 352 352 39
Width: 556
Flags: W
HStem: -13 21G<68 90> 20 2<128 274> 20 179<103 128> 463 179<586 611> 635 41<437 469>
LayerCount: 2
Fore
SplineSet
654 676 m 1x88
 611 463 l 1
 586 463 l 1x90
 588 522 582 548 560 580 c 0
 536 616 500 635 455 635 c 0
 393 635 340 597 323 542 c 0
 306 488 335 444 422 386 c 0
 532 315 567 250 542 168 c 0
 511 65 398 -14 283 -14 c 0
 243 -14 205 -6 172 9 c 0
 155 16 139 20 128 20 c 0xc8
 113 20 97 6 90 -13 c 1
 68 -13 l 1
 103 199 l 1
 126 199 l 1xa0
 139 77 185 22 274 22 c 0
 347 22 411 68 431 135 c 0
 439 159 440 180 435 193 c 0
 422 231 382 272 322 310 c 0
 228 369 201 425 225 505 c 0
 241 557 272 599 317 630 c 0
 358 659 408 676 451 676 c 0xc8
 483 676 517 668 550 654 c 1
 565 646 580 642 590 642 c 0x90
 607 642 622 653 633 676 c 1
 654 676 l 1x88
705 886 m 1
 529 719 l 1
 467 719 l 1
 394 886 l 1
 428 886 l 1
 517 783 l 1
 671 886 l 1
 705 886 l 1
EndSplineSet
Ligature2: "'liga' Standard Ligatures in Latin lookup 1 subtable" S uni030C
EndChar

StartChar: Scedilla
Encoding: 350 350 40
Width: 556
Flags: W
HStem: -215 35<170 197> -100 38<214 268> -13 21G<68 90> 20 2<128 274> 20 179<103 128> 463 179<585 611> 635 41<437 469>
LayerCount: 2
Fore
SplineSet
276 -14 m 1xe2
 241 -65 l 1
 251 -63 258 -62 268 -62 c 0
 322 -62 346 -88 333 -131 c 0
 317 -183 259 -215 182 -215 c 0
 150 -215 128 -211 103 -199 c 1
 127 -168 l 1
 151 -177 167 -180 188 -180 c 0
 222 -180 248 -163 256 -136 c 0
 264 -110 252 -100 214 -100 c 0
 202 -100 194 -101 185 -104 c 1
 180 -99 l 1
 243 -11 l 1
 216 -7 194 -2 172 9 c 0
 155 16 139 20 128 20 c 0xf2
 113 20 97 6 90 -13 c 1
 68 -13 l 1
 103 199 l 1
 126 199 l 1xe8
 139 77 185 22 274 22 c 0
 347 22 411 68 431 135 c 0
 439 159 440 180 435 193 c 0
 422 231 382 272 322 310 c 0
 228 369 201 425 225 505 c 0
 241 557 272 599 317 630 c 0
 358 659 408 676 451 676 c 0xf2
 483 676 517 668 550 654 c 1
 565 646 580 642 590 642 c 0xe4
 607 642 622 653 633 676 c 1
 654 676 l 1xe2
 611 463 l 1
 586 463 l 1xe4
 588 522 582 548 560 580 c 0
 536 616 500 635 455 635 c 0
 393 635 340 597 323 542 c 0
 306 488 335 444 422 386 c 0
 532 315 567 250 542 168 c 0
 511 66 399 -14 285 -14 c 2
 276 -14 l 1xe2
EndSplineSet
Ligature2: "'liga' Standard Ligatures in Latin lookup 1 subtable" S uni0327
EndChar

StartChar: Tcaron
Encoding: 356 356 41
Width: 611
Flags: W
HStem: 0 21G<160 452> 620 42<225 444 225 625>
LayerCount: 2
Fore
SplineSet
444 620 m 1
 390 620 l 2
 278 620 249 601 191 492 c 1
 167 492 l 1
 225 662 l 1
 789 662 l 1
 743 492 l 1
 719 492 l 1
 730 602 714 620 600 620 c 2
 546 620 l 1
 389 109 l 2
 367 36 377 23 458 19 c 1
 452 0 l 1
 160 0 l 1
 166 19 l 1
 250 24 265 35 291 120 c 2
 444 620 l 1
732 886 m 1
 556 719 l 1
 494 719 l 1
 421 886 l 1
 455 886 l 1
 544 783 l 1
 698 886 l 1
 732 886 l 1
EndSplineSet
Ligature2: "'liga' Standard Ligatures in Latin lookup 1 subtable" T uni030C
EndChar

StartChar: Udieresis
Encoding: 220 220 42
Width: 722
Flags: W
HStem: -14 44<351 387> 642 20G<216 499 675 907> 735 99<503 533 702 732>
LayerCount: 2
Fore
SplineSet
768 515 m 2
 689 254 l 2
 665 177 642 131 605 89 c 0
 545 21 460 -14 351 -14 c 0
 181 -14 125 68 178 241 c 2
 273 553 l 2
 295 626 288 637 211 643 c 1
 216 662 l 1
 499 662 l 1
 494 643 l 1
 411 636 397 625 375 553 c 2
 277 233 l 2
 258 170 254 133 262 101 c 0
 275 54 316 30 387 30 c 0
 462 30 536 61 577 109 c 0
 602 139 621 177 642 245 c 2
 724 515 l 2
 755 615 746 637 670 643 c 1
 675 662 l 1
 907 662 l 1
 902 643 l 1
 817 633 800 617 768 515 c 2
533 834 m 0
 561 834 577 811 569 784 c 0
 560 757 531 735 503 735 c 0
 476 735 461 757 470 785 c 0
 478 811 508 834 533 834 c 0
732 834 m 0
 760 834 776 811 768 784 c 0
 759 757 730 735 702 735 c 0
 675 735 660 757 669 785 c 0
 677 811 707 834 732 834 c 0
EndSplineSet
Ligature2: "'liga' Standard Ligatures in Latin lookup 1 subtable" U uni0308
EndChar

StartChar: Uacute
Encoding: 218 218 43
Width: 722
Flags: W
HStem: -14 44<351 387> 642 20G<216 499 675 907>
LayerCount: 2
Fore
SplineSet
768 515 m 2
 689 254 l 2
 665 177 642 131 605 89 c 0
 545 21 460 -14 351 -14 c 0
 181 -14 125 68 178 241 c 2
 273 553 l 2
 295 626 288 637 211 643 c 1
 216 662 l 1
 499 662 l 1
 494 643 l 1
 411 636 397 625 375 553 c 2
 277 233 l 2
 258 170 254 133 262 101 c 0
 275 54 316 30 387 30 c 0
 462 30 536 61 577 109 c 0
 602 139 621 177 642 245 c 2
 724 515 l 2
 755 615 746 637 670 643 c 1
 675 662 l 1
 907 662 l 1
 902 643 l 1
 817 633 800 617 768 515 c 2
573 719 m 1
 533 719 l 1
 725 867 l 2
 749 885 759 890 774 890 c 0
 796 890 805 878 799 858 c 0
 794 842 781 829 756 816 c 2
 573 719 l 1
EndSplineSet
Ligature2: "'liga' Standard Ligatures in Latin lookup 1 subtable" U acutecomb
EndChar

StartChar: Ugrave
Encoding: 217 217 44
Width: 722
Flags: W
HStem: -14 44<351 387> 642 20G<216 499 675 907>
LayerCount: 2
Fore
SplineSet
768 515 m 2
 689 254 l 2
 665 177 642 131 605 89 c 0
 545 21 460 -14 351 -14 c 0
 181 -14 125 68 178 241 c 2
 273 553 l 2
 295 626 288 637 211 643 c 1
 216 662 l 1
 499 662 l 1
 494 643 l 1
 411 636 397 625 375 553 c 2
 277 233 l 2
 258 170 254 133 262 101 c 0
 275 54 316 30 387 30 c 0
 462 30 536 61 577 109 c 0
 602 139 621 177 642 245 c 2
 724 515 l 2
 755 615 746 637 670 643 c 1
 675 662 l 1
 907 662 l 1
 902 643 l 1
 817 633 800 617 768 515 c 2
674 719 m 1
 634 719 l 1
 509 816 l 2
 495 828 489 843 494 859 c 0
 499 878 516 890 537 890 c 0
 552 890 560 885 572 867 c 2
 674 719 l 1
EndSplineSet
Ligature2: "'liga' Standard Ligatures in Latin lookup 1 subtable" U gravecomb
EndChar

StartChar: Ucircumflex
Encoding: 219 219 45
Width: 722
Flags: W
HStem: -14 44<351 387> 642 20G<216 499 675 907>
LayerCount: 2
Fore
SplineSet
768 515 m 2
 689 254 l 2
 665 177 642 131 605 89 c 0
 545 21 460 -14 351 -14 c 0
 181 -14 125 68 178 241 c 2
 273 553 l 2
 295 626 288 637 211 643 c 1
 216 662 l 1
 499 662 l 1
 494 643 l 1
 411 636 397 625 375 553 c 2
 277 233 l 2
 258 170 254 133 262 101 c 0
 275 54 316 30 387 30 c 0
 462 30 536 61 577 109 c 0
 602 139 621 177 642 245 c 2
 724 515 l 2
 755 615 746 637 670 643 c 1
 675 662 l 1
 907 662 l 1
 902 643 l 1
 817 633 800 617 768 515 c 2
756 719 m 1
 722 719 l 1
 631 822 l 1
 479 719 l 1
 445 719 l 1
 620 886 l 1
 682 886 l 1
 756 719 l 1
EndSplineSet
Ligature2: "'liga' Standard Ligatures in Latin lookup 1 subtable" U uni0302
EndChar

StartChar: Uring
Encoding: 366 366 46
Width: 722
Flags: W
HStem: -14 44<351 387> 642 20G<216 499 675 907> 724 34<600 613> 889 34<651 664>
LayerCount: 2
Fore
SplineSet
768 515 m 2
 689 254 l 2
 665 177 642 131 605 89 c 0
 545 21 460 -14 351 -14 c 0
 181 -14 125 68 178 241 c 2
 273 553 l 2
 295 626 288 637 211 643 c 1
 216 662 l 1
 499 662 l 1
 494 643 l 1
 411 636 397 625 375 553 c 2
 277 233 l 2
 258 170 254 133 262 101 c 0
 275 54 316 30 387 30 c 0
 462 30 536 61 577 109 c 0
 602 139 621 177 642 245 c 2
 724 515 l 2
 755 615 746 637 670 643 c 1
 675 662 l 1
 907 662 l 1
 902 643 l 1
 817 633 800 617 768 515 c 2
662 923 m 0
 717 923 748 878 732 823 c 0
 715 768 656 724 601 724 c 0
 545 724 516 768 533 824 c 0
 549 878 608 923 662 923 c 0
653 889 m 0
 617 889 578 860 567 824 c 0
 556 788 576 758 611 758 c 0
 648 758 687 787 698 823 c 0
 709 859 688 889 653 889 c 0
EndSplineSet
Ligature2: "'liga' Standard Ligatures in Latin lookup 1 subtable" U uni030A
EndChar

StartChar: Uhungarumlaut
Encoding: 368 368 47
Width: 722
Flags: W
HStem: -14 44<351 387> 642 20G<216 499 675 907>
LayerCount: 2
Fore
SplineSet
768 515 m 2
 689 254 l 2
 665 177 642 131 605 89 c 0
 545 21 460 -14 351 -14 c 0
 181 -14 125 68 178 241 c 2
 273 553 l 2
 295 626 288 637 211 643 c 1
 216 662 l 1
 499 662 l 1
 494 643 l 1
 411 636 397 625 375 553 c 2
 277 233 l 2
 258 170 254 133 262 101 c 0
 275 54 316 30 387 30 c 0
 462 30 536 61 577 109 c 0
 602 139 621 177 642 245 c 2
 724 515 l 2
 755 615 746 637 670 643 c 1
 675 662 l 1
 907 662 l 1
 902 643 l 1
 817 633 800 617 768 515 c 2
648 719 m 1
 608 719 l 1
 800 867 l 2
 824 885 834 890 849 890 c 0
 871 890 880 878 874 858 c 0
 869 842 856 829 831 816 c 2
 648 719 l 1
492 719 m 1
 452 719 l 1
 644 867 l 2
 668 885 678 890 693 890 c 0
 715 890 724 878 718 858 c 0
 713 842 700 829 675 816 c 2
 492 719 l 1
EndSplineSet
Ligature2: "'liga' Standard Ligatures in Latin lookup 1 subtable" U uni030B
EndChar

StartChar: Yacute
Encoding: 221 221 48
Width: 722
Flags: W
HStem: 0 19<500 526> 642 20<224 500 681 695>
LayerCount: 2
Fore
SplineSet
905 662 m 1
 900 643 l 1
 847 639 815 617 727 529 c 1
 510 303 l 1
 450 109 l 2
 427 33 437 21 526 19 c 1
 520 0 l 1
 214 0 l 1
 220 19 l 1
 312 23 325 33 352 120 c 2
 405 294 l 1
 333 486 l 1
 276 627 266 641 219 643 c 1
 224 662 l 1
 504 662 l 1
 499 643 l 1
 487 642 477 642 473 642 c 0
 441 640 424 631 418 613 c 0
 415 602 416 585 422 569 c 2
 502 347 l 1
 714 573 l 2
 728 588 736 600 739 610 c 0
 747 634 732 642 681 643 c 1
 686 662 l 1
 905 662 l 1
580 719 m 1
 540 719 l 1
 732 867 l 2
 756 885 766 890 781 890 c 0
 803 890 812 878 806 858 c 0
 801 842 788 829 763 816 c 2
 580 719 l 1
EndSplineSet
Ligature2: "'liga' Standard Ligatures in Latin lookup 1 subtable" Y acutecomb
EndChar

StartChar: Zacute
Encoding: 377 377 49
Width: 611
Flags: W
HStem: 0 38<157 573> 624 38<253 637>
LayerCount: 2
Fore
SplineSet
628 176 m 1
 651 176 l 1
 573 0 l 1
 9 0 l 1
 14 15 l 1
 637 624 l 1
 416 624 l 2
 350 624 300 610 269 581 c 0
 245 560 231 540 207 491 c 1
 181 491 l 1
 253 662 l 1
 779 662 l 1
 775 647 l 1
 157 38 l 1
 414 38 l 2
 471 38 519 52 551 77 c 0
 577 99 594 120 628 176 c 1
492 719 m 1
 452 719 l 1
 644 867 l 2
 668 885 678 890 693 890 c 0
 715 890 724 878 718 858 c 0
 713 842 700 829 675 816 c 2
 492 719 l 1
EndSplineSet
Ligature2: "'liga' Standard Ligatures in Latin lookup 1 subtable" Z acutecomb
EndChar

StartChar: Zcaron
Encoding: 381 381 50
Width: 611
Flags: W
HStem: 0 38<157 573> 624 38<253 637>
LayerCount: 2
Fore
SplineSet
628 176 m 1
 651 176 l 1
 573 0 l 1
 9 0 l 1
 14 15 l 1
 637 624 l 1
 416 624 l 2
 350 624 300 610 269 581 c 0
 245 560 231 540 207 491 c 1
 181 491 l 1
 253 662 l 1
 779 662 l 1
 775 647 l 1
 157 38 l 1
 414 38 l 2
 471 38 519 52 551 77 c 0
 577 99 594 120 628 176 c 1
733 886 m 1
 557 719 l 1
 495 719 l 1
 422 886 l 1
 456 886 l 1
 545 783 l 1
 699 886 l 1
 733 886 l 1
EndSplineSet
Ligature2: "'liga' Standard Ligatures in Latin lookup 1 subtable" Z uni030C
EndChar

StartChar: Zdotaccent
Encoding: 379 379 51
Width: 611
Flags: W
HStem: 0 38<157 573> 624 38<253 637> 735 99<530 560>
LayerCount: 2
Fore
SplineSet
628 176 m 1
 651 176 l 1
 573 0 l 1
 9 0 l 1
 14 15 l 1
 637 624 l 1
 416 624 l 2
 350 624 300 610 269 581 c 0
 245 560 231 540 207 491 c 1
 181 491 l 1
 253 662 l 1
 779 662 l 1
 775 647 l 1
 157 38 l 1
 414 38 l 2
 471 38 519 52 551 77 c 0
 577 99 594 120 628 176 c 1
560 834 m 0
 588 834 604 811 596 784 c 0
 587 757 558 735 530 735 c 0
 503 735 488 757 497 785 c 0
 505 811 535 834 560 834 c 0
EndSplineSet
Ligature2: "'liga' Standard Ligatures in Latin lookup 1 subtable" Z uni0307
EndChar

StartChar: Amacron
Encoding: 256 256 52
Width: 722
Flags: HW
HStem: 0 20<21 62.5824 169.177 213 457 519.698 673.811 706> 216 41<216 447> 654 20<347 367 367 367> 759 54<206 517>
LayerCount: 2
Fore
SplineSet
712 19 m 1
 706 0 l 1
 451 0 l 1
 457 19 l 1
 510 20 530 28 537 53 c 0
 541 67 542 93 539 120 c 2
 527 216 l 1
 265 216 l 1
 183 99 l 2
 174 86 167 72 163 60 c 0
 155 32 171 19 219 19 c 1
 213 0 l 1
 15 0 l 1
 21 19 l 1
 69 21 86 37 195 183 c 1
 553 674 l 1
 573 674 l 1
 648 106 l 1
 661 32 668 22 712 19 c 1
295 257 m 1
 526 257 l 1
 494 532 l 1
 295 257 l 1
455 813 m 1x10
 766 813 l 1
 749 759 l 1
 438 759 l 1
 455 813 l 1x10
EndSplineSet
Ligature2: "'liga' Standard Ligatures in Latin lookup 1 subtable" A uni0304
EndChar

StartChar: Tcommaaccent
Encoding: 354 354 53
Width: 611
Flags: W
HStem: -142 104<277 285> 0 21G<160 452> 620 42<225 444 225 625>
LayerCount: 2
Fore
SplineSet
444 620 m 1
 390 620 l 2
 278 620 249 601 191 492 c 1
 167 492 l 1
 225 662 l 1
 789 662 l 1
 743 492 l 1
 719 492 l 1
 730 602 714 620 600 620 c 2
 546 620 l 1
 389 109 l 2
 367 36 377 23 458 19 c 1
 452 0 l 1
 160 0 l 1
 166 19 l 1
 250 24 265 35 291 120 c 2
 444 620 l 1
177 -281 m 1
 174 -262 l 1
 239 -225 279 -188 288 -156 c 0
 291 -148 287 -142 279 -142 c 0
 278 -142 278 -142 270 -144 c 0
 264 -145 256 -146 250 -146 c 0
 214 -146 197 -127 207 -95 c 0
 217 -61 248 -38 283 -38 c 0
 328 -38 351 -77 336 -127 c 0
 318 -187 254 -248 177 -281 c 1
EndSplineSet
Ligature2: "'liga' Standard Ligatures in Latin lookup 1 subtable" T uni0327
EndChar

StartChar: Ydieresis
Encoding: 376 376 54
Width: 722
Flags: W
HStem: 0 19<500 526> 642 20<224 500 681 703> 735 99<502 532 701 731>
LayerCount: 2
Fore
SplineSet
905 662 m 1
 900 643 l 1
 847 639 815 617 727 529 c 1
 510 303 l 1
 450 109 l 2
 427 33 437 21 526 19 c 1
 520 0 l 1
 214 0 l 1
 220 19 l 1
 312 23 325 33 352 120 c 2
 405 294 l 1
 333 486 l 1
 276 627 266 641 219 643 c 1
 224 662 l 1
 504 662 l 1
 499 643 l 1
 487 642 477 642 473 642 c 0
 441 640 424 631 418 613 c 0
 415 602 416 585 422 569 c 2
 502 347 l 1
 714 573 l 2
 728 588 736 600 739 610 c 0
 747 634 732 642 681 643 c 1
 686 662 l 1
 905 662 l 1
532 834 m 0
 560 834 576 811 568 784 c 0
 559 757 530 735 502 735 c 0
 475 735 460 757 469 785 c 0
 477 811 507 834 532 834 c 0
731 834 m 0
 759 834 775 811 767 784 c 0
 758 757 729 735 701 735 c 0
 674 735 659 757 668 785 c 0
 676 811 706 834 731 834 c 0
EndSplineSet
Ligature2: "'liga' Standard Ligatures in Latin lookup 1 subtable" Y uni0308
EndChar

StartChar: Emacron
Encoding: 274 274 55
Width: 611
Flags: W
HStem: 0 37<283 552> 327 41<314 477> 443 20G<607 630> 519 143<214 705> 624 38<214 589> 759 54<398 693>
LayerCount: 2
Fore
SplineSet
649 169 m 1xec
 552 0 l 1
 12 0 l 1
 18 19 l 1
 92 24 111 39 132 109 c 2
 268 553 l 2
 289 623 281 637 209 643 c 1
 214 662 l 1xf4
 745 662 l 1xec
 705 519 l 1
 680 519 l 1xf4
 690 609 673 624 560 624 c 2
 425 624 l 2
 398 624 390 618 381 590 c 2
 314 368 l 1
 468 368 l 2
 515 368 545 376 563 393 c 0
 578 407 587 422 607 463 c 1
 630 463 l 1
 559 231 l 1
 536 231 l 1
 548 314 537 327 455 327 c 2
 301 327 l 1
 225 80 l 2
 220 63 219 52 223 49 c 1
 228 42 268 37 317 37 c 2
 344 37 l 2
 487 37 538 61 621 169 c 1
 649 169 l 1xec
399 813 m 1
 710 813 l 1
 693 759 l 1
 382 759 l 1
 399 813 l 1
EndSplineSet
Ligature2: "'liga' Standard Ligatures in Latin lookup 1 subtable" E uni0304
EndChar

StartChar: Imacron
Encoding: 298 298 56
Width: 333
Flags: W
HStem: 0 21G<18 315> 642 20G<220 517> 759 54<259 554>
LayerCount: 2
Fore
SplineSet
148 109 m 2
 284 553 l 2
 307 627 298 638 215 643 c 1
 220 662 l 1
 517 662 l 1
 512 643 l 1
 426 639 408 626 386 553 c 2
 250 109 l 2
 228 36 240 22 321 19 c 1
 315 0 l 1
 18 0 l 1
 24 19 l 1
 109 22 125 34 148 109 c 2
260 813 m 1
 571 813 l 1
 554 759 l 1
 243 759 l 1
 260 813 l 1
EndSplineSet
Ligature2: "'liga' Standard Ligatures in Latin lookup 1 subtable" I uni0304
EndChar

StartChar: Iogonek
Encoding: 302 302 57
Width: 333
Flags: W
HStem: -165 56<235 273> -20 20G<18 266> 642 20G<220 517>
LayerCount: 2
Fore
SplineSet
321 19 m 1
 315 0 l 1
 310 -1 306 -4 292 -13 c 1
 268 -32 252 -51 247 -70 c 0
 240 -92 251 -109 273 -109 c 0
 294 -109 316 -99 355 -73 c 1
 370 -89 l 1
 317 -142 276 -165 235 -165 c 0
 194 -165 172 -132 185 -89 c 0
 195 -56 218 -31 266 0 c 1
 18 0 l 1
 24 19 l 1
 109 22 125 34 148 109 c 2
 284 553 l 2
 307 627 298 638 215 643 c 1
 220 662 l 1
 517 662 l 1
 512 643 l 1
 426 639 408 626 386 553 c 2
 250 109 l 2
 228 36 240 22 321 19 c 1
EndSplineSet
Ligature2: "'liga' Standard Ligatures in Latin lookup 1 subtable" I uni0328
EndChar

StartChar: Kcommaaccent
Encoding: 310 310 58
Width: 722
Flags: W
HStem: -142 104<330 340> 0 20<424 723> 642 20<614 635>
LayerCount: 2
Fore
SplineSet
610 643 m 1
 615 662 l 1
 877 662 l 1
 872 643 l 1
 802 638 784 630 696 565 c 1
 448 377 l 1
 605 127 l 2
 666 30 677 20 729 19 c 1
 723 0 l 1
 418 0 l 1
 424 19 l 1
 436 20 447 20 452 20 c 0
 480 21 497 28 501 42 c 0
 508 66 476 137 423 212 c 2
 349 317 l 1
 316 296 l 1
 259 109 l 2
 237 36 245 24 322 19 c 1
 316 0 l 1
 34 0 l 1
 40 19 l 1
 120 24 135 37 161 120 c 2
 293 553 l 2
 315 624 307 637 231 643 c 1
 236 662 l 1
 520 662 l 1
 515 643 l 1
 432 637 417 626 395 553 c 2
 332 348 l 1
 559 509 l 2
 629 560 661 590 668 612 c 0
 674 632 665 640 635 642 c 0
 631 642 621 642 610 643 c 1
232 -281 m 1
 229 -262 l 1
 294 -225 334 -188 343 -156 c 0
 346 -148 342 -142 334 -142 c 0
 333 -142 333 -142 325 -144 c 0
 319 -145 311 -146 305 -146 c 0
 269 -146 252 -127 262 -95 c 0
 272 -61 303 -38 338 -38 c 0
 383 -38 406 -77 391 -127 c 0
 373 -187 309 -248 232 -281 c 1
EndSplineSet
Ligature2: "'liga' Standard Ligatures in Latin lookup 1 subtable" K uni0327
EndChar

StartChar: Lcommaaccent
Encoding: 315 315 59
Width: 611
Flags: W
HStem: -142 104<277 285> 0 39<266 550> 642 20G<214 496>
LayerCount: 2
Fore
SplineSet
626 174 m 1
 651 174 l 1
 550 0 l 1
 12 0 l 1
 18 19 l 1
 92 24 111 39 132 109 c 2
 268 553 l 2
 289 623 281 637 209 643 c 1
 214 662 l 1
 496 662 l 1
 491 643 l 1
 410 638 392 624 370 553 c 2
 225 80 l 2
 215 45 226 39 299 39 c 2
 366 39 l 2
 449 39 509 57 556 96 c 0
 577 113 598 136 626 174 c 1
177 -281 m 1
 174 -262 l 1
 239 -225 279 -188 288 -156 c 0
 291 -148 287 -142 279 -142 c 0
 278 -142 278 -142 270 -144 c 0
 264 -145 256 -146 250 -146 c 0
 214 -146 197 -127 207 -95 c 0
 217 -61 248 -38 283 -38 c 0
 328 -38 351 -77 336 -127 c 0
 318 -187 254 -248 177 -281 c 1
EndSplineSet
Ligature2: "'liga' Standard Ligatures in Latin lookup 1 subtable" L uni0327
EndChar

StartChar: Ncommaaccent
Encoding: 325 325 60
Width: 722
Flags: W
HStem: -142 104<331 340> -11 21G<592 609> 643 19<214 230.039>
LayerCount: 2
Fore
SplineSet
609 -11 m 1
 592 -11 l 1
 318 539 l 1
 198 147 l 2
 167 46 177 23 253 19 c 1
 247 0 l 1
 12 0 l 1
 18 19 l 1
 103 25 122 44 154 147 c 2
 289 588 l 1
 263 635 252 643 209 643 c 1
 214 662 l 1
 385 662 l 1
 622 178 l 1
 725 515 l 2
 744 577 746 613 731 627 c 0
 718 636 706 640 669 643 c 1
 674 662 l 1
 909 662 l 1
 904 643 l 1
 864 639 849 635 832 625 c 0
 809 612 788 575 769 515 c 2
 609 -11 l 1
232 -281 m 1
 229 -262 l 1
 294 -225 334 -188 343 -156 c 0
 346 -148 342 -142 334 -142 c 0
 333 -142 333 -142 325 -144 c 0
 319 -145 311 -146 305 -146 c 0
 269 -146 252 -127 262 -95 c 0
 272 -61 303 -38 338 -38 c 0
 383 -38 406 -77 391 -127 c 0
 373 -187 309 -248 232 -281 c 1
EndSplineSet
Ligature2: "'liga' Standard Ligatures in Latin lookup 1 subtable" N uni0327
EndChar

StartChar: Omacron
Encoding: 332 332 61
Width: 722
Flags: W
HStem: -14 36<349 373> 640 36<547 570> 759 54<454 749>
LayerCount: 2
Fore
SplineSet
568 676 m 0
 664 676 737 640 779 571 c 0
 815 511 818 426 788 327 c 0
 727 126 548 -14 351 -14 c 0
 263 -14 186 25 147 88 c 0
 111 146 106 237 135 331 c 0
 197 532 377 676 568 676 c 0
557 640 m 0
 502 640 446 618 394 575 c 0
 337 528 280 431 249 329 c 0
 215 218 217 117 255 71 c 0
 280 40 320 22 366 22 c 0
 419 22 469 40 515 75 c 0
 545 98 570 123 586 148 c 0
 622 200 656 269 674 328 c 0
 711 447 708 541 669 590 c 0
 643 622 603 640 557 640 c 0
455 813 m 1
 766 813 l 1
 749 759 l 1
 438 759 l 1
 455 813 l 1
EndSplineSet
Ligature2: "'liga' Standard Ligatures in Latin lookup 1 subtable" O uni0304
EndChar

StartChar: Rcommaaccent
Encoding: 342 342 62
Width: 667
Flags: W
HStem: -142 104<304 313> 0 21G<17 294 498 659> 625 37<219 466>
LayerCount: 2
Fore
SplineSet
665 19 m 1
 659 0 l 1
 498 0 l 1
 354 308 l 1
 298 306 l 1
 237 109 l 2
 215 37 224 24 300 19 c 1
 294 0 l 1
 17 0 l 1
 23 19 l 1
 100 25 113 37 139 120 c 2
 271 553 l 2
 293 624 286 635 214 643 c 1
 219 662 l 1
 495 662 l 2
 589 662 664 636 690 595 c 0
 707 566 709 529 696 486 c 0
 681 439 649 397 609 371 c 0
 568 344 535 332 464 319 c 1
 592 66 l 1
 611 32 628 22 665 19 c 1
384 589 m 2
 309 343 l 1
 405 345 442 351 496 377 c 0
 538 396 572 438 587 488 c 0
 616 582 571 625 446 625 c 0
 406 625 393 617 384 589 c 2
205 -281 m 1
 202 -262 l 1
 267 -225 307 -188 316 -156 c 0
 319 -148 315 -142 307 -142 c 0
 306 -142 306 -142 298 -144 c 0
 292 -145 284 -146 278 -146 c 0
 242 -146 225 -127 235 -95 c 0
 245 -61 276 -38 311 -38 c 0
 356 -38 379 -77 364 -127 c 0
 346 -187 282 -248 205 -281 c 1
EndSplineSet
Ligature2: "'liga' Standard Ligatures in Latin lookup 1 subtable" R uni0327
EndChar

StartChar: Gcommaaccent
Encoding: 290 290 63
Width: 722
Flags: W
HStem: -142 104<332 340> -14 40<384 417> 465 178<748 772> 636 40<563 608>
LayerCount: 2
Fore
SplineSet
817 354 m 1xd0
 812 336 l 1
 752 331 736 318 718 259 c 2
 656 56 l 1
 605 21 470 -14 384 -14 c 0
 274 -14 189 24 143 93 c 0
 105 152 101 227 131 325 c 0
 194 529 382 676 582 676 c 0xd0
 627 676 670 668 711 653 c 0
 727 646 742 643 752 643 c 0xe0
 773 643 795 657 807 676 c 1
 829 676 l 1xd0
 772 465 l 1
 749 465 l 1xe0
 743 526 735 553 714 581 c 0
 686 617 642 636 586 636 c 0
 518 636 448 609 389 560 c 0
 330 511 274 420 246 326 c 0
 189 140 254 26 417 26 c 0
 489 26 558 53 568 85 c 2
 618 247 l 2
 631 290 632 313 619 322 c 0
 610 330 599 333 557 336 c 1
 562 354 l 1
 817 354 l 1xd0
232 -281 m 1
 229 -262 l 1
 294 -225 334 -188 343 -156 c 0
 346 -148 342 -142 334 -142 c 0
 333 -142 333 -142 325 -144 c 0
 319 -145 311 -146 305 -146 c 0
 269 -146 252 -127 262 -95 c 0
 272 -61 303 -38 338 -38 c 0
 383 -38 406 -77 391 -127 c 0
 373 -187 309 -248 232 -281 c 1
EndSplineSet
Ligature2: "'liga' Standard Ligatures in Latin lookup 1 subtable" G uni0327
EndChar

StartChar: Umacron
Encoding: 362 362 64
Width: 722
Flags: W
HStem: -14 44<351 387> 642 20G<216 499 675 907> 759 54<474 769>
LayerCount: 2
Fore
SplineSet
768 515 m 2
 689 254 l 2
 665 177 642 131 605 89 c 0
 545 21 460 -14 351 -14 c 0
 181 -14 125 68 178 241 c 2
 273 553 l 2
 295 626 288 637 211 643 c 1
 216 662 l 1
 499 662 l 1
 494 643 l 1
 411 636 397 625 375 553 c 2
 277 233 l 2
 258 170 254 133 262 101 c 0
 275 54 316 30 387 30 c 0
 462 30 536 61 577 109 c 0
 602 139 621 177 642 245 c 2
 724 515 l 2
 755 615 746 637 670 643 c 1
 675 662 l 1
 907 662 l 1
 902 643 l 1
 817 633 800 617 768 515 c 2
475 813 m 1
 786 813 l 1
 769 759 l 1
 458 759 l 1
 475 813 l 1
EndSplineSet
Ligature2: "'liga' Standard Ligatures in Latin lookup 1 subtable" U uni0304
EndChar

StartChar: Uogonek
Encoding: 370 370 65
Width: 722
Flags: W
HStem: -165 56<421 459> -14 44<349 387> 642 20G<216 499 675 907>
LayerCount: 2
Fore
SplineSet
542 -73 m 1
 557 -89 l 1
 503 -142 463 -165 421 -165 c 0
 380 -165 358 -132 371 -89 c 0
 380 -58 405 -31 448 -3 c 1
 413 -10 383 -14 349 -14 c 0
 181 -14 125 69 178 241 c 2
 273 553 l 2
 295 626 288 637 211 643 c 1
 216 662 l 1
 499 662 l 1
 494 643 l 1
 411 636 397 625 375 553 c 2
 277 233 l 2
 258 170 254 133 262 101 c 0
 275 54 316 30 387 30 c 0
 462 30 536 61 577 109 c 0
 602 139 621 177 642 245 c 2
 724 515 l 2
 755 615 746 637 670 643 c 1
 675 662 l 1
 907 662 l 1
 902 643 l 1
 817 633 800 617 768 515 c 2
 689 254 l 2
 651 132 619 88 521 23 c 0
 468 -12 442 -40 432 -71 c 0
 426 -93 438 -109 459 -109 c 0
 481 -109 503 -99 542 -73 c 1
EndSplineSet
Ligature2: "'liga' Standard Ligatures in Latin lookup 1 subtable" U uni0328
EndChar

StartChar: adieresis
Encoding: 228 228 66
Width: 444
Flags: W
HStem: -10 58<139 203> 436 24<342 365> 523 99<281 311 480 510>
LayerCount: 2
Fore
SplineSet
462 66 m 1
 454 40 l 1
 408 2 383 -10 349 -10 c 0
 308 -10 296 11 307 63 c 1
 230 11 183 -10 139 -10 c 0
 78 -10 47 34 67 97 c 0
 77 130 101 164 129 184 c 0
 184 222 203 230 376 292 c 1
 395 353 l 2
 411 407 393 436 344 436 c 0
 304 436 266 414 257 387 c 0
 255 380 254 372 253 363 c 0
 252 356 251 351 250 347 c 0
 243 325 216 305 192 305 c 0
 169 305 155 325 162 348 c 0
 182 411 271 460 365 460 c 0
 424 460 461 441 472 405 c 0
 479 381 476 352 460 300 c 2
 400 105 l 2
 387 61 389 47 412 47 c 0
 427 47 441 52 462 66 c 1
325 123 m 2
 369 268 l 1
 234 224 182 188 164 129 c 2
 163 125 l 2
 150 82 168 48 203 48 c 0
 224 48 254 57 283 71 c 0
 307 83 315 92 325 123 c 2
311 622 m 0
 339 622 355 599 347 572 c 0
 339 545 309 523 281 523 c 0
 254 523 240 545 248 573 c 0
 256 599 286 622 311 622 c 0
510 622 m 0
 538 622 554 599 546 572 c 0
 538 545 508 523 480 523 c 0
 453 523 439 545 447 573 c 0
 455 599 485 622 510 622 c 0
EndSplineSet
Ligature2: "'liga' Standard Ligatures in Latin lookup 1 subtable" a uni0308
EndChar

StartChar: aacute
Encoding: 225 225 67
Width: 444
Flags: W
HStem: -10 58<139 203> 436 24<342 365> 658 20G<537.5 556>
LayerCount: 2
Fore
SplineSet
462 66 m 1
 454 40 l 1
 408 2 383 -10 349 -10 c 0
 308 -10 296 11 307 63 c 1
 230 11 183 -10 139 -10 c 0
 78 -10 47 34 67 97 c 0
 77 130 101 164 129 184 c 0
 184 222 203 230 376 292 c 1
 395 353 l 2
 411 407 393 436 344 436 c 0
 304 436 266 414 257 387 c 0
 255 380 254 372 253 363 c 0
 252 356 251 351 250 347 c 0
 243 325 216 305 192 305 c 0
 169 305 155 325 162 348 c 0
 182 411 271 460 365 460 c 0
 424 460 461 441 472 405 c 0
 479 381 476 352 460 300 c 2
 400 105 l 2
 387 61 389 47 412 47 c 0
 427 47 441 52 462 66 c 1
325 123 m 2
 369 268 l 1
 234 224 182 188 164 129 c 2
 163 125 l 2
 150 82 168 48 203 48 c 0
 224 48 254 57 283 71 c 0
 307 83 315 92 325 123 c 2
344 507 m 1
 304 507 l 1
 496 655 l 2
 520 673 530 678 545 678 c 0
 567 678 577 666 571 646 c 0
 566 630 553 617 528 604 c 2
 344 507 l 1
EndSplineSet
Ligature2: "'liga' Standard Ligatures in Latin lookup 1 subtable" a acutecomb
EndChar

StartChar: agrave
Encoding: 224 224 68
Width: 444
Flags: W
HStem: -10 58<139 203> 436 24<342 365> 658 20G<304.5 322.5>
LayerCount: 2
Fore
SplineSet
462 66 m 1
 454 40 l 1
 408 2 383 -10 349 -10 c 0
 308 -10 296 11 307 63 c 1
 230 11 183 -10 139 -10 c 0
 78 -10 47 34 67 97 c 0
 77 130 101 164 129 184 c 0
 184 222 203 230 376 292 c 1
 395 353 l 2
 411 407 393 436 344 436 c 0
 304 436 266 414 257 387 c 0
 255 380 254 372 253 363 c 0
 252 356 251 351 250 347 c 0
 243 325 216 305 192 305 c 0
 169 305 155 325 162 348 c 0
 182 411 271 460 365 460 c 0
 424 460 461 441 472 405 c 0
 479 381 476 352 460 300 c 2
 400 105 l 2
 387 61 389 47 412 47 c 0
 427 47 441 52 462 66 c 1
325 123 m 2
 369 268 l 1
 234 224 182 188 164 129 c 2
 163 125 l 2
 150 82 168 48 203 48 c 0
 224 48 254 57 283 71 c 0
 307 83 315 92 325 123 c 2
452 507 m 1
 412 507 l 1
 288 604 l 2
 273 616 267 631 272 647 c 0
 278 666 294 678 315 678 c 0
 330 678 338 673 350 655 c 2
 452 507 l 1
EndSplineSet
Ligature2: "'liga' Standard Ligatures in Latin lookup 1 subtable" a gravecomb
EndChar

StartChar: acircumflex
Encoding: 226 226 69
Width: 444
Flags: W
HStem: -10 58<139 203> 436 24<342 365> 654 20G<397 459>
LayerCount: 2
Fore
SplineSet
462 66 m 1
 454 40 l 1
 408 2 383 -10 349 -10 c 0
 308 -10 296 11 307 63 c 1
 230 11 183 -10 139 -10 c 0
 78 -10 47 34 67 97 c 0
 77 130 101 164 129 184 c 0
 184 222 203 230 376 292 c 1
 395 353 l 2
 411 407 393 436 344 436 c 0
 304 436 266 414 257 387 c 0
 255 380 254 372 253 363 c 0
 252 356 251 351 250 347 c 0
 243 325 216 305 192 305 c 0
 169 305 155 325 162 348 c 0
 182 411 271 460 365 460 c 0
 424 460 461 441 472 405 c 0
 479 381 476 352 460 300 c 2
 400 105 l 2
 387 61 389 47 412 47 c 0
 427 47 441 52 462 66 c 1
325 123 m 2
 369 268 l 1
 234 224 182 188 164 129 c 2
 163 125 l 2
 150 82 168 48 203 48 c 0
 224 48 254 57 283 71 c 0
 307 83 315 92 325 123 c 2
533 507 m 1
 499 507 l 1
 408 610 l 1
 256 507 l 1
 222 507 l 1
 397 674 l 1
 459 674 l 1
 533 507 l 1
EndSplineSet
Ligature2: "'liga' Standard Ligatures in Latin lookup 1 subtable" a uni0302
EndChar

StartChar: abreve
Encoding: 259 259 70
Width: 444
Flags: HW
HStem: -10 57<122.215 221.178 350.037 416.155> -10 58<121.849 221.178 350.077 416.155> 436 24<191 235.5> 507 60<197.5 252> 644 20<82 111 111 111 334 363 363 363>
VStem: 56 83 287 81<123 268 268 268 292 300>
LayerCount: 2
Fore
SplineSet
462 66 m 1xa6
 454 40 l 1
 408 2 383 -10 349 -10 c 0x86
 308 -10 296 11 307 63 c 1
 230 11 183 -10 139 -10 c 0x46
 78 -10 47 34 67 97 c 0
 77 130 101 164 129 184 c 0
 184 222 203 230 376 292 c 1
 395 353 l 2
 411 407 393 436 344 436 c 0
 304 436 266 414 257 387 c 0
 255 380 254 372 253 363 c 0
 252 356 251 351 250 347 c 0
 243 325 216 305 192 305 c 0
 169 305 155 325 162 348 c 0
 182 411 271 460 365 460 c 0
 424 460 461 441 472 405 c 0
 479 381 476 352 460 300 c 2
 400 105 l 2
 387 61 389 47 412 47 c 0
 427 47 441 52 462 66 c 1xa6
325 123 m 2x46
 369 268 l 1
 234 224 182 188 164 129 c 2
 163 125 l 2
 150 82 168 48 203 48 c 0
 224 48 254 57 283 71 c 0
 307 83 315 92 325 123 c 2x46
537 664 m 1x18
 566 664 l 1
 522 558 460 507 376 507 c 0
 329 507 295 526 281 561 c 0
 270 589 270 613 285 664 c 1
 314 664 l 1
 308 597 332 567 396 567 c 0
 454 567 486 588 537 664 c 1x18
EndSplineSet
Ligature2: "'liga' Standard Ligatures in Latin lookup 1 subtable" a uni0306
EndChar

StartChar: atilde
Encoding: 227 227 71
Width: 444
Flags: W
HStem: -10 58<139 203> 436 24<342 365> 532 56<445 485> 578 55<314 352>
LayerCount: 2
Fore
SplineSet
462 66 m 1xc0
 454 40 l 1
 408 2 383 -10 349 -10 c 0
 308 -10 296 11 307 63 c 1
 230 11 183 -10 139 -10 c 0
 78 -10 47 34 67 97 c 0
 77 130 101 164 129 184 c 0
 184 222 203 230 376 292 c 1
 395 353 l 2
 411 407 393 436 344 436 c 0
 304 436 266 414 257 387 c 0
 255 380 254 372 253 363 c 0
 252 356 251 351 250 347 c 0
 243 325 216 305 192 305 c 0
 169 305 155 325 162 348 c 0
 182 411 271 460 365 460 c 0
 424 460 461 441 472 405 c 0
 479 381 476 352 460 300 c 2
 400 105 l 2
 387 61 389 47 412 47 c 0
 427 47 441 52 462 66 c 1xc0
325 123 m 2
 369 268 l 1
 234 224 182 188 164 129 c 2
 163 125 l 2
 150 82 168 48 203 48 c 0
 224 48 254 57 283 71 c 0
 307 83 315 92 325 123 c 2
553 638 m 1
 582 638 l 1
 538 562 500 532 445 532 c 0xe0
 420 532 406 536 371 556 c 2
 351 567 l 2
 338 574 326 578 314 578 c 0xd0
 291 578 269 563 249 532 c 1
 220 532 l 1xe0
 255 597 302 633 352 633 c 0xd0
 374 633 397 627 416 615 c 2
 436 603 l 2
 453 594 470 588 485 588 c 0xe0
 508 588 524 600 553 638 c 1
EndSplineSet
Ligature2: "'liga' Standard Ligatures in Latin lookup 1 subtable" a tildecomb
EndChar

StartChar: aring
Encoding: 229 229 72
Width: 444
Flags: W
HStem: -10 58<139 203> 436 24<341 365> 522 34<379 395> 687 34<427 443>
LayerCount: 2
Fore
SplineSet
462 66 m 1
 454 40 l 1
 408 2 383 -10 349 -10 c 0
 308 -10 296 11 307 63 c 1
 230 11 183 -10 139 -10 c 0
 78 -10 47 34 67 97 c 0
 77 130 101 164 129 184 c 0
 184 222 203 230 376 292 c 1
 395 353 l 2
 411 407 393 436 344 436 c 0
 304 436 266 414 257 387 c 0
 255 380 254 372 253 363 c 0
 252 356 251 351 250 347 c 0
 243 325 216 305 192 305 c 0
 169 305 155 325 162 348 c 0
 182 411 271 460 365 460 c 0
 424 460 461 441 472 405 c 0
 479 381 476 352 460 300 c 2
 400 105 l 2
 387 61 389 47 412 47 c 0
 427 47 441 52 462 66 c 1
325 123 m 2
 369 268 l 1
 234 224 182 188 164 129 c 2
 163 125 l 2
 150 82 168 48 203 48 c 0
 224 48 254 57 283 71 c 0
 307 83 315 92 325 123 c 2
441 721 m 0
 496 721 528 676 511 621 c 0
 494 566 436 522 381 522 c 0
 325 522 295 566 312 622 c 0
 329 676 387 721 441 721 c 0
432 687 m 0
 396 687 357 658 346 622 c 0
 335 586 355 556 390 556 c 0
 427 556 466 585 477 621 c 0
 488 657 467 687 432 687 c 0
EndSplineSet
Ligature2: "'liga' Standard Ligatures in Latin lookup 1 subtable" a uni030A
EndChar

StartChar: aogonek
Encoding: 261 261 73
Width: 444
Flags: HW
HStem: -165 56<341.5 352.5> -10 58<121.849 221.178> 436 24<191 235.5>
VStem: 56 83 259 56<-79 -73> 287 81<123 268 268 268 292 300>
LayerCount: 2
Fore
SplineSet
462 66 m 1xf4
 454 40 l 1
 408 2 395 -4 352 -11 c 0
 326 -16 303 -38 295 -66 c 0
 287 -92 297 -109 320 -109 c 0
 341 -109 363 -99 402 -73 c 1
 417 -89 l 1
 364 -142 323 -165 282 -165 c 0
 241 -165 219 -132 232 -89 c 0xe8
 242 -57 266 -30 313 0 c 1
 302 15 300 30 307 63 c 1
 230 11 183 -10 139 -10 c 0
 78 -10 47 34 67 97 c 0
 77 130 101 164 129 184 c 0
 184 222 203 230 376 292 c 1
 395 353 l 2
 411 407 393 436 344 436 c 0
 304 436 266 414 257 387 c 0
 255 380 254 372 253 363 c 0
 252 356 251 351 250 347 c 0
 243 325 216 305 192 305 c 0
 169 305 155 325 162 348 c 0
 182 411 271 460 365 460 c 0
 424 460 461 441 472 405 c 0
 479 381 476 352 460 300 c 2
 400 105 l 2
 387 61 389 47 412 47 c 0
 427 47 441 52 462 66 c 1xf4
325 123 m 2xe4
 369 268 l 1
 234 224 182 188 164 129 c 2
 163 125 l 2
 150 82 168 48 203 48 c 0
 224 48 254 57 283 71 c 0
 307 83 315 92 325 123 c 2xe4
EndSplineSet
Ligature2: "'liga' Standard Ligatures in Latin lookup 1 subtable" a uni0328
EndChar

StartChar: cacute
Encoding: 263 263 74
Width: 444
Flags: HW
HStem: -10 72<211.5 237.5> 431 29<219.5 256> 658 20<350.5 369>
VStem: 25 77<199.5 252.5>
LayerCount: 2
Fore
SplineSet
446 156 m 1
 457 147 l 1
 409 88 382 61 347 37 c 0
 302 6 257 -10 212 -10 c 0
 101 -10 50 83 90 213 c 0
 114 292 163 360 227 404 c 0
 279 440 336 460 385 460 c 0
 469 460 524 413 507 357 c 0
 500 334 472 315 446 315 c 0
 425 315 413 333 413 361 c 2
 414 383 l 2
 415 420 406 431 370 431 c 0
 289 431 212 360 181 257 c 0
 145 142 185 62 276 62 c 0
 333 62 376 86 446 156 c 1
364 507 m 1x20
 324 507 l 1
 516 655 l 2
 540 673 550 678 565 678 c 0
 587 678 597 666 591 646 c 0
 586 630 573 617 548 604 c 2
 364 507 l 1x20
EndSplineSet
Ligature2: "'liga' Standard Ligatures in Latin lookup 1 subtable" c acutecomb
EndChar

StartChar: ccaron
Encoding: 269 269 75
Width: 444
Flags: W
HStem: -10 72<212 276> 431 29<365 385> 654 20G<293 327 570 604>
LayerCount: 2
Fore
SplineSet
446 156 m 1
 457 147 l 1
 409 88 382 61 347 37 c 0
 302 6 257 -10 212 -10 c 0
 101 -10 50 83 90 213 c 0
 114 292 163 360 227 404 c 0
 279 440 336 460 385 460 c 0
 469 460 524 413 507 357 c 0
 500 334 472 315 446 315 c 0
 425 315 413 333 413 361 c 2
 414 383 l 2
 415 420 406 431 370 431 c 0
 289 431 212 360 181 257 c 0
 145 142 185 62 276 62 c 0
 333 62 376 86 446 156 c 1
604 674 m 1
 428 507 l 1
 366 507 l 1
 293 674 l 1
 327 674 l 1
 417 571 l 1
 570 674 l 1
 604 674 l 1
EndSplineSet
Ligature2: "'liga' Standard Ligatures in Latin lookup 1 subtable" c uni030C
EndChar

StartChar: ccedilla
Encoding: 231 231 76
Width: 444
Flags: W
HStem: -215 35<122 144> -100 38<158 212> 431 29<366 385>
LayerCount: 2
Fore
SplineSet
223 -10 m 1
 185 -65 l 1
 196 -63 202 -62 212 -62 c 0
 266 -62 290 -88 277 -131 c 0
 261 -183 203 -215 126 -215 c 0
 94 -215 72 -211 47 -199 c 1
 71 -168 l 1
 95 -177 111 -180 132 -180 c 0
 166 -180 192 -163 200 -136 c 0
 208 -110 196 -100 158 -100 c 0
 147 -100 138 -101 129 -104 c 1
 124 -99 l 1
 190 -8 l 1
 93 5 53 93 90 212 c 0
 114 292 163 360 227 404 c 0
 279 440 336 460 385 460 c 0
 469 460 524 413 507 357 c 0
 500 334 472 315 447 315 c 0
 425 315 413 332 413 361 c 2
 414 383 l 2
 415 420 406 431 370 431 c 0
 289 431 212 360 181 257 c 0
 145 142 185 62 276 62 c 0
 333 62 376 86 446 156 c 1
 457 147 l 1
 373 42 306 -3 223 -10 c 1
EndSplineSet
Ligature2: "'liga' Standard Ligatures in Latin lookup 1 subtable" c uni0327
EndChar

StartChar: dcaron
Encoding: 271 271 77
Width: 600
Flags: W
HStem: -10 52<209 264> 432 28<357 381> 572 104<719 726>
LayerCount: 2
Fore
SplineSet
341 -10 m 1
 338 -7 l 1
 357 57 l 1
 309 10 265 -10 209 -10 c 0
 99 -10 51 77 90 205 c 0
 133 347 261 460 376 460 c 0
 416 460 439 449 467 417 c 1
 515 573 l 2
 528 614 522 624 485 624 c 0
 477 624 471 624 462 623 c 1
 467 639 l 1
 537 656 575 666 628 683 c 1
 632 681 l 1
 459 114 l 2
 445 68 449 57 485 57 c 0
 488 57 490 57 509 58 c 1
 504 42 l 1
 341 -10 l 1
371 102 m 2
 442 332 l 2
 458 385 423 432 370 432 c 0
 294 432 222 358 188 245 c 0
 150 122 181 42 264 42 c 0
 293 42 321 52 345 72 c 0
 358 83 369 95 371 102 c 2
619 433 m 1
 616 452 l 1
 682 489 721 525 731 558 c 0
 733 566 729 572 721 572 c 0
 720 572 720 572 712 570 c 0
 706 569 699 568 693 568 c 0
 657 568 639 587 649 619 c 0
 660 653 691 676 726 676 c 0
 771 676 794 637 778 587 c 0
 760 527 696 466 619 433 c 1
EndSplineSet
Ligature2: "'liga' Standard Ligatures in Latin lookup 1 subtable" d uni030C
EndChar

StartChar: edieresis
Encoding: 235 235 78
Width: 444
Flags: W
HStem: -10 69<209 271> 277 32<193 490> 424 36<335 375> 523 99<281 311 480 510>
LayerCount: 2
Fore
SplineSet
458 164 m 1
 472 157 l 1
 397 49 304 -10 209 -10 c 0
 94 -10 48 76 90 214 c 0
 115 296 164 367 224 408 c 0
 272 442 325 460 375 460 c 0
 427 460 466 439 485 403 c 0
 500 371 502 342 490 277 c 1
 182 277 l 1
 165 216 162 183 168 145 c 0
 180 88 214 59 271 59 c 0
 335 59 387 88 458 164 c 1
193 309 m 1
 397 309 l 1
 411 396 396 424 335 424 c 0
 274 424 228 387 193 309 c 1
311 622 m 0
 339 622 355 599 347 572 c 0
 339 545 309 523 281 523 c 0
 254 523 240 545 248 573 c 0
 256 599 286 622 311 622 c 0
510 622 m 0
 538 622 554 599 546 572 c 0
 538 545 508 523 480 523 c 0
 453 523 439 545 447 573 c 0
 455 599 485 622 510 622 c 0
EndSplineSet
Ligature2: "'liga' Standard Ligatures in Latin lookup 1 subtable" e uni0308
EndChar

StartChar: eacute
Encoding: 233 233 79
Width: 444
Flags: W
HStem: -10 69<209 271> 277 32<193 490> 424 36<335 375> 658 20G<537.5 556>
LayerCount: 2
Fore
SplineSet
458 164 m 1
 472 157 l 1
 397 49 304 -10 209 -10 c 0
 94 -10 48 76 90 214 c 0
 115 296 164 367 224 408 c 0
 272 442 325 460 375 460 c 0
 427 460 466 439 485 403 c 0
 500 371 502 342 490 277 c 1
 182 277 l 1
 165 216 162 183 168 145 c 0
 180 88 214 59 271 59 c 0
 335 59 387 88 458 164 c 1
193 309 m 1
 397 309 l 1
 411 396 396 424 335 424 c 0
 274 424 228 387 193 309 c 1
344 507 m 1
 304 507 l 1
 496 655 l 2
 520 673 530 678 545 678 c 0
 567 678 577 666 571 646 c 0
 566 630 553 617 528 604 c 2
 344 507 l 1
EndSplineSet
Ligature2: "'liga' Standard Ligatures in Latin lookup 1 subtable" e acutecomb
EndChar

StartChar: egrave
Encoding: 232 232 80
Width: 444
Flags: W
HStem: -10 69<209 271> 277 32<193 490> 424 36<335 375> 658 20G<304.5 322.5>
LayerCount: 2
Fore
SplineSet
458 164 m 1
 472 157 l 1
 397 49 304 -10 209 -10 c 0
 94 -10 48 76 90 214 c 0
 115 296 164 367 224 408 c 0
 272 442 325 460 375 460 c 0
 427 460 466 439 485 403 c 0
 500 371 502 342 490 277 c 1
 182 277 l 1
 165 216 162 183 168 145 c 0
 180 88 214 59 271 59 c 0
 335 59 387 88 458 164 c 1
193 309 m 1
 397 309 l 1
 411 396 396 424 335 424 c 0
 274 424 228 387 193 309 c 1
452 507 m 1
 412 507 l 1
 288 604 l 2
 273 616 267 631 272 647 c 0
 278 666 294 678 315 678 c 0
 330 678 338 673 350 655 c 2
 452 507 l 1
EndSplineSet
Ligature2: "'liga' Standard Ligatures in Latin lookup 1 subtable" e gravecomb
EndChar

StartChar: ecircumflex
Encoding: 234 234 81
Width: 444
Flags: W
HStem: -10 69<209 271> 277 32<193 490> 424 36<335 375> 654 20G<397 459>
LayerCount: 2
Fore
SplineSet
458 164 m 1
 472 157 l 1
 397 49 304 -10 209 -10 c 0
 94 -10 48 76 90 214 c 0
 115 296 164 367 224 408 c 0
 272 442 325 460 375 460 c 0
 427 460 466 439 485 403 c 0
 500 371 502 342 490 277 c 1
 182 277 l 1
 165 216 162 183 168 145 c 0
 180 88 214 59 271 59 c 0
 335 59 387 88 458 164 c 1
193 309 m 1
 397 309 l 1
 411 396 396 424 335 424 c 0
 274 424 228 387 193 309 c 1
533 507 m 1
 499 507 l 1
 408 610 l 1
 256 507 l 1
 222 507 l 1
 397 674 l 1
 459 674 l 1
 533 507 l 1
EndSplineSet
Ligature2: "'liga' Standard Ligatures in Latin lookup 1 subtable" e uni0302
EndChar

StartChar: ecaron
Encoding: 283 283 82
Width: 444
Flags: HW
HStem: -10 69<224.5 259.5> 277 32<99 303> 424 36<209 235.5> 654 20<67 101 101 101 344 378 378 378>
LayerCount: 2
Fore
SplineSet
458 164 m 1
 472 157 l 1
 397 49 304 -10 209 -10 c 0
 94 -10 48 76 90 214 c 0
 115 296 164 367 224 408 c 0
 272 442 325 460 375 460 c 0
 427 460 466 439 485 403 c 0
 500 371 502 342 490 277 c 1
 182 277 l 1
 165 216 162 183 168 145 c 0
 180 88 214 59 271 59 c 0
 335 59 387 88 458 164 c 1
193 309 m 1
 397 309 l 1
 411 396 396 424 335 424 c 0
 274 424 228 387 193 309 c 1
584 674 m 1x10
 408 507 l 1
 346 507 l 1
 273 674 l 1
 307 674 l 1
 397 571 l 1
 550 674 l 1
 584 674 l 1x10
EndSplineSet
Ligature2: "'liga' Standard Ligatures in Latin lookup 1 subtable" e uni030C
EndChar

StartChar: edotaccent
Encoding: 279 279 83
Width: 444
Flags: HMW
HStem: -10 69<224.5 259.5> 277 32<99 303> 424 36<209 235.5>
LayerCount: 2
Fore
SplineSet
458 164 m 1
 472 157 l 1
 397 49 304 -10 209 -10 c 0
 94 -10 48 76 90 214 c 0
 115 296 164 367 224 408 c 0
 272 442 325 460 375 460 c 0
 427 460 466 439 485 403 c 0
 500 371 502 342 490 277 c 1
 182 277 l 1
 165 216 162 183 168 145 c 0
 180 88 214 59 271 59 c 0
 335 59 387 88 458 164 c 1
193 309 m 1
 397 309 l 1
 411 396 396 424 335 424 c 0
 274 424 228 387 193 309 c 1
411 622 m 0
 439 622 455 599 447 572 c 0
 439 545 409 523 381 523 c 0
 354 523 340 545 348 573 c 0
 356 599 386 622 411 622 c 0
EndSplineSet
Ligature2: "'liga' Standard Ligatures in Latin lookup 1 subtable" e uni0307
EndChar

StartChar: eogonek
Encoding: 281 281 84
Width: 444
Flags: HMW
HStem: -165 56<302 313> -10 69<203.619 296.921> 277 32<99 303> 424 36<209 235.5>
VStem: 219 56<-81.5 -73>
LayerCount: 2
Fore
SplineSet
458 164 m 1
 472 157 l 1
 443 113 411 81 337 22 c 0
 281 -22 262 -44 254 -70 c 0
 247 -93 258 -109 280 -109 c 0
 302 -109 324 -99 363 -73 c 1
 378 -89 l 1
 324 -142 284 -165 242 -165 c 0
 201 -165 179 -132 192 -89 c 0
 202 -57 225 -31 272 -1 c 1
 247 -8 231 -10 210 -10 c 0
 94 -10 48 76 90 214 c 0
 115 296 164 367 224 408 c 0
 272 442 325 460 375 460 c 0
 427 460 466 439 485 403 c 0
 500 371 502 342 490 277 c 1
 182 277 l 1
 165 216 162 183 168 145 c 0
 180 88 214 59 271 59 c 0
 335 59 387 88 458 164 c 1
193 309 m 1
 397 309 l 1
 411 396 396 424 335 424 c 0
 274 424 228 387 193 309 c 1
EndSplineSet
Ligature2: "'liga' Standard Ligatures in Latin lookup 1 subtable" e uni0328
EndChar

StartChar: gbreve
Encoding: 287 287 85
Width: 500
Flags: W
HStem: -218 57<134 195> -35 20G<279.5 349.5> 149 25<294 313> 388 39<506 589> 432 28<357 377> 507 60<404 424> 644 20G<313 342 565 594>
LayerCount: 2
Fore
SplineSet
589 388 m 1
 506 388 l 1
 510 356 508 333 499 304 c 0
 484 254 458 219 416 191 c 0
 377 164 333 149 296 149 c 0
 290 149 277 150 258 152 c 0
 255 152 249 153 240 154 c 1
 211 146 167 111 161 91 c 0
 156 75 178 66 231 64 c 2
 358 58 l 2
 431 55 465 13 446 -49 c 0
 434 -87 408 -119 360 -150 c 0
 295 -192 209 -218 134 -218 c 0
 39 -218 -25 -174 -9 -121 c 0
 2 -84 39 -51 126 1 c 1
 91 21 83 33 90 54 c 0
 96 74 115 94 157 123 c 0
 164 128 187 145 212 163 c 1
 156 196 141 234 160 297 c 0
 188 388 284 460 377 460 c 0
 403 460 428 455 452 445 c 2
 472 437 l 2
 489 430 504 427 524 427 c 2
 601 427 l 1
 589 388 l 1
146 -2 m 1
 89 -52 78 -65 71 -88 c 0
 58 -132 107 -161 195 -161 c 0
 308 -161 396 -122 413 -64 c 0
 424 -28 395 -15 304 -15 c 0
 255 -15 177 -9 146 -2 c 1
255 338 m 2
 254 335 l 2
 225 239 247 174 307 174 c 0
 353 174 393 209 410 265 c 0
 422 304 424 350 417 385 c 0
 410 415 389 432 358 432 c 0
 312 432 273 397 255 338 c 2
565 664 m 1
 594 664 l 1
 550 558 488 507 404 507 c 0
 357 507 323 526 309 561 c 0
 298 589 298 613 313 664 c 1
 342 664 l 1
 336 597 360 567 424 567 c 0
 482 567 514 588 565 664 c 1
EndSplineSet
Ligature2: "'liga' Standard Ligatures in Latin lookup 1 subtable" g uni0306
EndChar

StartChar: idieresis
Encoding: 239 239 86
Width: 278
Flags: W
HStem: 0 21G<16 253> 523 99<219 249 378 408>
LayerCount: 2
Fore
SplineSet
249 622 m 0
 277 622 293 599 285 572 c 0
 277 545 247 523 219 523 c 0
 192 523 178 545 186 573 c 0
 194 599 224 622 249 622 c 0
408 622 m 0
 436 622 452 599 444 572 c 0
 436 545 406 523 378 523 c 0
 351 523 337 545 345 573 c 0
 353 599 383 622 408 622 c 0
316 460 m 1
 319 457 l 1
 210 102 l 2
 188 30 193 20 258 15 c 1
 253 0 l 1
 16 0 l 1
 21 15 l 1
 91 19 104 30 126 102 c 2
 197 334 l 2
 211 378 206 394 182 394 c 0
 173 394 160 393 148 391 c 2
 139 390 l 1
 144 405 l 1
 316 460 l 1
EndSplineSet
Ligature2: "'liga' Standard Ligatures in Latin lookup 1 subtable" i uni0308
EndChar

StartChar: iacute
Encoding: 237 237 87
Width: 278
Flags: W
HStem: 0 21G<16 253> 658 20G<454.5 473>
LayerCount: 2
Fore
SplineSet
316 460 m 1
 319 457 l 1
 210 102 l 2
 188 30 193 20 258 15 c 1
 253 0 l 1
 16 0 l 1
 21 15 l 1
 91 19 104 30 126 102 c 2
 197 334 l 2
 211 378 206 394 182 394 c 0
 173 394 160 393 148 391 c 2
 139 390 l 1
 144 405 l 1
 316 460 l 1
261 507 m 1
 221 507 l 1
 413 655 l 2
 437 673 447 678 462 678 c 0
 484 678 494 666 488 646 c 0
 483 630 470 617 445 604 c 2
 261 507 l 1
EndSplineSet
Ligature2: "'liga' Standard Ligatures in Latin lookup 1 subtable" i acutecomb
EndChar

StartChar: igrave
Encoding: 236 236 88
Width: 278
Flags: W
HStem: 0 21G<16 253> 658 20G<222.5 240.5>
LayerCount: 2
Fore
SplineSet
316 460 m 1
 319 457 l 1
 210 102 l 2
 188 30 193 20 258 15 c 1
 253 0 l 1
 16 0 l 1
 21 15 l 1
 91 19 104 30 126 102 c 2
 197 334 l 2
 211 378 206 394 182 394 c 0
 173 394 160 393 148 391 c 2
 139 390 l 1
 144 405 l 1
 316 460 l 1
370 507 m 1
 330 507 l 1
 206 604 l 2
 191 616 185 631 190 647 c 0
 196 666 212 678 233 678 c 0
 248 678 256 673 268 655 c 2
 370 507 l 1
EndSplineSet
Ligature2: "'liga' Standard Ligatures in Latin lookup 1 subtable" i gravecomb
EndChar

StartChar: icircumflex
Encoding: 238 238 89
Width: 278
Flags: W
HStem: 0 21G<16 253> 654 20G<314 376>
LayerCount: 2
Fore
SplineSet
316 460 m 1
 319 457 l 1
 210 102 l 2
 188 30 193 20 258 15 c 1
 253 0 l 1
 16 0 l 1
 21 15 l 1
 91 19 104 30 126 102 c 2
 197 334 l 2
 211 378 206 394 182 394 c 0
 173 394 160 393 148 391 c 2
 139 390 l 1
 144 405 l 1
 316 460 l 1
450 507 m 1
 416 507 l 1
 325 610 l 1
 173 507 l 1
 139 507 l 1
 314 674 l 1
 376 674 l 1
 450 507 l 1
EndSplineSet
Ligature2: "'liga' Standard Ligatures in Latin lookup 1 subtable" i uni0302
EndChar

StartChar: lacute
Encoding: 314 314 90
Width: 278
Flags: W
HStem: 0 21G<21 257>
LayerCount: 2
Fore
SplineSet
209 623 m 1
 214 639 l 1
 289 656 330 666 387 683 c 1
 390 681 l 1
 208 84 l 2
 191 29 200 19 262 15 c 1
 257 0 l 1
 21 0 l 1
 26 15 l 1
 90 20 108 33 125 87 c 2
 270 564 l 2
 285 611 279 625 247 625 c 0
 239 625 227 624 215 623 c 2
 209 623 l 1
326 719 m 1
 286 719 l 1
 478 867 l 2
 502 885 512 890 527 890 c 0
 549 890 558 878 552 858 c 0
 547 842 534 829 509 816 c 2
 326 719 l 1
EndSplineSet
Ligature2: "'liga' Standard Ligatures in Latin lookup 1 subtable" l acutecomb
EndChar

StartChar: lcaron
Encoding: 318 318 91
Width: 348
Flags: W
HStem: 0 21G<21 257> 572 104<468 475>
LayerCount: 2
Fore
SplineSet
209 623 m 1
 214 639 l 1
 289 656 330 666 387 683 c 1
 390 681 l 1
 208 84 l 2
 191 29 200 19 262 15 c 1
 257 0 l 1
 21 0 l 1
 26 15 l 1
 90 20 108 33 125 87 c 2
 270 564 l 2
 285 611 279 625 247 625 c 0
 239 625 227 624 215 623 c 2
 209 623 l 1
368 433 m 1
 365 452 l 1
 431 489 470 525 480 558 c 0
 482 566 478 572 470 572 c 0
 469 572 469 572 461 570 c 0
 455 569 448 568 442 568 c 0
 406 568 388 587 398 619 c 0
 409 653 440 676 475 676 c 0
 520 676 543 637 527 587 c 0
 509 527 445 466 368 433 c 1
EndSplineSet
Ligature2: "'liga' Standard Ligatures in Latin lookup 1 subtable" l uni030C
EndChar

StartChar: nacute
Encoding: 324 324 92
Width: 500
Flags: W
HStem: 0 21G<18 230 277 485> 405 55<391 447> 658 20G<565.5 584>
LayerCount: 2
Fore
SplineSet
138 398 m 1
 143 415 l 1
 203 431 240 442 295 460 c 1
 301 458 l 1
 277 379 l 1
 364 443 401 460 447 460 c 0
 521 460 548 404 519 310 c 2
 449 81 l 2
 434 32 442 20 490 15 c 1
 485 0 l 1
 277 0 l 1
 282 15 l 1
 333 19 351 36 370 99 c 2
 434 308 l 2
 454 374 440 405 391 405 c 0
 358 405 332 393 270 348 c 1
 184 67 l 2
 173 31 185 19 235 15 c 1
 230 0 l 1
 18 0 l 1
 23 15 l 1
 75 19 90 33 108 90 c 2
 183 338 l 2
 198 387 194 402 166 402 c 0
 155 402 145 401 138 398 c 1
372 507 m 1
 332 507 l 1
 524 655 l 2
 548 673 558 678 573 678 c 0
 595 678 605 666 599 646 c 0
 594 630 581 617 556 604 c 2
 372 507 l 1
EndSplineSet
Ligature2: "'liga' Standard Ligatures in Latin lookup 1 subtable" n acutecomb
EndChar

StartChar: ncaron
Encoding: 328 328 93
Width: 500
Flags: W
HStem: 0 21G<18 230 277 485> 405 55<391 447> 654 20G<301 335 578 612>
LayerCount: 2
Fore
SplineSet
138 398 m 1
 143 415 l 1
 203 431 240 442 295 460 c 1
 301 458 l 1
 277 379 l 1
 364 443 401 460 447 460 c 0
 521 460 548 404 519 310 c 2
 449 81 l 2
 434 32 442 20 490 15 c 1
 485 0 l 1
 277 0 l 1
 282 15 l 1
 333 19 351 36 370 99 c 2
 434 308 l 2
 454 374 440 405 391 405 c 0
 358 405 332 393 270 348 c 1
 184 67 l 2
 173 31 185 19 235 15 c 1
 230 0 l 1
 18 0 l 1
 23 15 l 1
 75 19 90 33 108 90 c 2
 183 338 l 2
 198 387 194 402 166 402 c 0
 155 402 145 401 138 398 c 1
612 674 m 1
 436 507 l 1
 374 507 l 1
 301 674 l 1
 335 674 l 1
 425 571 l 1
 578 674 l 1
 612 674 l 1
EndSplineSet
Ligature2: "'liga' Standard Ligatures in Latin lookup 1 subtable" n uni030C
EndChar

StartChar: ntilde
Encoding: 241 241 94
Width: 500
Flags: W
HStem: 0 21G<18 230 277 485> 405 55<391 447> 532 56<473 513> 578 55<342 380>
LayerCount: 2
Fore
SplineSet
138 398 m 1xc0
 143 415 l 1
 203 431 240 442 295 460 c 1
 301 458 l 1
 277 379 l 1
 364 443 401 460 447 460 c 0
 521 460 548 404 519 310 c 2
 449 81 l 2
 434 32 442 20 490 15 c 1
 485 0 l 1
 277 0 l 1
 282 15 l 1
 333 19 351 36 370 99 c 2
 434 308 l 2
 454 374 440 405 391 405 c 0
 358 405 332 393 270 348 c 1
 184 67 l 2
 173 31 185 19 235 15 c 1
 230 0 l 1
 18 0 l 1
 23 15 l 1
 75 19 90 33 108 90 c 2
 183 338 l 2
 198 387 194 402 166 402 c 0
 155 402 145 401 138 398 c 1xc0
581 638 m 1
 610 638 l 1
 566 562 528 532 473 532 c 0xe0
 448 532 434 536 399 556 c 2
 379 567 l 2
 366 574 354 578 342 578 c 0xd0
 319 578 297 563 277 532 c 1
 248 532 l 1xe0
 283 597 330 633 380 633 c 0xd0
 402 633 425 627 444 615 c 2
 464 603 l 2
 481 594 498 588 513 588 c 0xe0
 536 588 552 600 581 638 c 1
EndSplineSet
Ligature2: "'liga' Standard Ligatures in Latin lookup 1 subtable" n tildecomb
EndChar

StartChar: odieresis
Encoding: 246 246 95
Width: 500
Flags: W
HStem: -10 28<245 266> 432 28<367 391> 523 99<309 339 508 538>
LayerCount: 2
Fore
SplineSet
391 460 m 0
 519 460 582 365 542 234 c 0
 499 96 371 -10 245 -10 c 0
 119 -10 57 91 98 226 c 0
 140 364 261 460 391 460 c 0
369 432 m 0
 298 432 232 370 203 275 c 0
 181 204 176 134 188 82 c 0
 197 42 227 18 266 18 c 0
 341 18 406 86 441 199 c 0
 483 336 453 432 369 432 c 0
339 622 m 0
 367 622 383 599 375 572 c 0
 367 545 337 523 309 523 c 0
 282 523 268 545 276 573 c 0
 284 599 314 622 339 622 c 0
538 622 m 0
 566 622 582 599 574 572 c 0
 566 545 536 523 508 523 c 0
 481 523 467 545 475 573 c 0
 483 599 513 622 538 622 c 0
EndSplineSet
Ligature2: "'liga' Standard Ligatures in Latin lookup 1 subtable" o uni0308
EndChar

StartChar: oacute
Encoding: 243 243 96
Width: 500
Flags: W
HStem: -10 28<245 266> 432 28<367 391> 658 20G<565.5 584>
LayerCount: 2
Fore
SplineSet
391 460 m 0
 519 460 582 365 542 234 c 0
 499 96 371 -10 245 -10 c 0
 119 -10 57 91 98 226 c 0
 140 364 261 460 391 460 c 0
369 432 m 0
 298 432 232 370 203 275 c 0
 181 204 176 134 188 82 c 0
 197 42 227 18 266 18 c 0
 341 18 406 86 441 199 c 0
 483 336 453 432 369 432 c 0
372 507 m 1
 332 507 l 1
 524 655 l 2
 548 673 558 678 573 678 c 0
 595 678 605 666 599 646 c 0
 594 630 581 617 556 604 c 2
 372 507 l 1
EndSplineSet
Ligature2: "'liga' Standard Ligatures in Latin lookup 1 subtable" o acutecomb
EndChar

StartChar: ograve
Encoding: 242 242 97
Width: 500
Flags: W
HStem: -10 28<245 266> 432 28<367 391> 658 20G<332.5 350.5>
LayerCount: 2
Fore
SplineSet
391 460 m 0
 519 460 582 365 542 234 c 0
 499 96 371 -10 245 -10 c 0
 119 -10 57 91 98 226 c 0
 140 364 261 460 391 460 c 0
369 432 m 0
 298 432 232 370 203 275 c 0
 181 204 176 134 188 82 c 0
 197 42 227 18 266 18 c 0
 341 18 406 86 441 199 c 0
 483 336 453 432 369 432 c 0
480 507 m 1
 440 507 l 1
 316 604 l 2
 301 616 295 631 300 647 c 0
 306 666 322 678 343 678 c 0
 358 678 366 673 378 655 c 2
 480 507 l 1
EndSplineSet
Ligature2: "'liga' Standard Ligatures in Latin lookup 1 subtable" o gravecomb
EndChar

StartChar: ocircumflex
Encoding: 244 244 98
Width: 500
Flags: W
HStem: -10 28<245 266> 432 28<367 391> 654 20G<425 487>
LayerCount: 2
Fore
SplineSet
391 460 m 0
 519 460 582 365 542 234 c 0
 499 96 371 -10 245 -10 c 0
 119 -10 57 91 98 226 c 0
 140 364 261 460 391 460 c 0
369 432 m 0
 298 432 232 370 203 275 c 0
 181 204 176 134 188 82 c 0
 197 42 227 18 266 18 c 0
 341 18 406 86 441 199 c 0
 483 336 453 432 369 432 c 0
561 507 m 1
 527 507 l 1
 436 610 l 1
 284 507 l 1
 250 507 l 1
 425 674 l 1
 487 674 l 1
 561 507 l 1
EndSplineSet
Ligature2: "'liga' Standard Ligatures in Latin lookup 1 subtable" o uni0302
EndChar

StartChar: otilde
Encoding: 245 245 99
Width: 500
Flags: W
HStem: -10 28<245 266> 432 28<367 391> 532 56<473 513> 578 55<342 380>
LayerCount: 2
Fore
SplineSet
391 460 m 0xc0
 519 460 582 365 542 234 c 0
 499 96 371 -10 245 -10 c 0
 119 -10 57 91 98 226 c 0
 140 364 261 460 391 460 c 0xc0
369 432 m 0
 298 432 232 370 203 275 c 0
 181 204 176 134 188 82 c 0
 197 42 227 18 266 18 c 0
 341 18 406 86 441 199 c 0
 483 336 453 432 369 432 c 0
581 638 m 1
 610 638 l 1
 566 562 528 532 473 532 c 0xe0
 448 532 434 536 399 556 c 2
 379 567 l 2
 366 574 354 578 342 578 c 0xd0
 319 578 297 563 277 532 c 1
 248 532 l 1xe0
 283 597 330 633 380 633 c 0xd0
 402 633 425 627 444 615 c 2
 464 603 l 2
 481 594 498 588 513 588 c 0xe0
 536 588 552 600 581 638 c 1
EndSplineSet
Ligature2: "'liga' Standard Ligatures in Latin lookup 1 subtable" o tildecomb
EndChar

StartChar: ohungarumlaut
Encoding: 337 337 100
Width: 500
Flags: W
HStem: -10 28<245 266> 432 28<367 391> 658 20G<469.5 488 625.5 644>
LayerCount: 2
Fore
SplineSet
391 460 m 0
 519 460 582 365 542 234 c 0
 499 96 371 -10 245 -10 c 0
 119 -10 57 91 98 226 c 0
 140 364 261 460 391 460 c 0
369 432 m 0
 298 432 232 370 203 275 c 0
 181 204 176 134 188 82 c 0
 197 42 227 18 266 18 c 0
 341 18 406 86 441 199 c 0
 483 336 453 432 369 432 c 0
432 507 m 1
 392 507 l 1
 584 655 l 2
 608 673 618 678 633 678 c 0
 655 678 665 666 659 646 c 0
 654 630 641 617 616 604 c 2
 432 507 l 1
276 507 m 1
 236 507 l 1
 428 655 l 2
 452 673 462 678 477 678 c 0
 499 678 509 666 503 646 c 0
 498 630 485 617 460 604 c 2
 276 507 l 1
EndSplineSet
Ligature2: "'liga' Standard Ligatures in Latin lookup 1 subtable" o uni030B
EndChar

StartChar: racute
Encoding: 341 341 101
Width: 333
Flags: W
HStem: 0 21G<5 245> 362 98<406 421> 658 20G<481.5 500>
LayerCount: 2
Fore
SplineSet
126 390 m 1
 131 406 l 1
 196 425 236 438 296 460 c 1
 300 458 l 1
 272 366 l 1
 343 437 379 460 421 460 c 0
 455 460 470 440 459 407 c 0
 451 379 431 362 407 362 c 0
 394 362 385 368 373 382 c 0
 365 392 357 397 351 397 c 0
 324 397 266 347 256 315 c 2
 188 90 l 2
 170 33 183 18 250 15 c 1
 245 0 l 1
 5 0 l 1
 10 15 l 1
 77 27 86 34 102 84 c 2
 178 334 l 2
 192 378 187 394 162 394 c 0
 150 394 141 393 126 390 c 1
288 507 m 1
 248 507 l 1
 440 655 l 2
 464 673 474 678 489 678 c 0
 511 678 521 666 515 646 c 0
 510 630 497 617 472 604 c 2
 288 507 l 1
EndSplineSet
Ligature2: "'liga' Standard Ligatures in Latin lookup 1 subtable" r acutecomb
EndChar

StartChar: sacute
Encoding: 347 347 102
Width: 389
Flags: W
HStem: -10 22<194 212> 8 144<90 101> 314 126<410 419> 437 22<309.001 340> 658 20G<529.5 548>
LayerCount: 2
Fore
SplineSet
411 314 m 1x28
 396 314 l 1x28
 400 403 381 437 324 437 c 0
 278 437 238 409 226 369 c 0
 218 342 225 317 248 301 c 2
 336 237 l 2
 385 201 399 168 384 118 c 0
 363 48 281 -10 204 -10 c 0x98
 186 -10 160 -6 134 0 c 0
 113 6 99 8 90 8 c 0
 78 8 74 6 64 -4 c 1
 51 -4 l 1
 98 152 l 1
 114 152 l 1x48
 110 95 112 72 125 47 c 0
 138 25 165 12 199 12 c 0
 250 12 290 40 304 84 c 0
 313 115 303 139 275 159 c 2
 227 192 l 2
 156 240 137 280 154 336 c 0
 176 408 248 459 327 459 c 0x98
 353 459 374 455 394 447 c 0
 403 442 413 440 419 440 c 0
 423 440 424 441 435 448 c 2
 438 450 l 1
 449 450 l 1
 411 314 l 1x28
336 507 m 1
 296 507 l 1
 488 655 l 2
 512 673 522 678 537 678 c 0
 559 678 569 666 563 646 c 0
 558 630 545 617 520 604 c 2
 336 507 l 1
EndSplineSet
Ligature2: "'liga' Standard Ligatures in Latin lookup 1 subtable" s acutecomb
EndChar

StartChar: scaron
Encoding: 353 353 103
Width: 389
Flags: W
HStem: -10 22<194 212> 8 144<90 101> 314 126<410 419> 437 22<316 340> 654 20G<245 279 522 556>
LayerCount: 2
Fore
SplineSet
411 314 m 1x28
 396 314 l 1x28
 400 403 381 437 324 437 c 0
 278 437 238 409 226 369 c 0
 218 342 225 317 248 301 c 2
 336 237 l 2
 385 201 399 168 384 118 c 0
 363 48 281 -10 204 -10 c 0x98
 186 -10 160 -6 134 0 c 0
 113 6 99 8 90 8 c 0
 78 8 74 6 64 -4 c 1
 51 -4 l 1
 98 152 l 1
 114 152 l 1x48
 110 95 112 72 125 47 c 0
 138 25 165 12 199 12 c 0
 250 12 290 40 304 84 c 0
 313 115 303 139 275 159 c 2
 227 192 l 2
 156 240 137 280 154 336 c 0
 176 408 248 459 327 459 c 0x98
 353 459 374 455 394 447 c 0
 403 442 413 440 419 440 c 0
 423 440 424 441 435 448 c 2
 438 450 l 1
 449 450 l 1
 411 314 l 1x28
556 674 m 1
 380 507 l 1
 318 507 l 1
 245 674 l 1
 279 674 l 1
 369 571 l 1
 522 674 l 1
 556 674 l 1
EndSplineSet
Ligature2: "'liga' Standard Ligatures in Latin lookup 1 subtable" s uni030C
EndChar

StartChar: scommaaccent
Encoding: 537 537 104
Width: 389
Flags: W
HStem: -142 104<166 174> -10 22<194 212> 8 144<90 101> 314 126<410 419> 437 22<309.001 340>
LayerCount: 2
Fore
SplineSet
411 314 m 1x90
 396 314 l 1x90
 400 403 381 437 324 437 c 0
 278 437 238 409 226 369 c 0
 218 342 225 317 248 301 c 2
 336 237 l 2
 385 201 399 168 384 118 c 0
 363 48 281 -10 204 -10 c 0xc8
 186 -10 160 -6 134 0 c 0
 113 6 99 8 90 8 c 0
 78 8 74 6 64 -4 c 1
 51 -4 l 1
 98 152 l 1
 114 152 l 1xa0
 110 95 112 72 125 47 c 0
 138 25 165 12 199 12 c 0
 250 12 290 40 304 84 c 0
 313 115 303 139 275 159 c 2
 227 192 l 2
 156 240 137 280 154 336 c 0
 176 408 248 459 327 459 c 0xc8
 353 459 374 455 394 447 c 0
 403 442 413 440 419 440 c 0
 423 440 424 441 435 448 c 2
 438 450 l 1
 449 450 l 1
 411 314 l 1x90
66 -281 m 1
 63 -262 l 1
 128 -225 168 -188 177 -156 c 0
 180 -148 176 -142 168 -142 c 0
 167 -142 167 -142 159 -144 c 0
 153 -145 145 -146 139 -146 c 0
 103 -146 86 -127 96 -95 c 0
 106 -61 137 -38 172 -38 c 0
 217 -38 240 -77 225 -127 c 0
 207 -187 143 -248 66 -281 c 1
EndSplineSet
Ligature2: "'liga' Standard Ligatures in Latin lookup 1 subtable" s uni0326
EndChar

StartChar: tcaron
Encoding: 357 357 105
Width: 278
Flags: W
HStem: -10 52<156 219> 418 32<292 383> 572 104<420 427>
LayerCount: 2
Fore
SplineSet
318 450 m 1
 317 452 l 1
 383 489 422 525 432 558 c 0
 434 566 430 572 422 572 c 0
 421 572 421 572 413 570 c 0
 407 569 400 568 394 568 c 0
 358 568 340 587 350 619 c 0
 361 653 392 676 427 676 c 0
 472 676 495 637 479 587 c 0
 465 539 419 488 356 450 c 1
 393 450 l 1
 383 418 l 1
 282 418 l 1
 194 132 l 2
 175 69 182 42 219 42 c 0
 241 42 261 52 290 77 c 1
 299 66 l 1
 250 14 205 -10 156 -10 c 0
 97 -10 80 33 106 117 c 2
 198 418 l 1
 145 418 l 1
 142 420 142 422 143 425 c 0
 144 430 153 437 166 444 c 1
 183 448 241 496 295 551 c 0
 306 561 314 570 324 579 c 1
 330 579 330 576 327 566 c 2
 292 450 l 1
 318 450 l 1
EndSplineSet
Ligature2: "'liga' Standard Ligatures in Latin lookup 1 subtable" t uni030C
EndChar

StartChar: udieresis
Encoding: 252 252 106
Width: 500
Flags: HW
HStem: -10 58<206.5 210.5> -9 20 433 17<259 259> 436 14<9 9>
VStem: 9 99 71 84<120 124 124 372 372 395> 208 99 333 84<135 370 370 395>
LayerCount: 2
Fore
SplineSet
494 50 m 1x15
 490 36 l 1
 435 22 395 11 339 -9 c 1x45
 336 -7 l 1
 361 76 l 1
 305 33 l 2
 270 6 226 -10 189 -10 c 0
 116 -10 84 41 108 120 c 2
 185 372 l 2
 199 418 189 433 142 436 c 1
 147 450 l 1
 293 450 l 1x95
 193 124 l 2
 180 82 202 48 241 48 c 0
 271 48 305 60 339 82 c 0
 356 93 366 107 374 135 c 2
 446 370 l 2
 461 420 452 430 391 433 c 1xa5
 397 450 l 1
 555 450 l 1
 450 107 l 2
 436 61 443 50 489 50 c 2
 494 50 l 1x15
320 622 m 0x0a
 348 622 364 599 356 572 c 0
 348 545 318 523 290 523 c 0
 263 523 249 545 257 573 c 0
 265 599 295 622 320 622 c 0x0a
519 622 m 0
 547 622 563 599 555 572 c 0
 547 545 517 523 489 523 c 0
 462 523 448 545 456 573 c 0
 464 599 494 622 519 622 c 0
EndSplineSet
Ligature2: "'liga' Standard Ligatures in Latin lookup 1 subtable" u uni0308
EndChar

StartChar: uacute
Encoding: 250 250 107
Width: 500
Flags: HW
HStem: -10 58<206.5 210.5> -9 20 433 17<259 259> 436 14<9 9> 658 20<358.5 377>
VStem: 71 84<120 124 124 372 372 395> 333 84<135 370 370 395>
LayerCount: 2
Fore
SplineSet
494 50 m 1x16
 490 36 l 1
 435 22 395 11 339 -9 c 1x46
 336 -7 l 1
 361 76 l 1
 305 33 l 2
 270 6 226 -10 189 -10 c 0
 116 -10 84 41 108 120 c 2
 185 372 l 2
 199 418 189 433 142 436 c 1
 147 450 l 1
 293 450 l 1x96
 193 124 l 2
 180 82 202 48 241 48 c 0
 271 48 305 60 339 82 c 0
 356 93 366 107 374 135 c 2
 446 370 l 2
 461 420 452 430 391 433 c 1xa6
 397 450 l 1
 555 450 l 1
 450 107 l 2
 436 61 443 50 489 50 c 2
 494 50 l 1x16
372 507 m 1x08
 332 507 l 1
 524 655 l 2
 548 673 558 678 573 678 c 0
 595 678 605 666 599 646 c 0
 594 630 581 617 556 604 c 2
 372 507 l 1x08
EndSplineSet
Ligature2: "'liga' Standard Ligatures in Latin lookup 1 subtable" u acutecomb
EndChar

StartChar: ugrave
Encoding: 249 249 108
Width: 500
Flags: HW
HStem: -10 58<206.5 210.5> -9 20 433 17<259 259> 436 14<9 9> 658 20<104.5 122.5>
VStem: 71 84<120 124 124 372 372 395> 333 84<135 370 370 395>
LayerCount: 2
Fore
SplineSet
494 50 m 1x16
 490 36 l 1
 435 22 395 11 339 -9 c 1x46
 336 -7 l 1
 361 76 l 1
 305 33 l 2
 270 6 226 -10 189 -10 c 0
 116 -10 84 41 108 120 c 2
 185 372 l 2
 199 418 189 433 142 436 c 1
 147 450 l 1
 293 450 l 1x96
 193 124 l 2
 180 82 202 48 241 48 c 0
 271 48 305 60 339 82 c 0
 356 93 366 107 374 135 c 2
 446 370 l 2
 461 420 452 430 391 433 c 1xa6
 397 450 l 1
 555 450 l 1
 450 107 l 2
 436 61 443 50 489 50 c 2
 494 50 l 1x16
459 507 m 1x08
 419 507 l 1
 295 604 l 2
 280 616 274 631 279 647 c 0
 285 666 301 678 322 678 c 0
 337 678 345 673 357 655 c 2
 459 507 l 1x08
EndSplineSet
Ligature2: "'liga' Standard Ligatures in Latin lookup 1 subtable" u gravecomb
EndChar

StartChar: ucircumflex
Encoding: 251 251 109
Width: 500
Flags: HW
HStem: -10 58<206.5 210.5> -9 20 433 17<259 259> 436 14<9 9> 654 20<206 268 268 268>
VStem: 71 84<120 124 124 372 372 395> 333 84<135 370 370 395>
LayerCount: 2
Fore
SplineSet
494 50 m 1x16
 490 36 l 1
 435 22 395 11 339 -9 c 1x46
 336 -7 l 1
 361 76 l 1
 305 33 l 2
 270 6 226 -10 189 -10 c 0
 116 -10 84 41 108 120 c 2
 185 372 l 2
 199 418 189 433 142 436 c 1
 147 450 l 1
 293 450 l 1x96
 193 124 l 2
 180 82 202 48 241 48 c 0
 271 48 305 60 339 82 c 0
 356 93 366 107 374 135 c 2
 446 370 l 2
 461 420 452 430 391 433 c 1xa6
 397 450 l 1
 555 450 l 1
 450 107 l 2
 436 61 443 50 489 50 c 2
 494 50 l 1x16
548 507 m 1x08
 514 507 l 1
 423 610 l 1
 271 507 l 1
 237 507 l 1
 412 674 l 1
 474 674 l 1
 548 507 l 1x08
EndSplineSet
Ligature2: "'liga' Standard Ligatures in Latin lookup 1 subtable" u uni0302
EndChar

StartChar: uring
Encoding: 367 367 110
Width: 500
Flags: W
HStem: -10 58<189 241> 430 20G<147 293 397 555> 512 34<404 421> 677 34<451 468>
LayerCount: 2
Fore
SplineSet
494 50 m 1
 490 36 l 1
 435 22 395 11 339 -9 c 1
 336 -7 l 1
 361 76 l 1
 305 33 l 2
 270 6 226 -10 189 -10 c 0
 116 -10 84 41 108 120 c 2
 185 372 l 2
 199 418 189 433 142 436 c 1
 147 450 l 1
 293 450 l 1
 193 124 l 2
 180 82 202 48 241 48 c 0
 271 48 305 60 339 82 c 0
 356 93 366 107 374 135 c 2
 446 370 l 2
 461 420 452 430 391 433 c 1
 397 450 l 1
 555 450 l 1
 450 107 l 2
 436 61 443 50 489 50 c 2
 494 50 l 1
466 711 m 0
 521 711 553 666 536 611 c 0
 519 556 461 512 406 512 c 0
 350 512 320 556 337 612 c 0
 354 666 412 711 466 711 c 0
457 677 m 0
 421 677 382 648 371 612 c 0
 360 576 380 546 415 546 c 0
 452 546 491 575 502 611 c 0
 513 647 492 677 457 677 c 0
EndSplineSet
Ligature2: "'liga' Standard Ligatures in Latin lookup 1 subtable" u uni030A
EndChar

StartChar: uhungarumlaut
Encoding: 369 369 111
Width: 500
Flags: W
HStem: -10 58<189 241> 430 20G<147 293 397 555> 658 20G<469.5 488 625.5 644>
LayerCount: 2
Fore
SplineSet
494 50 m 1
 490 36 l 1
 435 22 395 11 339 -9 c 1
 336 -7 l 1
 361 76 l 1
 305 33 l 2
 270 6 226 -10 189 -10 c 0
 116 -10 84 41 108 120 c 2
 185 372 l 2
 199 418 189 433 142 436 c 1
 147 450 l 1
 293 450 l 1
 193 124 l 2
 180 82 202 48 241 48 c 0
 271 48 305 60 339 82 c 0
 356 93 366 107 374 135 c 2
 446 370 l 2
 461 420 452 430 391 433 c 1
 397 450 l 1
 555 450 l 1
 450 107 l 2
 436 61 443 50 489 50 c 2
 494 50 l 1
432 507 m 1
 392 507 l 1
 584 655 l 2
 608 673 618 678 633 678 c 0
 655 678 665 666 659 646 c 0
 654 630 641 617 616 604 c 2
 432 507 l 1
276 507 m 1
 236 507 l 1
 428 655 l 2
 452 673 462 678 477 678 c 0
 499 678 509 666 503 646 c 0
 498 630 485 617 460 604 c 2
 276 507 l 1
EndSplineSet
Ligature2: "'liga' Standard Ligatures in Latin lookup 1 subtable" u uni030B
EndChar

StartChar: yacute
Encoding: 253 253 112
Width: 500
Flags: HW
HStem: -218 84<11.1481 117> 430 20<14 220 220 220 340 475 475 475> 658 20<358.5 377>
LayerCount: 2
Fore
SplineSet
613 450 m 1
 608 435 l 1
 583 432 569 422 546 390 c 1
 267 -18 l 2
 169 -162 104 -218 37 -218 c 0
 -5 -218 -29 -193 -19 -160 c 0
 -12 -136 15 -116 38 -116 c 0
 55 -116 70 -120 87 -127 c 0
 96 -132 104 -134 110 -134 c 0
 124 -134 152 -115 174 -89 c 0
 200 -59 242 4 247 19 c 0
 251 34 246 70 234 120 c 1
 228 150 l 1
 227 158 l 1
 189 404 l 2
 186 421 172 432 147 436 c 1
 152 450 l 1
 358 450 l 1
 353 435 l 1
 309 433 292 426 287 408 c 0
 283 397 283 384 285 370 c 2
 323 117 l 1
 504 393 l 1
 509 400 512 406 513 410 c 0
 518 426 505 435 473 435 c 1
 478 450 l 1
 613 450 l 1
372 507 m 1x20
 332 507 l 1
 524 655 l 2
 548 673 558 678 573 678 c 0
 595 678 605 666 599 646 c 0
 594 630 581 617 556 604 c 2
 372 507 l 1x20
EndSplineSet
Ligature2: "'liga' Standard Ligatures in Latin lookup 1 subtable" y acutecomb
EndChar

StartChar: zacute
Encoding: 378 378 113
Width: 444
Flags: W
HStem: 0 30<143 404> 420 30<194 421> 658 20G<537.5 556>
LayerCount: 2
Fore
SplineSet
459 135 m 1
 404 0 l 1
 27 0 l 1
 32 15 l 1
 421 420 l 1
 283 420 l 2
 223 420 204 405 173 332 c 1
 155 332 l 1
 194 450 l 1
 541 450 l 1
 536 435 l 1
 143 30 l 1
 281 30 l 2
 332 30 369 39 388 56 c 0
 406 73 417 89 442 139 c 1
 459 135 l 1
344 507 m 1
 304 507 l 1
 496 655 l 2
 520 673 530 678 545 678 c 0
 567 678 577 666 571 646 c 0
 566 630 553 617 528 604 c 2
 344 507 l 1
EndSplineSet
Ligature2: "'liga' Standard Ligatures in Latin lookup 1 subtable" z acutecomb
EndChar

StartChar: zcaron
Encoding: 382 382 114
Width: 444
Flags: W
HStem: 0 30<143 404> 420 30<194 421> 654 20G<273 307 550 584>
LayerCount: 2
Fore
SplineSet
459 135 m 1
 404 0 l 1
 27 0 l 1
 32 15 l 1
 421 420 l 1
 283 420 l 2
 223 420 204 405 173 332 c 1
 155 332 l 1
 194 450 l 1
 541 450 l 1
 536 435 l 1
 143 30 l 1
 281 30 l 2
 332 30 369 39 388 56 c 0
 406 73 417 89 442 139 c 1
 459 135 l 1
584 674 m 1
 408 507 l 1
 346 507 l 1
 273 674 l 1
 307 674 l 1
 397 571 l 1
 550 674 l 1
 584 674 l 1
EndSplineSet
Ligature2: "'liga' Standard Ligatures in Latin lookup 1 subtable" z uni030C
EndChar

StartChar: zdotaccent
Encoding: 380 380 115
Width: 444
Flags: W
HStem: 0 30<143 404> 420 30<194 421> 523 99<381 411>
LayerCount: 2
Fore
SplineSet
459 135 m 1
 404 0 l 1
 27 0 l 1
 32 15 l 1
 421 420 l 1
 283 420 l 2
 223 420 204 405 173 332 c 1
 155 332 l 1
 194 450 l 1
 541 450 l 1
 536 435 l 1
 143 30 l 1
 281 30 l 2
 332 30 369 39 388 56 c 0
 406 73 417 89 442 139 c 1
 459 135 l 1
411 622 m 0
 439 622 455 599 447 572 c 0
 439 545 409 523 381 523 c 0
 354 523 340 545 348 573 c 0
 356 599 386 622 411 622 c 0
EndSplineSet
Ligature2: "'liga' Standard Ligatures in Latin lookup 1 subtable" z uni0307
EndChar

StartChar: ydieresis
Encoding: 255 255 116
Width: 500
Flags: HW
HStem: -218 84<11.1481 117> 430 20<14 220 220 220 340 475 475 475>
VStem: 14 99 213 99
LayerCount: 2
Fore
SplineSet
613 450 m 1
 608 435 l 1
 583 432 569 422 546 390 c 1
 267 -18 l 2
 169 -162 104 -218 37 -218 c 0
 -5 -218 -29 -193 -19 -160 c 0
 -12 -136 15 -116 38 -116 c 0
 55 -116 70 -120 87 -127 c 0
 96 -132 104 -134 110 -134 c 0
 124 -134 152 -115 174 -89 c 0
 200 -59 242 4 247 19 c 0
 251 34 246 70 234 120 c 1
 228 150 l 1
 227 158 l 1
 189 404 l 2
 186 421 172 432 147 436 c 1
 152 450 l 1
 358 450 l 1
 353 435 l 1
 309 433 292 426 287 408 c 0
 283 397 283 384 285 370 c 2
 323 117 l 1
 504 393 l 1
 509 400 512 406 513 410 c 0
 518 426 505 435 473 435 c 1
 478 450 l 1
 613 450 l 1
355 622 m 0x30
 383 622 399 599 391 572 c 0
 383 545 353 523 325 523 c 0
 298 523 284 545 292 573 c 0
 300 599 330 622 355 622 c 0x30
554 622 m 0
 582 622 598 599 590 572 c 0
 582 545 552 523 524 523 c 0
 497 523 483 545 491 573 c 0
 499 599 529 622 554 622 c 0
EndSplineSet
Ligature2: "'liga' Standard Ligatures in Latin lookup 1 subtable" y uni0308
EndChar

StartChar: tcommaaccent
Encoding: 355 355 117
Width: 278
Flags: W
HStem: -142 104<107 118> -10 52<156 219> 418 32<292 383>
LayerCount: 2
Fore
SplineSet
393 450 m 1
 383 418 l 1
 282 418 l 1
 194 132 l 2
 175 69 182 42 219 42 c 0
 241 42 261 52 290 77 c 1
 299 66 l 1
 250 14 205 -10 156 -10 c 0
 97 -10 80 33 106 117 c 2
 198 418 l 1
 145 418 l 1
 142 420 142 422 143 425 c 0
 144 430 153 437 166 444 c 1
 183 448 241 496 295 551 c 0
 306 561 314 570 324 579 c 1
 330 579 330 576 327 566 c 2
 292 450 l 1
 393 450 l 1
10 -281 m 1
 7 -262 l 1
 72 -225 112 -188 121 -156 c 0
 124 -148 120 -142 112 -142 c 0
 111 -142 111 -142 103 -144 c 0
 97 -145 89 -146 83 -146 c 0
 47 -146 30 -127 40 -95 c 0
 50 -61 81 -38 116 -38 c 0
 161 -38 184 -77 169 -127 c 0
 151 -187 87 -248 10 -281 c 1
EndSplineSet
Ligature2: "'liga' Standard Ligatures in Latin lookup 1 subtable" t uni0327
EndChar

StartChar: amacron
Encoding: 257 257 118
Width: 444
Flags: HW
HStem: -10 57<122.215 221.178 350.037 416.155> -10 58<121.849 221.178 350.077 416.155> 436 24<191 235.5> 547 54<67 378>
VStem: 56 83 287 81<123 268 268 268 292 300>
LayerCount: 2
Fore
SplineSet
462 66 m 1xac
 454 40 l 1
 408 2 383 -10 349 -10 c 0x8c
 308 -10 296 11 307 63 c 1
 230 11 183 -10 139 -10 c 0x4c
 78 -10 47 34 67 97 c 0
 77 130 101 164 129 184 c 0
 184 222 203 230 376 292 c 1
 395 353 l 2
 411 407 393 436 344 436 c 0
 304 436 266 414 257 387 c 0
 255 380 254 372 253 363 c 0
 252 356 251 351 250 347 c 0
 243 325 216 305 192 305 c 0
 169 305 155 325 162 348 c 0
 182 411 271 460 365 460 c 0
 424 460 461 441 472 405 c 0
 479 381 476 352 460 300 c 2
 400 105 l 2
 387 61 389 47 412 47 c 0
 427 47 441 52 462 66 c 1xac
325 123 m 2x4c
 369 268 l 1
 234 224 182 188 164 129 c 2
 163 125 l 2
 150 82 168 48 203 48 c 0
 224 48 254 57 283 71 c 0
 307 83 315 92 325 123 c 2x4c
251 601 m 1x10
 562 601 l 1
 545 547 l 1
 234 547 l 1
 251 601 l 1x10
EndSplineSet
Ligature2: "'liga' Standard Ligatures in Latin lookup 1 subtable" a uni0304
EndChar

StartChar: emacron
Encoding: 275 275 119
Width: 444
Flags: W
HStem: -10 69<209 271> 277 32<193 490> 424 36<335 375> 547 54<250 545>
LayerCount: 2
Fore
SplineSet
458 164 m 1
 472 157 l 1
 397 49 304 -10 209 -10 c 0
 94 -10 48 76 90 214 c 0
 115 296 164 367 224 408 c 0
 272 442 325 460 375 460 c 0
 427 460 466 439 485 403 c 0
 500 371 502 342 490 277 c 1
 182 277 l 1
 165 216 162 183 168 145 c 0
 180 88 214 59 271 59 c 0
 335 59 387 88 458 164 c 1
193 309 m 1
 397 309 l 1
 411 396 396 424 335 424 c 0
 274 424 228 387 193 309 c 1
251 601 m 1
 562 601 l 1
 545 547 l 1
 234 547 l 1
 251 601 l 1
EndSplineSet
Ligature2: "'liga' Standard Ligatures in Latin lookup 1 subtable" e uni0304
EndChar

StartChar: imacron
Encoding: 299 299 120
Width: 278
Flags: W
HStem: 0 21G<16 253> 547 54<167 459>
LayerCount: 2
Fore
SplineSet
316 460 m 1
 319 457 l 1
 210 102 l 2
 188 30 193 20 258 15 c 1
 253 0 l 1
 16 0 l 1
 21 15 l 1
 91 19 104 30 126 102 c 2
 197 334 l 2
 211 378 206 394 182 394 c 0
 173 394 160 393 148 391 c 2
 139 390 l 1
 144 405 l 1
 316 460 l 1
168 601 m 1
 476 601 l 1
 459 547 l 1
 151 547 l 1
 168 601 l 1
EndSplineSet
Ligature2: "'liga' Standard Ligatures in Latin lookup 1 subtable" i uni0304
EndChar

StartChar: kcommaaccent
Encoding: 311 311 121
Width: 500
Flags: W
HStem: -142 104<221 229> 0 15<291 505> 435 15<414 613>
LayerCount: 2
Fore
SplineSet
197 623 m 1
 202 639 l 1
 235 647 l 2
 298 663 329 671 371 683 c 1
 374 681 l 1
 246 261 l 1
 420 383 l 2
 438 395 451 409 453 417 c 0
 458 431 448 435 409 436 c 1
 414 450 l 1
 618 450 l 1
 613 435 l 1
 605 435 l 2
 588 435 573 433 557 429 c 0
 526 421 450 375 358 309 c 2
 321 282 l 1
 415 88 l 1
 441 37 467 18 510 15 c 1
 505 0 l 1
 287 0 l 1
 292 15 l 1
 311 15 l 2
 323 15 333 21 336 30 c 0
 338 35 337 41 332 51 c 0
 330 54 328 57 327 60 c 2
 326 64 l 1
 243 251 l 1
 186 67 l 2
 176 32 187 18 226 16 c 2
 246 15 l 1
 241 0 l 1
 7 0 l 1
 12 15 l 1
 87 27 91 30 107 82 c 2
 254 564 l 2
 269 612 263 625 230 625 c 0
 220 625 211 624 197 623 c 1
121 -281 m 1
 118 -262 l 1
 183 -225 223 -188 232 -156 c 0
 235 -148 231 -142 223 -142 c 0
 222 -142 222 -142 214 -144 c 0
 208 -145 200 -146 194 -146 c 0
 158 -146 141 -127 151 -95 c 0
 161 -61 192 -38 227 -38 c 0
 272 -38 295 -77 280 -127 c 0
 262 -187 198 -248 121 -281 c 1
EndSplineSet
Ligature2: "'liga' Standard Ligatures in Latin lookup 1 subtable" k uni0327
EndChar

StartChar: lcommaaccent
Encoding: 316 316 122
Width: 278
Flags: W
HStem: -142 104<110 118> 0 21G<21 257>
LayerCount: 2
Fore
SplineSet
209 623 m 1
 214 639 l 1
 289 656 330 666 387 683 c 1
 390 681 l 1
 208 84 l 2
 191 29 200 19 262 15 c 1
 257 0 l 1
 21 0 l 1
 26 15 l 1
 90 20 108 33 125 87 c 2
 270 564 l 2
 285 611 279 625 247 625 c 0
 239 625 227 624 215 623 c 2
 209 623 l 1
10 -281 m 1
 7 -262 l 1
 72 -225 112 -188 121 -156 c 0
 124 -148 120 -142 112 -142 c 0
 111 -142 111 -142 103 -144 c 0
 97 -145 89 -146 83 -146 c 0
 47 -146 30 -127 40 -95 c 0
 50 -61 81 -38 116 -38 c 0
 161 -38 184 -77 169 -127 c 0
 151 -187 87 -248 10 -281 c 1
EndSplineSet
Ligature2: "'liga' Standard Ligatures in Latin lookup 1 subtable" l uni0327
EndChar

StartChar: ncommaaccent
Encoding: 326 326 123
Width: 500
Flags: W
HStem: -142 104<221 229> 0 21G<18 230 277 485> 405 55<391 447>
LayerCount: 2
Fore
SplineSet
138 398 m 1
 143 415 l 1
 203 431 240 442 295 460 c 1
 301 458 l 1
 277 379 l 1
 364 443 401 460 447 460 c 0
 521 460 548 404 519 310 c 2
 449 81 l 2
 434 32 442 20 490 15 c 1
 485 0 l 1
 277 0 l 1
 282 15 l 1
 333 19 351 36 370 99 c 2
 434 308 l 2
 454 374 440 405 391 405 c 0
 358 405 332 393 270 348 c 1
 184 67 l 2
 173 31 185 19 235 15 c 1
 230 0 l 1
 18 0 l 1
 23 15 l 1
 75 19 90 33 108 90 c 2
 183 338 l 2
 198 387 194 402 166 402 c 0
 155 402 145 401 138 398 c 1
121 -281 m 1
 118 -262 l 1
 183 -225 223 -188 232 -156 c 0
 235 -148 231 -142 223 -142 c 0
 222 -142 222 -142 214 -144 c 0
 208 -145 200 -146 194 -146 c 0
 158 -146 141 -127 151 -95 c 0
 161 -61 192 -38 227 -38 c 0
 272 -38 295 -77 280 -127 c 0
 262 -187 198 -248 121 -281 c 1
EndSplineSet
Ligature2: "'liga' Standard Ligatures in Latin lookup 1 subtable" n uni0327
EndChar

StartChar: omacron
Encoding: 333 333 124
Width: 500
Flags: W
HStem: -10 28<245 266> 432 28<367 391> 547 54<278 573>
LayerCount: 2
Fore
SplineSet
391 460 m 0
 519 460 582 365 542 234 c 0
 499 96 371 -10 245 -10 c 0
 119 -10 57 91 98 226 c 0
 140 364 261 460 391 460 c 0
369 432 m 0
 298 432 232 370 203 275 c 0
 181 204 176 134 188 82 c 0
 197 42 227 18 266 18 c 0
 341 18 406 86 441 199 c 0
 483 336 453 432 369 432 c 0
279 601 m 1
 590 601 l 1
 573 547 l 1
 262 547 l 1
 279 601 l 1
EndSplineSet
Ligature2: "'liga' Standard Ligatures in Latin lookup 1 subtable" o uni0304
EndChar

StartChar: rcommaaccent
Encoding: 343 343 125
Width: 333
Flags: W
HStem: -142 104<98 106> 0 21G<5 245> 362 98<406 421>
LayerCount: 2
Fore
SplineSet
126 390 m 1
 131 406 l 1
 196 425 236 438 296 460 c 1
 300 458 l 1
 272 366 l 1
 343 437 379 460 421 460 c 0
 455 460 470 440 459 407 c 0
 451 379 431 362 407 362 c 0
 394 362 385 368 373 382 c 0
 365 392 357 397 351 397 c 0
 324 397 266 347 256 315 c 2
 188 90 l 2
 170 33 183 18 250 15 c 1
 245 0 l 1
 5 0 l 1
 10 15 l 1
 77 27 86 34 102 84 c 2
 178 334 l 2
 192 378 187 394 162 394 c 0
 150 394 141 393 126 390 c 1
-2 -281 m 1
 -5 -262 l 1
 60 -225 100 -188 109 -156 c 0
 112 -148 108 -142 100 -142 c 0
 99 -142 99 -142 91 -144 c 0
 85 -145 77 -146 71 -146 c 0
 35 -146 18 -127 28 -95 c 0
 38 -61 69 -38 104 -38 c 0
 149 -38 172 -77 157 -127 c 0
 139 -187 75 -248 -2 -281 c 1
EndSplineSet
Ligature2: "'liga' Standard Ligatures in Latin lookup 1 subtable" r uni0327
EndChar

StartChar: umacron
Encoding: 363 363 126
Width: 500
Flags: W
HStem: -10 58<189 241> 430 20G<147 293 397 555> 547 54<278 573>
LayerCount: 2
Fore
SplineSet
494 50 m 1
 490 36 l 1
 435 22 395 11 339 -9 c 1
 336 -7 l 1
 361 76 l 1
 305 33 l 2
 270 6 226 -10 189 -10 c 0
 116 -10 84 41 108 120 c 2
 185 372 l 2
 199 418 189 433 142 436 c 1
 147 450 l 1
 293 450 l 1
 193 124 l 2
 180 82 202 48 241 48 c 0
 271 48 305 60 339 82 c 0
 356 93 366 107 374 135 c 2
 446 370 l 2
 461 420 452 430 391 433 c 1
 397 450 l 1
 555 450 l 1
 450 107 l 2
 436 61 443 50 489 50 c 2
 494 50 l 1
279 601 m 1
 590 601 l 1
 573 547 l 1
 262 547 l 1
 279 601 l 1
EndSplineSet
Ligature2: "'liga' Standard Ligatures in Latin lookup 1 subtable" u uni0304
EndChar

StartChar: uogonek
Encoding: 371 371 127
Width: 500
Flags: W
HStem: -165 56<338 376> -10 58<189 241> 430 20G<147 293 397 555>
LayerCount: 2
Fore
SplineSet
494 50 m 1
 490 36 l 1
 458 29 442 23 417 6 c 0
 384 -16 357 -46 350 -70 c 0
 343 -93 354 -109 376 -109 c 0
 397 -109 419 -99 458 -73 c 1
 473 -89 l 1
 420 -142 379 -165 338 -165 c 0
 297 -165 275 -132 288 -89 c 0
 294 -68 305 -52 329 -29 c 1
 361 76 l 1
 305 33 l 2
 270 6 226 -10 189 -10 c 0
 116 -10 84 41 108 120 c 2
 185 372 l 2
 199 418 189 433 142 436 c 1
 147 450 l 1
 293 450 l 1
 193 124 l 2
 180 82 202 48 241 48 c 0
 271 48 305 60 339 82 c 0
 356 93 366 107 374 135 c 2
 446 370 l 2
 461 420 452 430 391 433 c 1
 397 450 l 1
 555 450 l 1
 450 107 l 2
 436 61 443 50 489 50 c 2
 494 50 l 1
EndSplineSet
Ligature2: "'liga' Standard Ligatures in Latin lookup 1 subtable" u uni0328
EndChar

StartChar: rcaron
Encoding: 345 345 128
Width: 333
Flags: W
HStem: 0 21G<5 245> 362 98<406 421> 654 20G<217 251 494 528>
LayerCount: 2
Fore
SplineSet
126 390 m 1
 131 406 l 1
 196 425 236 438 296 460 c 1
 300 458 l 1
 272 366 l 1
 343 437 379 460 421 460 c 0
 455 460 470 440 459 407 c 0
 451 379 431 362 407 362 c 0
 394 362 385 368 373 382 c 0
 365 392 357 397 351 397 c 0
 324 397 266 347 256 315 c 2
 188 90 l 2
 170 33 183 18 250 15 c 1
 245 0 l 1
 5 0 l 1
 10 15 l 1
 77 27 86 34 102 84 c 2
 178 334 l 2
 192 378 187 394 162 394 c 0
 150 394 141 393 126 390 c 1
528 674 m 1
 352 507 l 1
 290 507 l 1
 217 674 l 1
 251 674 l 1
 341 571 l 1
 494 674 l 1
 528 674 l 1
EndSplineSet
Ligature2: "'liga' Standard Ligatures in Latin lookup 1 subtable" r uni030C
EndChar

StartChar: scedilla
Encoding: 351 351 129
Width: 389
Flags: W
HStem: -215 35<88 116> -100 38<130 184> -10 22<194 212> 8 144<90 103> 314 126<410 419> 437 22<309.001 340>
LayerCount: 2
Fore
SplineSet
195 -10 m 1xe4
 157 -65 l 1
 168 -63 174 -62 184 -62 c 0
 238 -62 262 -88 249 -131 c 0
 233 -183 175 -215 98 -215 c 0
 66 -215 44 -211 19 -199 c 1
 43 -168 l 1
 68 -177 83 -180 104 -180 c 0
 138 -180 164 -163 172 -136 c 0
 180 -110 168 -100 130 -100 c 0
 119 -100 110 -101 101 -104 c 1
 96 -99 l 1
 163 -6 l 1
 152 -4 146 -3 134 0 c 0
 112 6 99 8 90 8 c 0
 78 8 74 6 64 -4 c 1
 51 -4 l 1
 98 152 l 1
 114 152 l 1xd0
 110 95 112 72 125 47 c 0
 138 25 165 12 199 12 c 0
 250 12 290 40 304 84 c 0
 313 115 303 139 275 159 c 2
 227 192 l 2
 156 240 137 280 154 336 c 0
 176 408 248 459 327 459 c 0xe4
 353 459 374 455 394 447 c 0
 403 442 413 440 419 440 c 0
 423 440 424 441 435 448 c 2
 438 450 l 1
 449 450 l 1
 411 314 l 1
 396 314 l 1xc8
 400 403 381 437 324 437 c 0
 278 437 238 409 226 369 c 0
 218 342 225 317 248 301 c 2
 336 237 l 2
 385 201 399 168 384 118 c 0
 363 49 281 -10 206 -10 c 2
 195 -10 l 1xe4
EndSplineSet
Ligature2: "'liga' Standard Ligatures in Latin lookup 1 subtable" s uni0327
EndChar

StartChar: gcommaaccent
Encoding: 291 291 130
Width: 500
Flags: W
HStem: -218 57<134 195> -35 20G<279.5 349.5> 149 25<294 309> 388 39<506 589> 432 28<357 377> 493 104<410 420>
LayerCount: 2
Fore
SplineSet
589 388 m 1
 506 388 l 1
 510 356 508 333 499 304 c 0
 484 254 458 219 416 191 c 0
 377 164 333 149 296 149 c 0
 290 149 277 150 258 152 c 0
 255 152 249 153 240 154 c 1
 211 146 167 111 161 91 c 0
 156 75 178 66 231 64 c 2
 358 58 l 2
 431 55 465 13 446 -49 c 0
 434 -87 408 -119 360 -150 c 0
 295 -192 209 -218 134 -218 c 0
 39 -218 -25 -174 -9 -121 c 0
 2 -84 39 -51 126 1 c 1
 91 21 83 33 90 54 c 0
 96 74 115 94 157 123 c 0
 164 128 187 145 212 163 c 1
 156 196 141 234 160 297 c 0
 188 388 284 460 377 460 c 0
 403 460 428 455 452 445 c 2
 472 437 l 2
 489 430 504 427 524 427 c 2
 601 427 l 1
 589 388 l 1
146 -2 m 1
 89 -52 78 -65 71 -88 c 0
 58 -132 107 -161 195 -161 c 0
 308 -161 396 -122 413 -64 c 0
 424 -28 395 -15 304 -15 c 0
 255 -15 177 -9 146 -2 c 1
255 338 m 2
 254 335 l 2
 225 239 247 174 307 174 c 0
 353 174 393 209 410 265 c 0
 422 304 424 350 417 385 c 0
 410 415 389 432 358 432 c 0
 312 432 273 397 255 338 c 2
517 736 m 1
 520 717 l 1
 455 680 416 644 406 611 c 0
 403 603 408 597 416 597 c 0
 417 597 417 597 424 599 c 0
 430 600 438 601 444 601 c 0
 480 601 497 582 487 550 c 0
 477 516 446 493 411 493 c 0
 366 493 343 532 358 582 c 0
 376 642 440 703 517 736 c 1
EndSplineSet
Ligature2: "'liga' Standard Ligatures in Latin lookup 1 subtable" g uni0327
EndChar

StartChar: iogonek
Encoding: 303 303 131
Width: 278
Flags: W
HStem: -165 56<116 154> -20 20G<16 147> 0 21G<220 253> 581 102<306 337>
LayerCount: 2
Fore
SplineSet
319 457 m 1
 210 102 l 2
 188 30 193 20 258 15 c 1
 253 0 l 1
 220 0 l 2
 182 0 139 -33 128 -70 c 0
 121 -92 132 -109 154 -109 c 0
 175 -109 197 -99 236 -73 c 1
 251 -89 l 1
 198 -142 157 -165 116 -165 c 0
 75 -165 53 -132 66 -89 c 0
 76 -56 99 -31 147 0 c 1
 16 0 l 1
 21 15 l 1
 91 19 104 30 126 102 c 2
 197 334 l 2
 211 378 206 394 182 394 c 0
 173 394 160 393 148 391 c 2
 139 390 l 1
 144 405 l 1
 316 460 l 1
 319 457 l 1
337 683 m 0
 366 683 382 660 373 632 c 0
 364 603 335 581 306 581 c 0
 278 581 263 604 271 632 c 0
 280 660 310 683 337 683 c 0
EndSplineSet
Ligature2: "'liga' Standard Ligatures in Latin lookup 1 subtable" i uni0328
EndChar

StartChar: Scommaaccent
Encoding: 536 536 132
Width: 556
Flags: W
HStem: -142 104<249 257> -14 36<258 293> 20 179<103 128> 463 179<585 611> 635 41<437 469>
LayerCount: 2
Fore
SplineSet
654 676 m 1x88
 611 463 l 1
 586 463 l 1x90
 588 522 582 548 560 580 c 0
 536 616 500 635 455 635 c 0
 393 635 340 597 323 542 c 0
 306 488 335 444 422 386 c 0
 532 315 567 250 542 168 c 0
 511 65 398 -14 283 -14 c 0xc8
 243 -14 205 -6 172 9 c 0
 155 16 139 20 128 20 c 0
 113 20 97 6 90 -13 c 1
 68 -13 l 1
 103 199 l 1
 126 199 l 1xa0
 139 77 185 22 274 22 c 0
 347 22 411 68 431 135 c 0
 439 159 440 180 435 193 c 0
 422 231 382 272 322 310 c 0
 228 369 201 425 225 505 c 0
 241 557 272 599 317 630 c 0
 358 659 408 676 451 676 c 0xc8
 483 676 517 668 550 654 c 1
 565 646 580 642 590 642 c 0x90
 607 642 622 653 633 676 c 1
 654 676 l 1x88
149 -281 m 1
 146 -262 l 1
 211 -225 251 -188 260 -156 c 0
 263 -148 259 -142 251 -142 c 0
 250 -142 250 -142 242 -144 c 0
 236 -145 228 -146 222 -146 c 0
 186 -146 169 -127 179 -95 c 0
 189 -61 220 -38 255 -38 c 0
 300 -38 323 -77 308 -127 c 0
 290 -187 226 -248 149 -281 c 1
EndSplineSet
Ligature2: "'liga' Standard Ligatures in Latin lookup 1 subtable" S uni0326
EndChar

StartChar: A
Encoding: 65 65 133
Width: 722
Flags: W
HStem: 0 19<206 219 457 479.502> 216 41<295 527> 654 20G<553 573>
LayerCount: 2
Fore
SplineSet
712 19 m 1
 706 0 l 1
 451 0 l 1
 457 19 l 1
 510 20 530 28 537 53 c 0
 541 67 542 93 539 120 c 2
 527 216 l 1
 265 216 l 1
 183 99 l 2
 174 86 167 72 163 60 c 0
 155 32 171 19 219 19 c 1
 213 0 l 1
 15 0 l 1
 21 19 l 1
 69 21 86 37 195 183 c 1
 553 674 l 1
 573 674 l 1
 648 106 l 1
 661 32 668 22 712 19 c 1
295 257 m 1
 526 257 l 1
 494 532 l 1
 295 257 l 1
EndSplineSet
EndChar

StartChar: B
Encoding: 66 66 134
Width: 667
Flags: W
HStem: 0 37<272 351> 326 40<315 378.834> 625 37<219 500>
LayerCount: 2
Fore
SplineSet
219 662 m 1
 499 662 l 2
 672 662 744 604 709 492 c 0
 697 451 671 414 639 392 c 0
 608 371 584 361 528 348 c 1
 589 332 612 320 634 293 c 0
 656 264 661 224 648 180 c 0
 633 132 600 87 554 55 c 0
 506 21 429 0 351 0 c 2
 17 0 l 1
 23 19 l 1
 107 22 124 35 146 109 c 2
 282 553 l 2
 305 627 296 638 214 643 c 1
 219 662 l 1
315 326 m 1
 239 78 l 2
 229 46 240 37 289 37 c 0
 355 37 399 45 436 63 c 0
 483 86 516 125 533 179 c 0
 552 242 537 282 488 306 c 0
 456 321 412 326 315 326 c 1
327 366 m 1
 422 366 l 2
 516 366 582 410 606 488 c 0
 633 577 587 625 472 625 c 2
 428 625 l 2
 413 625 403 616 397 595 c 2
 327 366 l 1
EndSplineSet
EndChar

StartChar: C
Encoding: 67 67 135
Width: 667
Flags: W
HStem: -14 44<356 401> 450 193<734 758> 636 40<555 589>
LayerCount: 2
Fore
SplineSet
758 450 m 1xc0
 735 450 l 1xc0
 735 515 729 543 707 575 c 0
 679 615 633 636 576 636 c 0
 431 636 303 519 247 338 c 0
 213 227 217 137 257 88 c 0
 288 50 338 30 401 30 c 0
 484 30 559 60 655 131 c 1
 668 113 l 1
 582 32 469 -14 356 -14 c 0
 257 -14 176 24 136 89 c 0
 103 146 99 232 127 325 c 0
 161 435 227 528 316 590 c 0
 395 645 488 676 570 676 c 0xa0
 617 676 664 668 708 652 c 0
 722 646 736 643 745 643 c 0xc0
 765 643 784 655 797 676 c 1
 818 676 l 1xa0
 758 450 l 1xc0
EndSplineSet
EndChar

StartChar: D
Encoding: 68 68 136
Width: 722
Flags: W
HStem: 0 37<255 305> 625 37<218 480>
LayerCount: 2
Fore
SplineSet
137 109 m 2
 273 553 l 2
 296 627 289 636 213 643 c 1
 218 662 l 1
 488 662 l 2
 625 662 723 626 770 557 c 0
 808 502 815 424 787 334 c 0
 757 237 693 148 610 89 c 0
 531 33 416 0 300 0 c 2
 16 0 l 1
 22 19 l 1
 99 24 115 37 137 109 c 2
385 586 m 2
 230 78 l 2
 220 46 229 37 269 37 c 0
 356 37 418 49 478 78 c 0
 573 125 640 209 676 327 c 0
 709 435 694 521 633 575 c 0
 595 609 535 625 449 625 c 0
 408 625 395 617 385 586 c 2
EndSplineSet
EndChar

StartChar: E
Encoding: 69 69 137
Width: 611
Flags: W
HStem: 0 37<283 552> 327 41<314 477> 443 20G<607 630> 519 143<214 705> 624 38<214 589>
LayerCount: 2
Fore
SplineSet
649 169 m 1xe8
 552 0 l 1
 12 0 l 1
 18 19 l 1
 92 24 111 39 132 109 c 2
 268 553 l 2
 289 623 281 637 209 643 c 1
 214 662 l 1xf0
 745 662 l 1xe8
 705 519 l 1
 680 519 l 1xf0
 690 609 673 624 560 624 c 2
 425 624 l 2
 398 624 390 618 381 590 c 2
 314 368 l 1
 468 368 l 2
 515 368 545 376 563 393 c 0
 578 407 587 422 607 463 c 1
 630 463 l 1
 559 231 l 1
 536 231 l 1
 548 314 537 327 455 327 c 2
 301 327 l 1
 225 80 l 2
 220 63 219 52 223 49 c 1
 228 42 268 37 317 37 c 2
 344 37 l 2
 487 37 538 61 621 169 c 1
 649 169 l 1xe8
EndSplineSet
EndChar

StartChar: F
Encoding: 70 70 138
Width: 556
Flags: W
HStem: 0 21G<12 292> 327 41<314 461> 443 20G<598 621> 519 143<214 705> 624 38<214 600>
LayerCount: 2
Fore
SplineSet
550 231 m 1xe8
 527 231 l 1
 539 312 527 327 446 327 c 2
 301 327 l 1
 234 109 l 2
 212 37 222 23 298 19 c 1
 292 0 l 1
 12 0 l 1
 18 19 l 1
 95 24 110 37 136 120 c 2
 268 553 l 2
 289 623 281 637 209 643 c 1
 214 662 l 1xf0
 745 662 l 1xe8
 705 519 l 1
 680 519 l 1xf0
 690 609 673 624 560 624 c 2
 424 624 l 2
 397 624 390 618 381 590 c 2
 314 368 l 1
 459 368 l 2
 539 368 561 383 598 463 c 1
 621 463 l 1
 550 231 l 1xe8
EndSplineSet
EndChar

StartChar: G
Encoding: 71 71 139
Width: 722
Flags: W
HStem: -14 40<384 417> 465 178<748 772> 636 40<563 608>
LayerCount: 2
Fore
SplineSet
817 354 m 1xa0
 812 336 l 1
 752 331 736 318 718 259 c 2
 656 56 l 1
 605 21 470 -14 384 -14 c 0
 274 -14 189 24 143 93 c 0
 105 152 101 227 131 325 c 0
 194 529 382 676 582 676 c 0xa0
 627 676 670 668 711 653 c 0
 727 646 742 643 752 643 c 0xc0
 773 643 795 657 807 676 c 1
 829 676 l 1xa0
 772 465 l 1
 749 465 l 1xc0
 743 526 735 553 714 581 c 0
 686 617 642 636 586 636 c 0
 518 636 448 609 389 560 c 0
 330 511 274 420 246 326 c 0
 189 140 254 26 417 26 c 0
 489 26 558 53 568 85 c 2
 618 247 l 2
 631 290 632 313 619 322 c 0
 610 330 599 333 557 336 c 1
 562 354 l 1
 817 354 l 1xa0
EndSplineSet
EndChar

StartChar: H
Encoding: 72 72 140
Width: 722
Flags: W
HStem: 315 44<319 608>
LayerCount: 2
Fore
SplineSet
319 359 m 1
 622 359 l 1
 681 553 l 2
 703 625 695 636 621 643 c 1
 626 662 l 1
 904 662 l 1
 899 643 l 1
 819 636 805 625 783 553 c 2
 647 109 l 2
 626 38 635 25 708 19 c 1
 702 0 l 1
 424 0 l 1
 430 19 l 1
 509 24 523 36 549 120 c 2
 608 315 l 1
 305 315 l 1
 242 109 l 2
 221 38 230 25 303 19 c 1
 297 0 l 1
 19 0 l 1
 25 19 l 1
 104 24 118 36 144 120 c 2
 276 553 l 2
 298 625 290 636 216 643 c 1
 221 662 l 1
 499 662 l 1
 494 643 l 1
 414 636 400 625 378 553 c 2
 319 359 l 1
EndSplineSet
EndChar

StartChar: I
Encoding: 73 73 141
Width: 333
Flags: W
HStem: 0 21G<18 315> 642 20G<220 517>
LayerCount: 2
Fore
SplineSet
148 109 m 2
 284 553 l 2
 307 627 298 638 215 643 c 1
 220 662 l 1
 517 662 l 1
 512 643 l 1
 426 639 408 626 386 553 c 2
 250 109 l 2
 228 36 240 22 321 19 c 1
 315 0 l 1
 18 0 l 1
 24 19 l 1
 109 22 125 34 148 109 c 2
EndSplineSet
EndChar

StartChar: J
Encoding: 74 74 142
Width: 389
Flags: W
HStem: -14 122<88 105> 642 20G<285 572>
LayerCount: 2
Fore
SplineSet
447 553 m 2
 334 183 l 2
 296 58 213 -14 105 -14 c 0
 47 -14 15 16 28 58 c 0
 36 85 65 108 92 108 c 0
 118 108 129 92 128 57 c 0
 128 32 131 24 145 24 c 0
 171 24 190 45 204 90 c 2
 345 553 l 2
 367 626 360 637 280 643 c 1
 285 662 l 1
 572 662 l 1
 567 643 l 1
 484 637 469 626 447 553 c 2
EndSplineSet
EndChar

StartChar: K
Encoding: 75 75 143
Width: 722
Flags: W
HStem: 0 20<424 723> 642 20<614 635>
LayerCount: 2
Fore
SplineSet
610 643 m 1
 615 662 l 1
 877 662 l 1
 872 643 l 1
 802 638 784 630 696 565 c 1
 448 377 l 1
 605 127 l 2
 666 30 677 20 729 19 c 1
 723 0 l 1
 418 0 l 1
 424 19 l 1
 436 20 447 20 452 20 c 0
 480 21 497 28 501 42 c 0
 508 66 476 137 423 212 c 2
 349 317 l 1
 316 296 l 1
 259 109 l 2
 237 36 245 24 322 19 c 1
 316 0 l 1
 34 0 l 1
 40 19 l 1
 120 24 135 37 161 120 c 2
 293 553 l 2
 315 624 307 637 231 643 c 1
 236 662 l 1
 520 662 l 1
 515 643 l 1
 432 637 417 626 395 553 c 2
 332 348 l 1
 559 509 l 2
 629 560 661 590 668 612 c 0
 674 632 665 640 635 642 c 0
 631 642 621 642 610 643 c 1
EndSplineSet
EndChar

StartChar: L
Encoding: 76 76 144
Width: 611
Flags: W
HStem: 0 39<266 550> 642 20G<214 496>
LayerCount: 2
Fore
SplineSet
626 174 m 1
 651 174 l 1
 550 0 l 1
 12 0 l 1
 18 19 l 1
 92 24 111 39 132 109 c 2
 268 553 l 2
 289 623 281 637 209 643 c 1
 214 662 l 1
 496 662 l 1
 491 643 l 1
 410 638 392 624 370 553 c 2
 225 80 l 2
 215 45 226 39 299 39 c 2
 366 39 l 2
 449 39 509 57 556 96 c 0
 577 113 598 136 626 174 c 1
EndSplineSet
EndChar

StartChar: M
Encoding: 77 77 145
Width: 889
Flags: W
HStem: 0 21G<12 247 404 418 583 863> 642 20G<216 414 866 1065>
LayerCount: 2
Fore
SplineSet
849 573 m 1
 418 0 l 1
 404 0 l 1
 321 550 l 1
 198 147 l 2
 167 46 177 23 253 19 c 1
 247 0 l 1
 12 0 l 1
 18 19 l 1
 103 25 122 44 154 147 c 2
 278 553 l 2
 300 626 291 638 211 643 c 1
 216 662 l 1
 414 662 l 1
 491 157 l 1
 866 662 l 1
 1065 662 l 1
 1060 643 l 1
 984 637 967 624 945 553 c 2
 809 109 l 2
 788 38 797 24 869 19 c 1
 863 0 l 1
 583 0 l 1
 589 19 l 1
 669 24 685 37 711 120 c 2
 849 573 l 1
EndSplineSet
EndChar

StartChar: N
Encoding: 78 78 146
Width: 722
Flags: W
HStem: -11 21G<592 609> 643 19<214 230.039>
LayerCount: 2
Fore
SplineSet
609 -11 m 1
 592 -11 l 1
 318 539 l 1
 198 147 l 2
 167 46 177 23 253 19 c 1
 247 0 l 1
 12 0 l 1
 18 19 l 1
 103 25 122 44 154 147 c 2
 289 588 l 1
 263 635 252 643 209 643 c 1
 214 662 l 1
 385 662 l 1
 622 178 l 1
 725 515 l 2
 744 577 746 613 731 627 c 0
 718 636 706 640 669 643 c 1
 674 662 l 1
 909 662 l 1
 904 643 l 1
 864 639 849 635 832 625 c 0
 809 612 788 575 769 515 c 2
 609 -11 l 1
EndSplineSet
EndChar

StartChar: O
Encoding: 79 79 147
Width: 722
Flags: W
HStem: -14 36<349 373> 640 36<547 570>
LayerCount: 2
Fore
SplineSet
568 676 m 0
 664 676 737 640 779 571 c 0
 815 511 818 426 788 327 c 0
 727 126 548 -14 351 -14 c 0
 263 -14 186 25 147 88 c 0
 111 146 106 237 135 331 c 0
 197 532 377 676 568 676 c 0
557 640 m 0
 502 640 446 618 394 575 c 0
 337 528 280 431 249 329 c 0
 215 218 217 117 255 71 c 0
 280 40 320 22 366 22 c 0
 419 22 469 40 515 75 c 0
 545 98 570 123 586 148 c 0
 622 200 656 269 674 328 c 0
 711 447 708 541 669 590 c 0
 643 622 603 640 557 640 c 0
EndSplineSet
EndChar

StartChar: P
Encoding: 80 80 148
Width: 556
Flags: W
HStem: 0 21G<16 296> 288 40<359 385> 625 37<218 449>
LayerCount: 2
Fore
SplineSet
291 291 m 1
 235 109 l 2
 213 36 224 22 302 19 c 1
 296 0 l 1
 16 0 l 1
 22 19 l 1
 100 26 111 36 137 120 c 2
 269 553 l 2
 291 625 284 635 213 643 c 1
 218 662 l 1
 482 662 l 2
 576 662 655 634 681 590 c 0
 700 561 702 523 689 481 c 0
 669 415 614 354 544 322 c 0
 494 298 437 288 359 288 c 0
 333 288 316 289 291 291 c 1
383 591 m 2
 303 331 l 1
 326 329 339 328 359 328 c 0
 474 328 549 378 578 475 c 0
 610 578 562 625 427 625 c 0
 400 625 391 618 383 591 c 2
EndSplineSet
EndChar

StartChar: Q
Encoding: 81 81 149
Width: 722
Flags: W
HStem: -178 200<368 606> 640 36<546 570>
LayerCount: 2
Fore
SplineSet
652 -159 m 1
 647 -177 l 1
 641 -177 l 2
 630 -178 621 -178 606 -178 c 0
 447 -178 339 -135 295 -56 c 2
 265 -1 l 1
 201 23 175 43 149 85 c 0
 110 149 105 231 135 329 c 0
 197 532 377 676 568 676 c 0
 759 676 851 532 789 331 c 0
 755 220 689 129 595 63 c 0
 537 23 496 6 424 -7 c 1
 473 -112 539 -156 652 -159 c 1
560 640 m 0
 502 640 448 619 394 575 c 0
 339 529 280 431 250 335 c 0
 215 218 216 118 255 71 c 0
 281 39 320 22 368 22 c 0
 423 22 482 45 531 86 c 0
 585 132 646 234 676 333 c 0
 710 446 708 542 668 590 c 0
 643 621 603 640 560 640 c 0
EndSplineSet
EndChar

StartChar: R
Encoding: 82 82 150
Width: 667
Flags: W
HStem: 0 21G<17 294 498 659> 625 37<219 466>
LayerCount: 2
Fore
SplineSet
665 19 m 1
 659 0 l 1
 498 0 l 1
 354 308 l 1
 298 306 l 1
 237 109 l 2
 215 37 224 24 300 19 c 1
 294 0 l 1
 17 0 l 1
 23 19 l 1
 100 25 113 37 139 120 c 2
 271 553 l 2
 293 624 286 635 214 643 c 1
 219 662 l 1
 495 662 l 2
 589 662 664 636 690 595 c 0
 707 566 709 529 696 486 c 0
 681 439 649 397 609 371 c 0
 568 344 535 332 464 319 c 1
 592 66 l 1
 611 32 628 22 665 19 c 1
384 589 m 2
 309 343 l 1
 405 345 442 351 496 377 c 0
 538 396 572 438 587 488 c 0
 616 582 571 625 446 625 c 0
 406 625 393 617 384 589 c 2
EndSplineSet
EndChar

StartChar: S
Encoding: 83 83 151
Width: 556
Flags: W
HStem: -13 21G<68 90> 20 2<128 274> 20 179<103 128> 463 179<585 611> 635 41<437 469>
LayerCount: 2
Fore
SplineSet
654 676 m 1x88
 611 463 l 1
 586 463 l 1x90
 588 522 582 548 560 580 c 0
 536 616 500 635 455 635 c 0
 393 635 340 597 323 542 c 0
 306 488 335 444 422 386 c 0
 532 315 567 250 542 168 c 0
 511 65 398 -14 283 -14 c 0
 243 -14 205 -6 172 9 c 0
 155 16 139 20 128 20 c 0xc8
 113 20 97 6 90 -13 c 1
 68 -13 l 1
 103 199 l 1
 126 199 l 1xa0
 139 77 185 22 274 22 c 0
 347 22 411 68 431 135 c 0
 439 159 440 180 435 193 c 0
 422 231 382 272 322 310 c 0
 228 369 201 425 225 505 c 0
 241 557 272 599 317 630 c 0
 358 659 408 676 451 676 c 0xc8
 483 676 517 668 550 654 c 1
 565 646 580 642 590 642 c 0x90
 607 642 622 653 633 676 c 1
 654 676 l 1x88
EndSplineSet
EndChar

StartChar: T
Encoding: 84 84 152
Width: 611
Flags: W
HStem: 0 21G<160 452> 620 42<225 444 225 625>
LayerCount: 2
Fore
SplineSet
444 620 m 1
 390 620 l 2
 278 620 249 601 191 492 c 1
 167 492 l 1
 225 662 l 1
 789 662 l 1
 743 492 l 1
 719 492 l 1
 730 602 714 620 600 620 c 2
 546 620 l 1
 389 109 l 2
 367 36 377 23 458 19 c 1
 452 0 l 1
 160 0 l 1
 166 19 l 1
 250 24 265 35 291 120 c 2
 444 620 l 1
EndSplineSet
EndChar

StartChar: U
Encoding: 85 85 153
Width: 722
Flags: W
HStem: -14 44<351 387> 642 20G<216 499 675 907>
LayerCount: 2
Fore
SplineSet
768 515 m 2
 689 254 l 2
 665 177 642 131 605 89 c 0
 545 21 460 -14 351 -14 c 0
 181 -14 125 68 178 241 c 2
 273 553 l 2
 295 626 288 637 211 643 c 1
 216 662 l 1
 499 662 l 1
 494 643 l 1
 411 636 397 625 375 553 c 2
 277 233 l 2
 258 170 254 133 262 101 c 0
 275 54 316 30 387 30 c 0
 462 30 536 61 577 109 c 0
 602 139 621 177 642 245 c 2
 724 515 l 2
 755 615 746 637 670 643 c 1
 675 662 l 1
 907 662 l 1
 902 643 l 1
 817 633 800 617 768 515 c 2
EndSplineSet
EndChar

StartChar: V
Encoding: 86 86 154
Width: 722
Flags: W
HStem: -11 21G<365 380> 641 21<218 454>
LayerCount: 2
Fore
SplineSet
899 662 m 1
 894 643 l 1
 845 640 830 629 773 550 c 1
 380 -11 l 1
 365 -11 l 1
 286 538 l 1
 271 627 261 641 213 643 c 1
 218 662 l 1
 484 662 l 1
 479 643 l 1
 464 642 453 641 449 641 c 0
 416 639 399 629 393 610 c 0
 389 595 390 572 401 499 c 2
 448 161 l 1
 707 528 l 2
 729 558 744 585 749 601 c 0
 757 629 743 640 689 643 c 1
 694 662 l 1
 899 662 l 1
EndSplineSet
EndChar

StartChar: W
Encoding: 87 87 155
Width: 944
Flags: W
HStem: -11 21G<298 313 627 642> 643 19<510 523 515 777>
LayerCount: 2
Fore
SplineSet
1134 662 m 1
 1129 643 l 1
 1073 633 1059 624 1024 572 c 0
 825 278 806 250 642 -11 c 1
 627 -11 l 1
 596 412 l 1
 313 -11 l 1
 298 -11 l 1
 269 526 l 1
 261 620 251 638 202 643 c 1
 207 662 l 1
 452 662 l 1
 447 643 l 1
 395 640 379 633 372 611 c 0
 368 600 367 583 369 565 c 2
 398 189 l 1
 591 471 l 1
 583 553 l 1
 574 633 566 642 510 643 c 1
 515 662 l 1
 782 662 l 1
 777 643 l 1
 722 642 696 632 689 608 c 0
 686 597 686 578 688 557 c 0
 688 554 691 532 691 527 c 2
 719 186 l 1
 948 525 l 2
 966 553 980 579 986 600 c 0
 995 627 980 638 931 643 c 1
 936 662 l 1
 1134 662 l 1
EndSplineSet
EndChar

StartChar: X
Encoding: 88 88 156
Width: 722
Flags: W
HStem: 0 21<424 704> 642 20G<224 526 660 898>
LayerCount: 2
Fore
SplineSet
898 662 m 1
 893 643 l 1
 827 639 804 627 715 549 c 1
 513 367 l 1
 621 93 l 1
 647 35 659 25 710 19 c 1
 704 0 l 1
 407 0 l 1
 413 19 l 1
 425 20 436 21 440 21 c 0
 475 22 494 32 499 50 c 0
 504 65 496 99 478 148 c 2
 426 288 l 1
 262 140 l 2
 211 94 188 69 184 54 c 0
 176 31 192 23 249 19 c 1
 243 0 l 1
 10 0 l 1
 16 19 l 1
 68 23 74 27 196 133 c 1
 412 326 l 1
 352 486 l 1
 296 625 283 640 219 643 c 1
 224 662 l 1
 526 662 l 1
 521 643 l 1
 492 642 l 2
 459 641 442 633 435 613 c 0
 429 591 440 548 475 463 c 2
 499 404 l 1
 654 542 l 2
 694 578 710 596 715 611 c 0
 722 634 708 641 655 643 c 1
 660 662 l 1
 898 662 l 1
EndSplineSet
EndChar

StartChar: Y
Encoding: 89 89 157
Width: 722
Flags: W
HStem: 0 19<500 526> 642 20<224 500 681 695>
LayerCount: 2
Fore
SplineSet
905 662 m 1
 900 643 l 1
 847 639 815 617 727 529 c 1
 510 303 l 1
 450 109 l 2
 427 33 437 21 526 19 c 1
 520 0 l 1
 214 0 l 1
 220 19 l 1
 312 23 325 33 352 120 c 2
 405 294 l 1
 333 486 l 1
 276 627 266 641 219 643 c 1
 224 662 l 1
 504 662 l 1
 499 643 l 1
 487 642 477 642 473 642 c 0
 441 640 424 631 418 613 c 0
 415 602 416 585 422 569 c 2
 502 347 l 1
 714 573 l 2
 728 588 736 600 739 610 c 0
 747 634 732 642 681 643 c 1
 686 662 l 1
 905 662 l 1
EndSplineSet
EndChar

StartChar: Z
Encoding: 90 90 158
Width: 611
Flags: W
HStem: 0 38<157 573> 624 38<253 637>
LayerCount: 2
Fore
SplineSet
628 176 m 1
 651 176 l 1
 573 0 l 1
 9 0 l 1
 14 15 l 1
 637 624 l 1
 416 624 l 2
 350 624 300 610 269 581 c 0
 245 560 231 540 207 491 c 1
 181 491 l 1
 253 662 l 1
 779 662 l 1
 775 647 l 1
 157 38 l 1
 414 38 l 2
 471 38 519 52 551 77 c 0
 577 99 594 120 628 176 c 1
EndSplineSet
EndChar

StartChar: AE
Encoding: 198 198 159
Width: 889
Flags: W
HStem: 0 38<543 819> 260 39<330 477> 329 37<609 753> 443 20G<882 903> 521 141<454 975> 626 36<454 849>
LayerCount: 2
Fore
SplineSet
975 521 m 1xf8
 952 521 l 1xf8
 967 612 948 626 802 626 c 2
 715 626 l 2xf4
 696 626 686 618 679 596 c 2
 609 366 l 1
 720 366 l 2
 783 366 821 375 843 396 c 0
 858 411 866 426 882 463 c 1
 903 463 l 1
 831 229 l 1
 810 229 l 1
 818 270 818 285 812 301 c 0
 805 319 781 329 743 329 c 2
 598 329 l 1
 525 91 l 2
 510 41 513 38 578 38 c 2
 654 38 l 2
 762 38 799 58 890 168 c 1
 914 168 l 1
 819 0 l 1
 309 0 l 1
 315 19 l 1
 332 21 l 2
 395 28 411 42 431 108 c 2
 477 260 l 1
 301 260 l 1
 257 207 l 2
 193 129 152 71 145 49 c 0
 140 34 162 23 204 19 c 2
 205 19 l 1
 199 0 l 1
 0 0 l 1
 6 19 l 1
 51 25 66 36 118 97 c 1
 511 581 l 2
 520 592 526 603 528 609 c 0
 535 631 513 640 448 642 c 1
 454 662 l 1xf8
 1018 662 l 1xf4
 975 521 l 1xf8
330 299 m 1
 489 299 l 1
 587 618 l 1
 330 299 l 1
EndSplineSet
EndChar

StartChar: OE
Encoding: 338 338 160
Width: 889
Flags: W
HStem: 0 38<585 841> 329 37<643 779> 444 20G<909 930> 521 141<714 997> 626 36<714 875>
LayerCount: 2
Fore
SplineSet
997 521 m 1xf0
 974 521 l 1xf0
 989 610 969 626 838 626 c 2
 787 626 l 2xe8
 731 626 721 623 715 602 c 2
 643 366 l 1
 747 366 l 2
 809 366 848 376 869 397 c 0
 885 412 895 427 909 464 c 1
 930 464 l 1
 858 230 l 1
 837 230 l 1
 852 309 839 329 770 329 c 2
 632 329 l 1
 557 84 l 2
 545 47 554 37 599 38 c 2
 723 40 l 2
 787 42 832 73 912 168 c 1
 936 168 l 1
 841 0 l 1
 491 0 l 2
 470 0 409 -2 369 -4 c 0
 345 -5 324 -6 310 -6 c 0
 236 -6 176 21 142 71 c 0
 100 130 95 214 128 322 c 0
 164 437 231 537 312 593 c 0
 382 642 463 668 546 668 c 0
 560 668 563 668 610 665 c 0
 628 664 693 662 714 662 c 2xf0
 1040 662 l 1xe8
 997 521 l 1xf0
471 131 m 2
 592 527 l 2
 614 600 594 632 525 632 c 0
 404 632 301 521 241 325 c 0
 183 135 218 31 340 31 c 0
 411 31 449 60 471 131 c 2
EndSplineSet
EndChar

StartChar: Oslash
Encoding: 216 216 161
Width: 722
Flags: W
HStem: -14 36<351 370> 640 36<543 577>
LayerCount: 2
Fore
SplineSet
882 734 m 1
 755 604 l 1
 784 566 795 546 802 511 c 0
 814 461 809 396 789 331 c 0
 727 128 549 -14 355 -14 c 0
 288 -14 246 -1 195 36 c 1
 81 -80 l 1
 32 -80 l 1
 169 59 l 1
 139 97 129 117 121 152 c 0
 111 202 116 267 135 330 c 0
 197 533 377 676 569 676 c 0
 635 676 676 663 729 627 c 1
 833 734 l 1
 882 734 l 1
692 540 m 1
 246 88 l 1
 275 41 310 22 368 22 c 0
 500 22 616 139 675 330 c 0
 702 419 706 475 692 540 c 1
232 123 m 1
 678 575 l 1
 648 621 612 640 557 640 c 0
 426 640 307 521 249 330 c 0
 222 242 217 187 232 123 c 1
EndSplineSet
EndChar

StartChar: Eth
Encoding: 208 208 162
Width: 722
Flags: W
HStem: 0 37<255 304> 315 44<130 200 316 448> 625 37<218 480>
LayerCount: 2
Fore
SplineSet
200 315 m 1
 117 315 l 1
 131 359 l 1
 214 359 l 1
 273 553 l 2
 296 627 289 636 213 643 c 1
 218 662 l 1
 488 662 l 2
 625 662 723 626 770 557 c 0
 808 502 815 424 787 334 c 0
 757 237 693 148 610 89 c 0
 531 33 416 0 300 0 c 2
 16 0 l 1
 22 19 l 1
 99 24 115 37 137 109 c 2
 200 315 l 1
462 359 m 1
 448 315 l 1
 302 315 l 1
 230 78 l 2
 220 46 229 37 269 37 c 0
 356 37 418 49 478 78 c 0
 573 125 640 209 676 327 c 0
 709 435 694 521 633 575 c 0
 595 609 536 625 447 625 c 0
 407 625 395 617 385 586 c 2
 316 359 l 1
 462 359 l 1
EndSplineSet
EndChar

StartChar: Dcroat
Encoding: 272 272 163
Width: 722
Flags: W
HStem: 0 37<255 304> 315 44<130 200 316 448> 625 37<218 480>
LayerCount: 2
Fore
SplineSet
200 315 m 1
 117 315 l 1
 131 359 l 1
 214 359 l 1
 273 553 l 2
 296 627 289 636 213 643 c 1
 218 662 l 1
 488 662 l 2
 625 662 723 626 770 557 c 0
 808 502 815 424 787 334 c 0
 757 237 693 148 610 89 c 0
 531 33 416 0 300 0 c 2
 16 0 l 1
 22 19 l 1
 99 24 115 37 137 109 c 2
 200 315 l 1
462 359 m 1
 448 315 l 1
 302 315 l 1
 230 78 l 2
 220 46 229 37 269 37 c 0
 356 37 418 49 478 78 c 0
 573 125 640 209 676 327 c 0
 709 435 694 521 633 575 c 0
 595 609 536 625 447 625 c 0
 407 625 395 617 385 586 c 2
 316 359 l 1
 462 359 l 1
EndSplineSet
EndChar

StartChar: Lslash
Encoding: 321 321 164
Width: 611
Flags: W
HStem: 0 39<266 550> 642 20G<214 496>
LayerCount: 2
Fore
SplineSet
198 325 m 1
 268 553 l 2
 289 623 281 637 209 643 c 1
 214 662 l 1
 496 662 l 1
 491 643 l 1
 410 638 392 624 370 553 c 2
 318 384 l 1
 501 473 l 1
 486 424 l 1
 303 335 l 1
 225 80 l 2
 215 45 226 39 299 39 c 2
 366 39 l 2
 449 39 509 57 556 96 c 0
 577 113 598 136 626 174 c 1
 651 174 l 1
 550 0 l 1
 12 0 l 1
 18 19 l 1
 92 24 111 39 132 109 c 2
 183 276 l 1
 81 226 l 1
 96 275 l 1
 198 325 l 1
EndSplineSet
EndChar

StartChar: Thorn
Encoding: 222 222 165
Width: 556
Flags: W
HStem: 0 21G<16 296> 158 40<294 345> 494 38<365 417> 642 20G<218 495>
LayerCount: 2
Fore
SplineSet
495 662 m 1
 490 643 l 1
 405 636 391 623 365 532 c 1
 445 532 l 2
 605 532 683 462 649 351 c 0
 629 285 573 224 505 192 c 0
 454 168 397 158 319 158 c 0
 295 158 278 159 251 161 c 1
 235 109 l 2
 213 36 224 22 302 19 c 1
 296 0 l 1
 16 0 l 1
 22 19 l 1
 100 26 111 36 137 120 c 2
 269 553 l 2
 291 625 284 635 213 643 c 1
 218 662 l 1
 495 662 l 1
343 461 m 2
 263 201 l 1
 286 199 300 198 320 198 c 0
 435 198 509 248 538 345 c 0
 570 448 523 494 385 494 c 0
 360 494 351 487 343 461 c 2
EndSplineSet
EndChar

StartChar: a
Encoding: 97 97 166
Width: 444
Flags: W
HStem: -10 58<139 203> 436 24<342 365>
LayerCount: 2
Fore
SplineSet
462 66 m 1
 454 40 l 1
 408 2 383 -10 349 -10 c 0
 308 -10 296 11 307 63 c 1
 230 11 183 -10 139 -10 c 0
 78 -10 47 34 67 97 c 0
 77 130 101 164 129 184 c 0
 184 222 203 230 376 292 c 1
 395 353 l 2
 411 407 393 436 344 436 c 0
 304 436 266 414 257 387 c 0
 255 380 254 372 253 363 c 0
 252 356 251 351 250 347 c 0
 243 325 216 305 192 305 c 0
 169 305 155 325 162 348 c 0
 182 411 271 460 365 460 c 0
 424 460 461 441 472 405 c 0
 479 381 476 352 460 300 c 2
 400 105 l 2
 387 61 389 47 412 47 c 0
 427 47 441 52 462 66 c 1
325 123 m 2
 369 268 l 1
 234 224 182 188 164 129 c 2
 163 125 l 2
 150 82 168 48 203 48 c 0
 224 48 254 57 283 71 c 0
 307 83 315 92 325 123 c 2
EndSplineSet
EndChar

StartChar: b
Encoding: 98 98 167
Width: 500
Flags: W
HStem: -10 32<231 257> 397 63<373 433>
LayerCount: 2
Fore
SplineSet
361 681 m 1
 268 375 l 1
 303 424 372 460 433 460 c 0
 533 460 580 366 542 243 c 0
 499 100 363 -10 231 -10 c 0
 151 -10 76 23 86 54 c 2
 244 573 l 2
 257 615 251 624 211 624 c 0
 204 624 200 624 193 623 c 1
 198 639 l 1
 230 647 l 2
 281 660 310 668 357 683 c 1
 361 681 l 1
251 322 m 2
 174 70 l 2
 167 45 205 22 257 22 c 0
 339 22 406 86 440 197 c 0
 478 319 451 397 373 397 c 0
 321 397 263 361 251 322 c 2
EndSplineSet
EndChar

StartChar: c
Encoding: 99 99 168
Width: 444
Flags: W
HStem: -10 72<212 276> 431 29<368 385>
LayerCount: 2
Fore
SplineSet
446 156 m 1
 457 147 l 1
 409 88 382 61 347 37 c 0
 302 6 257 -10 212 -10 c 0
 101 -10 50 83 90 213 c 0
 114 292 163 360 227 404 c 0
 279 440 336 460 385 460 c 0
 469 460 524 413 507 357 c 0
 500 334 472 315 446 315 c 0
 425 315 413 333 413 361 c 2
 414 383 l 2
 415 420 406 431 370 431 c 0
 289 431 212 360 181 257 c 0
 145 142 185 62 276 62 c 0
 333 62 376 86 446 156 c 1
EndSplineSet
EndChar

StartChar: d
Encoding: 100 100 169
Width: 500
Flags: W
HStem: -10 52<209 264> 432 28<357 381>
LayerCount: 2
Fore
SplineSet
341 -10 m 1
 338 -7 l 1
 357 57 l 1
 309 10 265 -10 209 -10 c 0
 99 -10 51 77 90 205 c 0
 133 347 261 460 376 460 c 0
 416 460 439 449 467 417 c 1
 515 573 l 2
 528 614 522 624 485 624 c 0
 477 624 471 624 462 623 c 1
 467 639 l 1
 537 656 575 666 628 683 c 1
 632 681 l 1
 459 114 l 2
 445 68 449 57 485 57 c 0
 488 57 490 57 509 58 c 1
 504 42 l 1
 341 -10 l 1
371 102 m 2
 442 332 l 2
 458 385 423 432 370 432 c 0
 294 432 222 358 188 245 c 0
 150 122 181 42 264 42 c 0
 293 42 321 52 345 72 c 0
 358 83 369 95 371 102 c 2
EndSplineSet
EndChar

StartChar: e
Encoding: 101 101 170
Width: 444
Flags: W
HStem: -10 69<209 271> 277 32<193 490> 424 36<335 375>
LayerCount: 2
Fore
SplineSet
458 164 m 1
 472 157 l 1
 397 49 304 -10 209 -10 c 0
 94 -10 48 76 90 214 c 0
 115 296 164 367 224 408 c 0
 272 442 325 460 375 460 c 0
 427 460 466 439 485 403 c 0
 500 371 502 342 490 277 c 1
 182 277 l 1
 165 216 162 183 168 145 c 0
 180 88 214 59 271 59 c 0
 335 59 387 88 458 164 c 1
193 309 m 1
 397 309 l 1
 411 396 396 424 335 424 c 0
 274 424 228 387 193 309 c 1
EndSplineSet
EndChar

StartChar: f
Encoding: 102 102 171
Width: 333
Flags: W
HStem: 0 21G<20 280> 418 32<158 231 324 437> 580 103<488 518>
LayerCount: 2
Fore
SplineSet
447 450 m 1
 437 418 l 1
 315 418 l 1
 219 104 l 2
 196 29 204 18 285 15 c 1
 280 0 l 1
 20 0 l 1
 25 15 l 1
 98 19 112 31 135 104 c 2
 231 418 l 1
 149 418 l 1
 159 450 l 1
 241 450 l 1
 266 530 285 566 324 610 c 0
 365 656 426 683 488 683 c 0
 548 683 584 657 573 621 c 0
 566 598 541 580 518 580 c 0
 501 580 492 590 484 616 c 0
 475 645 464 655 443 655 c 0
 405 655 377 624 359 566 c 2
 324 450 l 1
 447 450 l 1
EndSplineSet
EndChar

StartChar: g
Encoding: 103 103 172
Width: 500
Flags: W
HStem: -218 57<134 195> -35 20G<279.5 349.5> 149 25<294 309> 388 39<506 589> 432 28<357 377>
LayerCount: 2
Fore
SplineSet
589 388 m 1
 506 388 l 1
 510 356 508 333 499 304 c 0
 484 254 458 219 416 191 c 0
 377 164 333 149 296 149 c 0
 290 149 277 150 258 152 c 0
 255 152 249 153 240 154 c 1
 211 146 167 111 161 91 c 0
 156 75 178 66 231 64 c 2
 358 58 l 2
 431 55 465 13 446 -49 c 0
 434 -87 408 -119 360 -150 c 0
 295 -192 209 -218 134 -218 c 0
 39 -218 -25 -174 -9 -121 c 0
 2 -84 39 -51 126 1 c 1
 91 21 83 33 90 54 c 0
 96 74 115 94 157 123 c 0
 164 128 187 145 212 163 c 1
 156 196 141 234 160 297 c 0
 188 388 284 460 377 460 c 0
 403 460 428 455 452 445 c 2
 472 437 l 2
 489 430 504 427 524 427 c 2
 601 427 l 1
 589 388 l 1
146 -2 m 1
 89 -52 78 -65 71 -88 c 0
 58 -132 107 -161 195 -161 c 0
 308 -161 396 -122 413 -64 c 0
 424 -28 395 -15 304 -15 c 0
 255 -15 177 -9 146 -2 c 1
255 338 m 2
 254 335 l 2
 225 239 247 174 307 174 c 0
 353 174 393 209 410 265 c 0
 422 304 424 350 417 385 c 0
 410 415 389 432 358 432 c 0
 312 432 273 397 255 338 c 2
EndSplineSet
EndChar

StartChar: h
Encoding: 104 104 173
Width: 500
Flags: W
HStem: 0 21G<9 225 275 487> 406 54<392 445>
LayerCount: 2
Fore
SplineSet
262 343 m 1
 188 102 l 2
 167 33 173 21 230 15 c 1
 225 0 l 1
 9 0 l 1
 14 15 l 1
 74 23 83 32 104 102 c 2
 248 573 l 2
 261 616 256 624 213 624 c 0
 208 624 205 624 200 623 c 1
 205 639 l 1
 235 647 l 2
 296 663 323 671 361 683 c 1
 365 680 l 1
 272 376 l 1
 336 436 386 460 445 460 c 0
 526 460 551 406 519 301 c 2
 458 102 l 2
 437 33 441 25 492 15 c 1
 487 0 l 1
 275 0 l 1
 280 15 l 1
 339 21 353 34 374 102 c 2
 435 300 l 2
 456 370 442 406 392 406 c 0
 353 406 318 389 262 343 c 1
EndSplineSet
EndChar

StartChar: i
Encoding: 105 105 174
Width: 278
Flags: W
HStem: 0 21G<16 253> 581 102<306 337>
LayerCount: 2
Fore
SplineSet
316 460 m 1
 319 457 l 1
 210 102 l 2
 188 30 193 20 258 15 c 1
 253 0 l 1
 16 0 l 1
 21 15 l 1
 91 19 104 30 126 102 c 2
 197 334 l 2
 211 378 206 394 182 394 c 0
 173 394 160 393 148 391 c 2
 139 390 l 1
 144 405 l 1
 316 460 l 1
337 683 m 0
 366 683 382 660 373 632 c 0
 364 603 335 581 306 581 c 0
 278 581 263 604 271 632 c 0
 280 660 310 683 337 683 c 0
EndSplineSet
EndChar

StartChar: j
Encoding: 106 106 175
Width: 278
Flags: W
HStem: -218 94<-67 -43> 581 102<320 351>
LayerCount: 2
Fore
SplineSet
333 457 m 1
 193 0 l 2
 150 -142 67 -218 -43 -218 c 0
 -97 -218 -130 -195 -120 -163 c 0
 -113 -141 -90 -124 -67 -124 c 0
 -51 -124 -40 -133 -29 -156 c 0
 -18 -177 -10 -184 5 -184 c 0
 19 -184 35 -176 44 -166 c 0
 61 -146 72 -121 95 -45 c 2
 211 334 l 2
 224 377 220 394 197 394 c 0
 187 394 172 393 157 391 c 2
 151 390 l 1
 156 406 l 1
 221 424 263 437 329 460 c 1
 333 457 l 1
351 683 m 0
 380 683 396 660 387 632 c 0
 378 603 349 581 320 581 c 0
 292 581 277 604 285 632 c 0
 294 660 324 683 351 683 c 0
EndSplineSet
EndChar

StartChar: k
Encoding: 107 107 176
Width: 500
Flags: W
HStem: 0 15<291 505> 435 15<414 613>
LayerCount: 2
Fore
SplineSet
197 623 m 1
 202 639 l 1
 235 647 l 2
 298 663 329 671 371 683 c 1
 374 681 l 1
 246 261 l 1
 420 383 l 2
 438 395 451 409 453 417 c 0
 458 431 448 435 409 436 c 1
 414 450 l 1
 618 450 l 1
 613 435 l 1
 605 435 l 2
 588 435 573 433 557 429 c 0
 526 421 450 375 358 309 c 2
 321 282 l 1
 415 88 l 1
 441 37 467 18 510 15 c 1
 505 0 l 1
 287 0 l 1
 292 15 l 1
 311 15 l 2
 323 15 333 21 336 30 c 0
 338 35 337 41 332 51 c 0
 330 54 328 57 327 60 c 2
 326 64 l 1
 243 251 l 1
 186 67 l 2
 176 32 187 18 226 16 c 2
 246 15 l 1
 241 0 l 1
 7 0 l 1
 12 15 l 1
 87 27 91 30 107 82 c 2
 254 564 l 2
 269 612 263 625 230 625 c 0
 220 625 211 624 197 623 c 1
EndSplineSet
EndChar

StartChar: l
Encoding: 108 108 177
Width: 278
Flags: W
HStem: 0 21G<21 257>
LayerCount: 2
Fore
SplineSet
209 623 m 1
 214 639 l 1
 289 656 330 666 387 683 c 1
 390 681 l 1
 208 84 l 2
 191 29 200 19 262 15 c 1
 257 0 l 1
 21 0 l 1
 26 15 l 1
 90 20 108 33 125 87 c 2
 270 564 l 2
 285 611 279 625 247 625 c 0
 239 625 227 624 215 623 c 2
 209 623 l 1
EndSplineSet
EndChar

StartChar: m
Encoding: 109 109 178
Width: 778
Flags: W
HStem: 0 15<21 39.6572 508 515> 408 52<413 462>
LayerCount: 2
Fore
SplineSet
141 398 m 1
 146 415 l 1
 205 430 243 441 300 460 c 1
 306 458 l 1
 283 383 l 1
 385 446 418 460 462 460 c 0
 516 460 541 433 542 376 c 1
 614 434 673 460 731 460 c 0
 808 460 828 400 792 282 c 2
 729 76 l 2
 717 37 725 19 754 17 c 2
 780 15 l 1
 775 0 l 1
 556 0 l 1
 561 15 l 1
 621 22 631 30 649 87 c 2
 713 298 l 2
 738 381 729 408 672 408 c 0
 626 408 587 390 544 347 c 1
 467 95 l 2
 448 33 458 16 515 15 c 1
 510 0 l 1
 286 0 l 1
 291 15 l 1
 349 19 363 30 380 86 c 2
 447 303 l 2
 468 373 457 408 413 408 c 0
 378 408 330 391 298 368 c 0
 288 361 277 351 277 349 c 2
 190 67 l 2
 179 28 190 17 243 15 c 1
 238 0 l 1
 16 0 l 1
 21 15 l 1
 77 16 95 31 112 85 c 2
 189 338 l 2
 204 386 200 402 174 402 c 0
 163 402 155 401 141 398 c 1
EndSplineSet
EndChar

StartChar: n
Encoding: 110 110 179
Width: 500
Flags: W
HStem: 0 21G<18 230 277 485> 405 55<391 447>
LayerCount: 2
Fore
SplineSet
138 398 m 1
 143 415 l 1
 203 431 240 442 295 460 c 1
 301 458 l 1
 277 379 l 1
 364 443 401 460 447 460 c 0
 521 460 548 404 519 310 c 2
 449 81 l 2
 434 32 442 20 490 15 c 1
 485 0 l 1
 277 0 l 1
 282 15 l 1
 333 19 351 36 370 99 c 2
 434 308 l 2
 454 374 440 405 391 405 c 0
 358 405 332 393 270 348 c 1
 184 67 l 2
 173 31 185 19 235 15 c 1
 230 0 l 1
 18 0 l 1
 23 15 l 1
 75 19 90 33 108 90 c 2
 183 338 l 2
 198 387 194 402 166 402 c 0
 155 402 145 401 138 398 c 1
EndSplineSet
EndChar

StartChar: o
Encoding: 111 111 180
Width: 500
Flags: W
HStem: -10 28<245 266> 432 28<367 391>
LayerCount: 2
Fore
SplineSet
391 460 m 0
 519 460 582 365 542 234 c 0
 499 96 371 -10 245 -10 c 0
 119 -10 57 91 98 226 c 0
 140 364 261 460 391 460 c 0
369 432 m 0
 298 432 232 370 203 275 c 0
 181 204 176 134 188 82 c 0
 197 42 227 18 266 18 c 0
 341 18 406 86 441 199 c 0
 483 336 453 432 369 432 c 0
EndSplineSet
EndChar

StartChar: p
Encoding: 112 112 181
Width: 500
Flags: W
HStem: -217 18<162 186> -10 32<256 277> 400 60<383 444>
LayerCount: 2
Fore
SplineSet
129 393 m 1
 134 409 l 1
 194 426 233 439 294 460 c 1
 299 458 l 1
 275 381 l 1
 336 435 388 460 444 460 c 0
 541 460 583 371 546 247 c 0
 501 102 375 -10 257 -10 c 0
 215 -10 194 0 169 33 c 1
 121 -124 l 2
 102 -187 111 -198 186 -199 c 1
 181 -217 l 1
 -61 -217 l 1
 -56 -200 l 1
 5 -194 19 -183 35 -131 c 2
 178 337 l 2
 192 384 188 394 154 394 c 0
 145 394 138 394 129 393 c 1
261 334 m 2
 186 88 l 2
 177 58 223 22 270 22 c 0
 342 22 414 97 448 208 c 0
 483 324 457 400 383 400 c 0
 337 400 270 364 261 334 c 2
EndSplineSet
EndChar

StartChar: q
Encoding: 113 113 182
Width: 500
Flags: W
HStem: -10 61<181 257> 433 28<374 392>
LayerCount: 2
Fore
SplineSet
490 425 m 1
 554 457 l 1
 565 457 l 1
 382 -141 l 2
 369 -183 375 -191 426 -203 c 1
 422 -217 l 1
 186 -217 l 1
 191 -200 l 1
 263 -195 286 -180 303 -124 c 2
 361 64 l 1
 302 16 239 -10 181 -10 c 0
 87 -10 48 79 87 205 c 0
 131 349 261 461 386 461 c 0
 425 461 452 452 490 425 c 1
380 127 m 2
 443 333 l 2
 463 400 442 433 380 433 c 0
 295 433 220 359 184 241 c 0
 164 175 165 110 188 81 c 1
 202 61 226 51 257 51 c 0
 288 51 324 63 352 82 c 0
 365 90 372 103 380 127 c 2
EndSplineSet
EndChar

StartChar: r
Encoding: 114 114 183
Width: 333
Flags: W
HStem: 0 21G<5 245> 362 98<406 421>
LayerCount: 2
Fore
SplineSet
126 390 m 1
 131 406 l 1
 196 425 236 438 296 460 c 1
 300 458 l 1
 272 366 l 1
 343 437 379 460 421 460 c 0
 455 460 470 440 459 407 c 0
 451 379 431 362 407 362 c 0
 394 362 385 368 373 382 c 0
 365 392 357 397 351 397 c 0
 324 397 266 347 256 315 c 2
 188 90 l 2
 170 33 183 18 250 15 c 1
 245 0 l 1
 5 0 l 1
 10 15 l 1
 77 27 86 34 102 84 c 2
 178 334 l 2
 192 378 187 394 162 394 c 0
 150 394 141 393 126 390 c 1
EndSplineSet
EndChar

StartChar: s
Encoding: 115 115 184
Width: 389
Flags: W
HStem: -10 22<194 212> 8 144<90 101> 314 126<410 419> 437 22<309.001 340>
LayerCount: 2
Fore
SplineSet
411 314 m 1x20
 396 314 l 1x20
 400 403 381 437 324 437 c 0
 278 437 238 409 226 369 c 0
 218 342 225 317 248 301 c 2
 336 237 l 2
 385 201 399 168 384 118 c 0
 363 48 281 -10 204 -10 c 0x90
 186 -10 160 -6 134 0 c 0
 113 6 99 8 90 8 c 0
 78 8 74 6 64 -4 c 1
 51 -4 l 1
 98 152 l 1
 114 152 l 1x40
 110 95 112 72 125 47 c 0
 138 25 165 12 199 12 c 0
 250 12 290 40 304 84 c 0
 313 115 303 139 275 159 c 2
 227 192 l 2
 156 240 137 280 154 336 c 0
 176 408 248 459 327 459 c 0x90
 353 459 374 455 394 447 c 0
 403 442 413 440 419 440 c 0
 423 440 424 441 435 448 c 2
 438 450 l 1
 449 450 l 1
 411 314 l 1x20
EndSplineSet
EndChar

StartChar: t
Encoding: 116 116 185
Width: 278
Flags: W
HStem: -10 52<156 219> 418 32<292 383>
LayerCount: 2
Fore
SplineSet
393 450 m 1
 383 418 l 1
 282 418 l 1
 194 132 l 2
 175 69 182 42 219 42 c 0
 241 42 261 52 290 77 c 1
 299 66 l 1
 250 14 205 -10 156 -10 c 0
 97 -10 80 33 106 117 c 2
 198 418 l 1
 145 418 l 1
 142 420 142 422 143 425 c 0
 144 430 153 437 166 444 c 1
 183 448 241 496 295 551 c 0
 306 561 314 570 324 579 c 1
 330 579 330 576 327 566 c 2
 292 450 l 1
 393 450 l 1
EndSplineSet
EndChar

StartChar: u
Encoding: 117 117 186
Width: 500
Flags: W
HStem: -10 58<189 241> 430 20G<147 293 397 555>
LayerCount: 2
Fore
SplineSet
494 50 m 1
 490 36 l 1
 435 22 395 11 339 -9 c 1
 336 -7 l 1
 361 76 l 1
 305 33 l 2
 270 6 226 -10 189 -10 c 0
 116 -10 84 41 108 120 c 2
 185 372 l 2
 199 418 189 433 142 436 c 1
 147 450 l 1
 293 450 l 1
 193 124 l 2
 180 82 202 48 241 48 c 0
 271 48 305 60 339 82 c 0
 356 93 366 107 374 135 c 2
 446 370 l 2
 461 420 452 430 391 433 c 1
 397 450 l 1
 555 450 l 1
 450 107 l 2
 436 61 443 50 489 50 c 2
 494 50 l 1
EndSplineSet
EndChar

StartChar: v
Encoding: 118 118 187
Width: 500
Flags: W
HStem: -14 21G<249 255> 430 20G<157 353 476 615>
LayerCount: 2
Fore
SplineSet
615 450 m 1
 610 435 l 1
 579 432 571 425 521 357 c 1
 295 36 l 2
 269 -1 258 -14 252 -14 c 0
 246 -14 242 -6 242 12 c 0
 241 20 240 27 240 33 c 1
 208 320 l 1
 193 423 189 433 152 435 c 1
 157 450 l 1
 353 450 l 1
 348 435 l 1
 312 432 299 425 293 407 c 0
 291 398 289 384 291 370 c 1
 315 114 l 1
 493 373 l 2
 500 383 505 393 508 403 c 0
 514 422 502 432 471 435 c 1
 476 450 l 1
 615 450 l 1
EndSplineSet
EndChar

StartChar: w
Encoding: 119 119 188
Width: 722
Flags: W
HStem: -14 21G<228 233.5 480 486.5> 430 20G<159 339 400 603 709 832>
LayerCount: 2
Fore
SplineSet
709 450 m 1
 832 450 l 1
 827 435 l 1
 805 428 800 423 769 381 c 1
 526 35 l 2
 497 -5 490 -14 483 -14 c 0
 477 -14 475 -8 472 29 c 2
 453 265 l 1
 268 25 l 2
 248 -1 236 -14 231 -14 c 0
 225 -14 221 0 218 30 c 2
 188 372 l 1
 181 423 176 433 154 435 c 1
 159 450 l 1
 339 450 l 1
 334 435 l 1
 299 431 284 423 278 402 c 0
 275 392 274 382 275 372 c 2
 294 111 l 1
 446 310 l 1
 445 328 444 347 443 366 c 0
 439 420 431 431 395 435 c 1
 400 450 l 1
 603 450 l 1
 598 435 l 1
 549 428 536 421 529 399 c 0
 525 386 525 386 528 340 c 2
 543 116 l 1
 701 338 l 2
 721 365 734 389 739 404 c 0
 744 421 736 428 704 435 c 1
 709 450 l 1
EndSplineSet
EndChar

StartChar: x
Encoding: 120 120 189
Width: 500
Flags: W
HStem: 0 15<155 167 471 484> 435 15<161 178>
LayerCount: 2
Fore
SplineSet
278 0 m 1
 283 15 l 1
 316 17 324 21 330 39 c 0
 332 45 332 51 329 57 c 2
 281 197 l 1
 165 74 l 2
 146 54 134 39 132 33 c 0
 128 20 139 15 167 15 c 1
 162 0 l 1
 17 0 l 1
 22 15 l 1
 56 18 68 25 110 66 c 1
 275 231 l 1
 225 375 l 2
 208 422 196 435 166 435 c 2
 157 435 l 1
 162 450 l 1
 369 450 l 1
 364 435 l 1
 334 434 319 427 314 413 c 0
 310 400 318 366 333 324 c 2
 341 304 l 1
 360 324 378 342 384 348 c 0
 419 379 438 401 441 413 c 0
 446 427 437 433 408 435 c 1
 413 450 l 1
 571 450 l 1
 566 435 l 1
 534 434 499 418 472 391 c 2
 352 271 l 1
 420 75 l 1
 437 31 453 15 484 15 c 1
 479 0 l 1
 278 0 l 1
EndSplineSet
EndChar

StartChar: y
Encoding: 121 121 190
Width: 500
Flags: W
HStem: -218 102<35 43> 435 15<473 481>
LayerCount: 2
Fore
SplineSet
613 450 m 1
 608 435 l 1
 583 432 569 422 546 390 c 1
 267 -18 l 2
 169 -162 104 -218 37 -218 c 0
 -5 -218 -29 -193 -19 -160 c 0
 -12 -136 15 -116 38 -116 c 0
 55 -116 70 -120 87 -127 c 0
 96 -132 104 -134 110 -134 c 0
 124 -134 152 -115 174 -89 c 0
 200 -59 242 4 247 19 c 0
 251 34 246 70 234 120 c 1
 228 150 l 1
 227 158 l 1
 189 404 l 2
 186 421 172 432 147 436 c 1
 152 450 l 1
 358 450 l 1
 353 435 l 1
 309 433 292 426 287 408 c 0
 283 397 283 384 285 370 c 2
 323 117 l 1
 504 393 l 1
 509 400 512 406 513 410 c 0
 518 426 505 435 473 435 c 1
 478 450 l 1
 613 450 l 1
EndSplineSet
EndChar

StartChar: z
Encoding: 122 122 191
Width: 444
Flags: W
HStem: 0 30<143 404> 420 30<194 421>
LayerCount: 2
Fore
SplineSet
459 135 m 1
 404 0 l 1
 27 0 l 1
 32 15 l 1
 421 420 l 1
 283 420 l 2
 223 420 204 405 173 332 c 1
 155 332 l 1
 194 450 l 1
 541 450 l 1
 536 435 l 1
 143 30 l 1
 281 30 l 2
 332 30 369 39 388 56 c 0
 406 73 417 89 442 139 c 1
 459 135 l 1
EndSplineSet
EndChar

StartChar: ae
Encoding: 230 230 192
Width: 667
Flags: W
HStem: -10 48<151 204> 277 30<449 701> 431 29<574 597>
LayerCount: 2
Fore
SplineSet
667 154 m 1
 678 149 l 1
 633 90 605 62 571 38 c 0
 525 6 479 -10 432 -10 c 0
 375 -10 343 11 325 63 c 1
 240 7 201 -10 151 -10 c 0
 83 -10 49 35 69 100 c 0
 87 160 141 201 262 245 c 2
 359 281 l 1
 380 344 l 1
 388 367 393 398 389 413 c 0
 387 427 370 436 346 436 c 0
 304 436 266 413 263 386 c 0
 263 383 262 380 262 380 c 1
 259 369 l 1
 255 352 l 1
 247 323 225 304 197 304 c 0
 170 304 159 323 168 352 c 0
 187 414 270 460 361 460 c 0
 410 460 436 448 464 415 c 1
 519 449 551 460 597 460 c 0
 698 460 729 406 701 277 c 1
 439 277 l 1
 409 178 405 146 414 107 c 0
 422 77 452 57 493 57 c 0
 550 57 598 84 667 154 c 1
335 201 m 2
 351 253 l 1
 217 209 182 185 163 125 c 0
 149 77 167 38 204 38 c 0
 241 38 315 70 321 88 c 0
 321 89 322 90 321 91 c 0
 319 128 324 165 335 201 c 2
449 307 m 1
 615 307 l 1
 639 394 628 431 574 431 c 0
 517 431 481 395 449 307 c 1
EndSplineSet
EndChar

StartChar: oe
Encoding: 339 339 193
Width: 722
Flags: W
HStem: -10 26<230 247> 277 30<513 759> 431 29<354 375 632 655>
LayerCount: 2
Fore
SplineSet
723 145 m 1
 732 139 l 1
 647 31 586 -10 508 -10 c 0
 446 -10 418 17 409 85 c 1
 350 17 301 -10 233 -10 c 0
 112 -10 56 85 97 218 c 0
 120 294 172 368 231 412 c 0
 274 443 323 460 373 460 c 0
 435 460 469 440 501 384 c 1
 560 440 601 460 655 460 c 0
 705 460 746 437 762 398 c 0
 775 367 774 338 759 277 c 1
 505 277 l 1
 482 190 480 153 492 107 c 0
 501 77 529 57 566 57 c 0
 614 57 657 81 723 145 c 1
361 431 m 0
 332 431 304 420 276 398 c 0
 249 377 219 323 203 271 c 0
 151 102 166 16 245 16 c 0
 313 16 367 79 404 199 c 0
 449 348 434 431 361 431 c 0
513 307 m 1
 673 307 l 1
 681 334 l 2
 698 390 678 431 632 431 c 0
 579 431 539 390 513 307 c 1
EndSplineSet
EndChar

StartChar: oslash
Encoding: 248 248 194
Width: 500
Flags: HMW
HStem: -10 28<244 298.5> 432 28<201.5 252.5>
VStem: 29 90<241.5 295> 380 90<164.5 235>
LayerCount: 2
Fore
SplineSet
605 551 m 1
 502 426 l 1
 527 404 536 392 545 368 c 0
 557 330 556 282 542 234 c 0
 499 95 371 -10 244 -10 c 0
 209 -10 187 -5 157 11 c 1
 55 -112 l 1
 18 -112 l 1
 134 28 l 1
 108 55 99 70 92 97 c 0
 82 135 84 181 98 227 c 0
 140 363 261 460 390 460 c 0
 423 460 445 455 476 442 c 1
 566 551 l 1
 605 551 l 1
452 366 m 1
 197 60 l 1
 213 30 233 18 267 18 c 0
 342 18 407 87 442 203 c 0
 462 267 464 311 452 366 c 1
186 92 m 1
 438 396 l 1
 419 422 400 432 369 432 c 0
 298 432 232 370 203 276 c 0
 182 207 177 149 186 92 c 1
EndSplineSet
EndChar

StartChar: germandbls
Encoding: 223 223 195
Width: 500
Flags: W
HStem: -9 121<269 286> 656 27<438 460>
LayerCount: 2
Fore
SplineSet
99 84 m 2
 212 454 l 2
 233 524 256 569 288 606 c 0
 333 657 392 683 460 683 c 0
 564 683 611 623 583 531 c 0
 561 459 521 426 399 377 c 1
 457 365 482 354 506 326 c 0
 535 292 542 242 525 186 c 0
 492 77 386 -9 286 -9 c 0
 229 -9 198 21 212 64 c 0
 220 91 245 112 271 112 c 0
 293 112 306 95 301 72 c 2
 296 50 l 2
 292 28 297 20 316 20 c 0
 358 20 394 65 420 150 c 0
 461 285 438 354 351 357 c 0
 328 358 321 363 324 374 c 0
 327 383 336 387 358 389 c 0
 425 396 468 437 492 517 c 0
 519 604 501 656 444 656 c 0
 392 656 345 614 325 549 c 2
 157 0 l 1
 12 0 l 1
 17 15 l 1
 68 19 82 31 99 84 c 2
EndSplineSet
EndChar

StartChar: dotlessi
Encoding: 305 305 196
Width: 278
Flags: W
HStem: 0 21G<16 253>
LayerCount: 2
Fore
SplineSet
316 460 m 1
 319 457 l 1
 210 102 l 2
 188 30 193 20 258 15 c 1
 253 0 l 1
 16 0 l 1
 21 15 l 1
 91 19 104 30 126 102 c 2
 197 334 l 2
 211 378 206 394 182 394 c 0
 173 394 160 393 148 391 c 2
 139 390 l 1
 144 405 l 1
 316 460 l 1
EndSplineSet
EndChar

StartChar: fi
Encoding: 64257 64257 197
Width: 556
Flags: W
HStem: 0 15<32 32 252 252 301 301 521 521> 417 33<31 99 183 183 183 269> 440 20<452 452> 658 25<279 302>
VStem: 99 84<94 417> 370 84<97 359>
LayerCount: 2
Fore
SplineSet
31 417 m 1xcc
 31 450 l 1
 100 450 l 1
 106 530 117 567 147 608 c 0
 183 657 241 683 317 683 c 0
 394 683 444 655 444 613 c 0
 444 591 429 574 408 574 c 0
 391 574 378 584 359 611 c 0
 335 645 316 658 288 658 c 0
 243 658 204 628 190 585 c 0
 185 568 182 537 182 493 c 2
 182 450 l 1
 339 450 l 2x5c
 379 450 408 453 452 460 c 1x2c
 456 457 l 1
 454 404 454 381 454 359 c 2
 454 97 l 2
 454 33 465 20 521 15 c 1
 521 0 l 1
 301 0 l 1
 301 15 l 1
 363 20 370 29 370 97 c 2
 370 361 l 2
 370 414 365 417 269 417 c 2
 183 417 l 1
 183 88 l 2
 183 33 196 19 252 15 c 1
 252 0 l 1
 32 0 l 1
 32 15 l 1
 88 17 99 30 99 94 c 2
 99 417 l 1
 31 417 l 1xcc
EndSplineSet
Ligature2: "'liga' Standard Ligatures in Latin lookup 1 subtable" f i
EndChar

StartChar: fl
Encoding: 64258 64258 198
Width: 556
Flags: W
HStem: 0 15<32 32 256 256 306 306 521 521> 418 32<32 101 185 373> 584 74<313.627 383.5> 656 27<244.5 261>
VStem: 101 84<105 418> 373 84<84 418 418 418 450 591 591 591>
LayerCount: 2
Fore
SplineSet
32 418 m 1xec
 32 450 l 1
 103 450 l 1
 107 538 117 577 147 620 c 0
 175 659 221 683 268 683 c 0x5c
 292 683 321 677 349 666 c 0
 364 661 374 658 379 658 c 0
 388 658 402 663 421 672 c 0
 433 678 444 682 452 683 c 1
 457 681 l 1
 457 81 l 2
 457 29 467 19 521 15 c 1
 521 0 l 1
 306 0 l 1
 306 15 l 1
 358 19 373 35 373 84 c 2
 373 418 l 1
 185 418 l 1
 185 79 l 2
 185 33 199 21 256 15 c 1
 256 0 l 1
 32 0 l 1
 32 15 l 1
 61 17 71 19 81 26 c 0
 95 35 101 60 101 105 c 2
 101 418 l 1
 32 418 l 1xec
373 450 m 1
 373 591 l 1
 368 586 364 584 357 584 c 0x6c
 334 584 321 593 302 621 c 0
 284 648 272 656 250 656 c 0
 206 656 185 606 185 502 c 2
 185 450 l 1
 373 450 l 1
EndSplineSet
Ligature2: "'liga' Standard Ligatures in Latin lookup 1 subtable" f l
EndChar

StartChar: dcroat
Encoding: 273 273 199
Width: 500
Flags: W
HStem: -10 52<209 264> 432 28<357 382> 527 34<390 501 596 661>
LayerCount: 2
Fore
SplineSet
501 527 m 1
 380 527 l 1
 391 561 l 1
 512 561 l 1
 515 573 l 2
 528 614 522 624 485 624 c 0
 477 624 471 624 462 623 c 1
 467 639 l 1
 537 656 575 666 628 683 c 1
 632 681 l 1
 596 561 l 1
 672 561 l 1
 661 527 l 1
 585 527 l 1
 459 114 l 2
 445 68 449 57 485 57 c 0
 488 57 490 57 509 58 c 1
 504 42 l 1
 341 -10 l 1
 338 -7 l 1
 357 57 l 1
 309 10 265 -10 209 -10 c 0
 99 -10 51 77 90 205 c 0
 133 347 261 460 376 460 c 0
 416 460 439 449 467 417 c 1
 501 527 l 1
371 102 m 2
 442 332 l 2
 458 385 423 432 370 432 c 0
 294 432 222 358 188 245 c 0
 150 122 181 42 264 42 c 0
 293 42 321 52 345 72 c 0
 358 83 369 95 371 102 c 2
EndSplineSet
EndChar

StartChar: lslash
Encoding: 322 322 200
Width: 278
Flags: W
HStem: 0 21G<21 257>
LayerCount: 2
Fore
SplineSet
209 362 m 1
 270 564 l 2
 285 611 279 625 247 625 c 0
 239 625 227 624 215 623 c 2
 209 623 l 1
 214 639 l 1
 289 656 330 666 387 683 c 1
 390 681 l 1
 310 419 l 1
 403 472 l 1
 390 428 l 1
 297 375 l 1
 208 84 l 2
 191 29 200 19 262 15 c 1
 257 0 l 1
 21 0 l 1
 26 15 l 1
 90 20 108 33 125 87 c 2
 195 318 l 1
 101 264 l 1
 114 308 l 1
 209 362 l 1
EndSplineSet
EndChar

StartChar: eth
Encoding: 240 240 201
Width: 500
Flags: HW
HStem: -10 30<208 301.5> 428 30<194.5 248>
VStem: 30 92<219.5 288> 378 92<165.5 245.5>
LayerCount: 2
Fore
SplineSet
470 240 m 0
 470 91 379 -10 249 -10 c 0
 122 -10 30 85 30 230 c 0
 30 346 112 458 241 458 c 0
 255 458 264 457 278 454 c 1
 267 477 245 506 221 531 c 1
 90 487 l 1
 56 535 l 1
 133 551 159 561 186 569 c 1
 155 605 113 636 77 656 c 1
 132 683 l 1
 166 665 217 631 260 594 c 1
 392 638 l 1
 426 590 l 1
 399 585 346 574 296 557 c 1
 296 557 470 386 470 240 c 0
378 192 m 0
 378 299 339 428 236 428 c 0
 153 428 122 347 122 271 c 0
 122 168 152 20 264 20 c 0
 339 20 378 96 378 192 c 0
EndSplineSet
EndChar

StartChar: thorn
Encoding: 254 254 202
Width: 500
Flags: HW
HStem: -217 18<5 5 247 247> -217 217 -10 32<239.5 299> 400 60<275.5 298>
VStem: 75 84<-131 -124 -124 33 73 88 88 334 382 573 573 594> 384 86<174.5 266>
LayerCount: 2
Fore
SplineSet
199 623 m 1x8c
 204 639 l 1
 279 658 310 666 363 683 c 1
 367 680 l 1
 276 382 l 1
 337 436 389 460 444 460 c 0
 541 460 583 371 546 247 c 0
 501 102 375 -10 257 -10 c 0
 215 -10 194 0 169 33 c 1
 121 -124 l 2
 102 -187 111 -198 186 -199 c 1xbc
 181 -217 l 1
 -61 -217 l 1x4c
 -56 -199 l 1
 5 -194 19 -183 35 -131 c 2
 250 573 l 2
 263 615 257 624 217 624 c 0
 210 624 206 624 199 623 c 1x8c
261 334 m 2
 186 88 l 2
 177 58 223 22 270 22 c 0
 342 22 414 97 448 208 c 0
 483 324 457 400 383 400 c 0
 337 400 270 364 261 334 c 2
EndSplineSet
EndChar

StartChar: one
Encoding: 49 49 203
Width: 500
Flags: HMW
HStem: 0 15<118 118 394 394> 571 14<111 111> 656 20<291 291>
VStem: 213 86<93 546 546 562>
LayerCount: 2
Fore
SplineSet
291 676 m 1
 299 674 l 1
 299 74 l 2
 299 26 315 16 394 15 c 1
 394 0 l 1
 118 0 l 1
 118 15 l 1
 160 16 174 19 189 28 c 0
 205 37 213 60 213 93 c 2
 213 546 l 2
 213 578 204 593 183 593 c 0
 173 593 156 589 138 582 c 0
 134 580 123 576 111 571 c 1
 111 585 l 1
 291 676 l 1
EndSplineSet
EndChar

StartChar: two
Encoding: 50 50 204
Width: 500
Flags: HMW
HStem: 0 76<128 367 367 389.5> 602 74<211.5 239>
VStem: 338 86<460 503>
LayerCount: 2
Fore
SplineSet
475 137 m 1
 420 0 l 1
 30 0 l 1
 30 12 l 1
 208 201 l 2
 292 290 338 383 338 461 c 0
 338 545 281 602 197 602 c 0
 128 602 92 570 52 472 c 1
 31 477 l 1
 48 548 63 580 95 614 c 0
 132 654 184 676 239 676 c 0
 343 676 424 599 424 499 c 0
 424 421 385 345 296 252 c 2
 128 76 l 1
 367 76 l 2
 412 76 425 85 462 142 c 1
 475 137 l 1
EndSplineSet
EndChar

StartChar: three
Encoding: 51 51 205
Width: 500
Flags: HW
HStem: -14 36<121 265.44> 616 60<217 241.5>
VStem: 319 79<512 540.5> 360 72<185.5 205.5>
LayerCount: 2
Fore
SplineSet
153 330 m 1xd0
 153 343 l 1
 221 367 249 382 279 412 c 0
 304 437 319 473 319 509 c 0
 319 572 274 616 209 616 c 0
 146 616 101 583 60 510 c 1
 45 514 l 1
 67 574 82 600 112 627 c 0
 148 659 192 676 242 676 c 0
 334 676 398 620 398 539 c 0xe0
 398 485 373 448 304 401 c 1
 348 382 367 370 387 348 c 0
 416 317 432 270 432 219 c 0
 432 152 406 94 359 53 c 0
 312 12 233 -14 156 -14 c 0
 86 -14 43 8 43 43 c 0
 43 64 58 78 81 78 c 0
 98 78 115 71 145 53 c 0
 182 29 202 22 229 22 c 0
 303 22 360 87 360 171 c 0
 360 240 321 297 259 319 c 0
 235 328 212 330 153 330 c 1xd0
EndSplineSet
EndChar

StartChar: four
Encoding: 52 52 206
Width: 500
Flags: HW
HStem: 0 20 167 64<52 292 370 472> 656 20<326 370 370 370>
VStem: 292 78<231 574 574 574> 293 77<0 167>
LayerCount: 2
Fore
SplineSet
472 231 m 1xe8
 472 167 l 1
 370 167 l 1
 370 0 l 1xf0
 293 0 l 1
 293 167 l 1
 12 167 l 1
 12 231 l 1
 326 676 l 1
 370 676 l 1
 370 231 l 1
 472 231 l 1xe8
292 231 m 1
 292 574 l 1
 52 231 l 1
 292 231 l 1
EndSplineSet
EndChar

StartChar: five
Encoding: 53 53 207
Width: 500
Flags: HMW
HStem: -14 37<116.5 263.122> 583 79<181 181 181 377>
VStem: 357 70<204 243.5>
LayerCount: 2
Fore
SplineSet
181 583 m 1
 139 498 l 1
 257 477 314 454 358 410 c 0
 408 360 427 314 427 242 c 0
 427 166 406 109 360 64 c 1
 310 13 238 -14 154 -14 c 0
 79 -14 32 10 32 48 c 0
 32 73 46 85 75 85 c 0
 96 85 119 75 151 52 c 0
 181 30 198 23 218 23 c 0
 296 23 357 98 357 194 c 0
 357 293 304 355 189 392 c 0
 148 405 108 412 76 412 c 0
 68 412 64 415 64 420 c 0
 64 422 64 423 65 425 c 2
 174 662 l 1
 383 662 l 2
 404 662 414 667 429 688 c 1
 438 681 l 1
 400 592 l 2
 397 585 393 583 377 583 c 2
 181 583 l 1
EndSplineSet
EndChar

StartChar: six
Encoding: 54 54 208
Width: 500
Flags: HMW
HStem: -14 28<227 304> 382 46<258 285>
VStem: 34 93<235.5 288.5> 378 90<150 247.5>
LayerCount: 2
Fore
SplineSet
446 684 m 1
 448 668 l 1
 291 642 179 534 152 383 c 1
 215 421 236 428 280 428 c 0
 395 428 468 347 468 219 c 0
 468 81 382 -14 258 -14 c 0
 196 -14 142 10 104 54 c 0
 61 104 34 192 34 279 c 0
 34 413 93 527 201 604 c 0
 274 655 332 674 446 684 c 1
242 382 m 0
 207 382 176 373 155 357 c 0
 135 342 127 314 127 263 c 0
 127 108 181 14 269 14 c 0
 339 14 378 75 378 185 c 0
 378 310 328 382 242 382 c 0
EndSplineSet
EndChar

StartChar: seven
Encoding: 55 55 209
Width: 500
Flags: HMW
HStem: -8 20 588 74<125.5 153 153 370>
LayerCount: 2
Fore
SplineSet
449 662 m 1
 449 646 l 1
 237 -8 l 1
 172 -8 l 1
 370 588 l 1
 153 588 l 2
 98 588 80 575 37 507 c 1
 20 515 l 1
 79 662 l 1
 449 662 l 1
EndSplineSet
EndChar

StartChar: eight
Encoding: 56 56 210
Width: 500
Flags: HW
HStem: -14 28<221 291.5> 648 28<212.5 278>
VStem: 56 76<115.5 185> 62 74<521 563.5> 355 69<506.5 569.5> 369 76<103.5 152>
LayerCount: 2
Fore
SplineSet
290 371 m 1xd8
 411 281 445 232 445 155 c 0
 445 52 368 -14 248 -14 c 0
 135 -14 56 54 56 151 c 0xe4
 56 219 78 250 186 332 c 1
 81 424 62 453 62 518 c 0
 62 609 143 676 252 676 c 0
 352 676 424 616 424 534 c 0
 424 466 389 424 290 371 c 1xd8
272 268 m 2
 212 312 l 1
 154 265 132 223 132 159 c 0
 132 72 183 14 259 14 c 0
 324 14 369 59 369 124 c 0
 369 180 345 216 272 268 c 2
261 389 m 1xd8
 265 392 265 392 270 395 c 0
 327 433 355 478 355 535 c 0
 355 604 312 648 244 648 c 0
 181 648 136 607 136 549 c 0
 136 493 172 447 261 389 c 1xd8
EndSplineSet
EndChar

StartChar: nine
Encoding: 57 57 211
Width: 500
Flags: HMW
HStem: 237 43<208 237.5> 648 28<215.5 273.5>
VStem: 30 92<414.5 502.5>
LayerCount: 2
Fore
SplineSet
59 -22 m 1
 56 -2 l 1
 208 24 319 131 360 294 c 1
 307 253 265 237 210 237 c 0
 102 237 30 318 30 440 c 0
 30 575 119 676 238 676 c 0
 367 676 459 559 459 394 c 0
 459 259 398 135 294 59 c 0
 226 10 171 -9 59 -22 c 1
362 355 m 2
 362 394 l 2
 362 562 317 648 230 648 c 0
 201 648 176 637 159 617 c 0
 138 591 122 531 122 474 c 0
 122 355 170 280 246 280 c 0
 282 280 319 293 347 317 c 0
 358 326 362 335 362 355 c 2
EndSplineSet
EndChar

StartChar: zero
Encoding: 48 48 212
Width: 500
Flags: HMW
HStem: -14 26<221 275.5> 650 26<226.5 293>
VStem: 24 96<281.5 394.5> 380 96<269.5 432.5>
LayerCount: 2
Fore
SplineSet
254 676 m 0
 385 676 476 535 476 330 c 0
 476 209 438 93 380 38 c 0
 344 3 301 -14 250 -14 c 0
 192 -14 141 10 104 54 c 0
 57 110 24 227 24 336 c 0
 24 453 62 568 120 624 c 0
 157 659 199 676 254 676 c 0
251 650 m 0
 165 650 120 539 120 327 c 0
 120 119 164 12 250 12 c 0
 336 12 380 119 380 328 c 0
 380 537 335 650 251 650 c 0
EndSplineSet
EndChar

StartChar: sterling
Encoding: 163 163 213
Width: 500
Flags: W
HStem: -8 28<67 89> -7 83<323.5 346> 94 36<76 101> 328 45<23 130 223 344 223 223> 649 27<273 321.5>
VStem: 12 26<46 69> 123 85<492 513.5>
LayerCount: 2
Fore
SplineSet
344 373 m 1xbe
 344 328 l 1
 223 328 l 1
 223 301 l 1
 224 273 l 1
 224 238 223 233 199 111 c 1
 264 84 299 76 348 76 c 0
 394 76 429 91 461 125 c 0
 471 136 479 141 484 141 c 0
 488 141 490 139 490 136 c 0
 490 119 468 75 447 51 c 0
 415 14 370 -7 322 -7 c 0x76
 279 -7 246 7 178 54 c 1
 138 7 115 -8 80 -8 c 0
 39 -8 12 16 12 54 c 0
 12 100 49 130 103 130 c 0
 118 130 130 129 149 125 c 1
 152 133 153 139 153 146 c 0
 153 164 151 181 131 328 c 1
 23 328 l 1
 23 373 l 1
 130 373 l 1
 125 399 123 418 123 442 c 0
 123 585 199 676 318 676 c 0
 392 676 448 636 448 583 c 0
 448 552 427 530 398 530 c 0
 368 530 360 544 359 597 c 0
 358 632 340 649 303 649 c 0
 243 649 208 598 208 510 c 0
 208 474 211 441 219 373 c 1
 344 373 l 1xbe
89 94 m 0
 56 94 38 81 38 57 c 0
 38 35 55 20 79 20 c 0xa6
 99 20 111 26 125 43 c 0
 136 56 142 68 142 76 c 0
 142 84 113 94 89 94 c 0
EndSplineSet
EndChar

StartChar: dollar
Encoding: 36 36 214
Width: 500
Flags: MW
VStem: 52 74<511 533.5> 230 34<-87 0 28 293 664 727> 378 79<146 177>
LayerCount: 2
Fore
SplineSet
425 500 m 1
 410 500 l 1
 393 585 348 627 264 637 c 1
 264 391 l 1
 385 321 412 301 437 260 c 0
 449 240 457 204 457 170 c 0
 457 122 438 81 405 53 c 0
 369 24 338 12 264 0 c 1
 264 -87 l 1
 230 -87 l 1
 230 0 l 1
 146 3 104 14 44 51 c 1
 44 181 l 1
 59 181 l 1
 83 76 136 29 230 28 c 1
 230 310 l 1
 159 350 137 365 108 393 c 0
 68 430 52 465 52 512 c 0
 52 555 72 595 106 622 c 0
 139 648 167 657 230 664 c 1
 230 727 l 1
 264 727 l 1
 264 664 l 1
 348 654 391 639 425 611 c 1
 425 500 l 1
229 407 m 1
 229 637 l 1
 160 623 126 589 126 534 c 0
 126 488 146 463 229 407 c 1
264 293 m 1
 264 28 l 1
 342 43 378 80 378 146 c 0
 378 208 357 235 264 293 c 1
EndSplineSet
EndChar

StartChar: cent
Encoding: 162 162 215
Width: 500
Flags: W
HStem: -9 73<229.612 336.462> 0 20 430 30<225 274.5> 435 20<324 324>
VStem: 53 77<224 286.5>
LayerCount: 2
Fore
SplineSet
403 579 m 1x18
 356 444 l 1
 404 425 431 395 431 360 c 0
 431 334 413 315 388 315 c 0
 363 315 348 328 330 367 c 1
 229 76 l 1
 253 67 268 64 288 64 c 0
 347 64 383 89 435 164 c 1
 448 156 l 1
 414 86 395 59 360 29 c 0
 332 5 295 -9 257 -9 c 0xa8
 240 -9 225 -7 201 0 c 1
 152 -138 l 1
 118 -138 l 1
 169 12 l 1
 132 33 117 46 99 71 c 0
 70 111 53 165 53 219 c 0
 53 354 149 460 273 460 c 0x68
 287 460 300 459 324 455 c 1
 368 579 l 1
 403 579 l 1x18
198 98 m 1
 313 421 l 1
 295 428 283 430 266 430 c 0
 184 430 130 362 130 260 c 0
 130 188 149 143 198 98 c 1
EndSplineSet
EndChar

StartChar: florin
Encoding: 402 402 216
Width: 500
Flags: MW
HStem: -189 24<89 114.5> 376 31<116 217 306 422> 647 29<391 405>
VStem: 7 67<-164.836 -96.3342> 419 71<583.668 646.606>
LayerCount: 2
Fore
SplineSet
432 407 m 1
 422 376 l 1
 302 376 l 1
 295 321 287 264 286 251 c 0
 262 66 245 -14 214 -84 c 0
 181 -156 142 -189 87 -189 c 0
 40 -189 7 -160 7 -120 c 0
 7 -94 26 -75 53 -75 c 0
 75 -75 89 -89 89 -111 c 0
 89 -120 86 -127 80 -138 c 0
 76 -145 74 -149 74 -152 c 0
 74 -159 83 -165 95 -165 c 0
 140 -165 167 -107 177 9 c 2
 192 181 l 1
 197 234 203 290 204 294 c 1
 215 361 l 1
 217 376 l 1
 106 376 l 1
 116 407 l 1
 223 407 l 1
 239 511 256 559 294 615 c 0
 320 653 363 676 405 676 c 0
 452 676 490 646 490 608 c 0
 490 583 469 563 444 563 c 0
 424 563 406 579 406 597 c 0
 406 603 409 612 414 621 c 0
 417 627 419 632 419 635 c 0
 419 642 411 647 399 647 c 0
 383 647 369 641 358 630 c 0
 339 610 320 546 314 483 c 0
 313 472 310 441 306 407 c 1
 432 407 l 1
EndSplineSet
EndChar

StartChar: uni01C0
Encoding: 448 448 217
Width: 200
Flags: HW
HStem: -163 20
VStem: 72 56<-163 677>
LayerCount: 2
Fore
SplineSet
128 -163 m 1
 72 -163 l 1
 72 677 l 1
 128 677 l 1
 128 -163 l 1
EndSplineSet
EndChar

StartChar: yen
Encoding: 165 165 218
Width: 500
Flags: HMW
HStem: 0 19<111 111 355 355> 182 40<16 190 275 448> 312 40<16 160 302 448> 643 19<-53 -53 190 190 317 317 512 512>
VStem: 190 85<120 182 222 298> 317 195<643 662>
LayerCount: 2
Fore
SplineSet
512 643 m 1
 464 634 428 603 394 536 c 2
 302 352 l 1
 448 352 l 1
 448 312 l 1
 282 312 l 1
 275 298 l 1
 275 222 l 1
 448 222 l 1
 448 182 l 1
 275 182 l 1
 275 109 l 2
 275 34 298 20 355 19 c 1
 355 0 l 1
 111 0 l 1
 111 19 l 1
 182 21 190 44 190 120 c 2
 190 182 l 1
 16 182 l 1
 16 222 l 1
 190 222 l 1
 190 298 l 1
 183 312 l 1
 16 312 l 1
 16 352 l 1
 160 352 l 1
 65 525 l 2
 19 608 -2 642 -53 643 c 1
 -53 662 l 1
 190 662 l 1
 190 643 l 1
 143 644 125 634 125 613 c 0
 125 601 130 584 138 569 c 2
 256 348 l 1
 368 568 l 2
 376 583 382 596 382 612 c 0
 382 636 352 646 317 643 c 1
 317 662 l 1
 512 662 l 1
 512 643 l 1
EndSplineSet
EndChar

StartChar: onesuperior
Encoding: 185 185 219
Width: 300
Flags: W
HStem: 270 9<70 236 70.7998 112.827 157.348 236.4>
LayerCount: 2
Fore
SplineSet
174.6 675.6 m 5
 179.4 674.4 l 5
 179.4 314.4 l 6
 179.4 285.6 189 279.6 236.4 279 c 5
 236.4 270 l 5
 70.7998 270 l 5
 70.7998 279 l 5
 96 279.6 104.4 281.4 113.4 286.8 c 4
 123 292.2 127.8 306 127.8 325.8 c 6
 127.8 597.6 l 6
 127.8 616.8 122.4 625.8 109.8 625.8 c 4
 103.8 625.8 93.5996 623.4 82.7998 619.2 c 4
 80.4004 618 73.7998 615.6 66.5996 612.6 c 5
 66.5996 621 l 5
 174.6 675.6 l 5
EndSplineSet
EndChar

StartChar: twosuperior
Encoding: 178 178 220
Width: 300
Flags: HMW
HStem: 270 46<77 252> 631 45<118 143>
VStem: 203 51<547 569>
LayerCount: 2
Fore
SplineSet
285 352 m 1
 252 270 l 1
 18 270 l 1
 18 277 l 1
 125 391 l 2
 175 444 203 500 203 547 c 0
 203 597 169 631 118 631 c 0
 77 631 55 612 31 553 c 1
 19 556 l 1
 29 599 38 618 57 638 c 0
 79 662 110 676 143 676 c 0
 206 676 254 629 254 569 c 0
 254 523 231 477 178 421 c 2
 77 316 l 1
 220 316 l 2
 247 316 255 321 277 355 c 1
 285 352 l 1
EndSplineSet
EndChar

StartChar: threesuperior
Encoding: 179 179 221
Width: 300
Flags: W
HStem: 262 21<94 137> 640 36<125 145>
VStem: 191 48<575 593> 216 43<373 401>
LayerCount: 2
Fore
SplineSet
92 468 m 5xd0
 92 476 l 5
 133 490 149 499 167 517 c 4
 182 532 191 554 191 575 c 4
 191 613 164 640 125 640 c 4
 88 640 61 620 36 576 c 5
 27 578 l 5
 40 614 49 630 67 646 c 4
 89 665 115 676 145 676 c 4
 200 676 239 642 239 593 c 4xe0
 239 561 224 539 182 511 c 5
 209 499 220 492 232 479 c 4
 250 460 259 432 259 401 c 4
 259 361 244 326 215 302 c 4
 187 277 140 262 94 262 c 4
 52 262 26 275 26 296 c 4
 26 308 35 317 49 317 c 4
 59 317 69 313 87 302 c 4
 109 287 121 283 137 283 c 4
 182 283 216 322 216 373 c 4
 216 414 193 448 155 461 c 4
 141 467 127 468 92 468 c 5xd0
EndSplineSet
EndChar

StartChar: period
Encoding: 46 46 222
Width: 250
Flags: HMW
HStem: -11 111<114.5 135.5>
VStem: 70 111<24.5 58.5>
LayerCount: 2
Fore
SplineSet
181 43 m 0
 181 6 146 -11 125 -11 c 0
 104 -11 70 5 70 43 c 0
 70 75 95 100 125 100 c 0
 155 100 181 74 181 43 c 0
EndSplineSet
EndChar

StartChar: colon
Encoding: 58 58 223
Width: 278
Flags: MW
HStem: -11 111<121 150.5> 348 111<121 150.5>
LayerCount: 2
Fore
SplineSet
136 459 m 0
 166 459 192 433 192 402 c 0
 192 373 166 348 135 348 c 0
 106 348 81 373 81 402 c 0
 81 433 106 459 136 459 c 0
136 100 m 0
 166 100 192 74 192 43 c 0
 192 14 166 -11 135 -11 c 0
 106 -11 81 14 81 43 c 0
 81 74 106 100 136 100 c 0
EndSplineSet
EndChar

StartChar: periodcentered
Encoding: 183 183 224
Width: 250
Flags: HW
HStem: 203 111<114.5 135.5>
VStem: 70 111<238.5 272.5>
LayerCount: 2
Fore
SplineSet
181 257 m 0
 181 220 146 203 125 203 c 0
 104 203 70 219 70 257 c 0
 70 289 95 314 125 314 c 0
 155 314 181 288 181 257 c 0
EndSplineSet
EndChar

StartChar: ellipsis
Encoding: 8230 8230 225
Width: 1000
Flags: MW
HStem: -11 20
VStem: 111 111<28.5 58.5> 444 111<28.5 58.5> 777 111<28.5 58.5>
LayerCount: 2
Fore
SplineSet
166 100 m 0
 196 100 222 74 222 43 c 0
 222 14 196 -11 165 -11 c 0
 136 -11 111 14 111 43 c 0
 111 74 136 100 166 100 c 0
499 100 m 0
 529 100 555 74 555 43 c 0
 555 14 529 -11 498 -11 c 0
 469 -11 444 14 444 43 c 0
 444 74 469 100 499 100 c 0
832 100 m 0
 862 100 888 74 888 43 c 0
 888 14 862 -11 831 -11 c 0
 802 -11 777 14 777 43 c 0
 777 74 802 100 832 100 c 0
EndSplineSet
Ligature2: "'liga' Standard Ligatures lookup 0 subtable" period period period
EndChar

StartChar: comma
Encoding: 44 44 226
Width: 250
Flags: HW
HStem: -6 108<105 121.5>
VStem: 156 39<-25.5 -11.5>
LayerCount: 2
Fore
SplineSet
195 6 m 0
 195 -65 113 -131 83 -141 c 1
 74 -122 l 1
 140 -80 156 -35 156 -16 c 0
 156 -7 149 -2 142 -2 c 0
 140 -2 137 -3 133 -4 c 0
 130 -5 125 -6 118 -6 c 0
 92 -6 56 4 56 44 c 0
 56 87 89 102 114 102 c 0
 137 102 195 89 195 6 c 0
EndSplineSet
EndChar

StartChar: semicolon
Encoding: 59 59 227
Width: 278
Flags: W
HStem: -6 20 -2 104<91.0112 179.59> 348 111<121 150.5>
VStem: 81 111<387.5 417.5> 180 39<-17 -12>
LayerCount: 2
Fore
SplineSet
107 -141 m 1x48
 98 -122 l 1
 152 -85 180 -48 180 -16 c 0
 180 -8 174 -2 166 -2 c 0x68
 165 -2 165 -2 158 -4 c 0
 152 -5 145 -6 139 -6 c 0x88
 102 -6 80 13 80 46 c 0
 80 80 104 102 139 102 c 0
 184 102 219 63 219 13 c 0
 219 -47 176 -107 107 -141 c 1x48
136 459 m 0
 166 459 192 433 192 402 c 0
 192 373 166 348 135 348 c 0
 106 348 81 373 81 402 c 0x70
 81 433 106 459 136 459 c 0
EndSplineSet
EndChar

StartChar: quoteleft
Encoding: 8216 8216 228
Width: 333
Flags: MW
HStem: 433 104<154.41 242.47> 656 20<227 227>
VStem: 115 39<547 552>
LayerCount: 2
Fore
SplineSet
227 676 m 1
 236 657 l 1
 182 620 154 584 154 551 c 0
 154 543 160 537 168 537 c 0
 169 537 169 537 176 539 c 0
 182 540 189 541 195 541 c 0
 231 541 254 521 254 490 c 0
 254 456 230 433 195 433 c 0
 150 433 115 471 115 522 c 0
 115 582 160 643 227 676 c 1
EndSplineSet
EndChar

StartChar: quotedblright
Encoding: 8221 8221 229
Width: 444
Flags: MW
HStem: 572 104<41.221 129.59 273.221 361.59>
VStem: 130 39<557 562> 362 39<557 562>
LayerCount: 2
Fore
SplineSet
57 433 m 1
 48 452 l 1
 102 489 130 526 130 558 c 0
 130 566 124 572 116 572 c 0
 115 572 115 572 108 570 c 0
 102 569 95 568 89 568 c 0
 52 568 30 587 30 619 c 0
 30 653 54 676 89 676 c 0
 134 676 169 637 169 587 c 0
 169 527 124 466 57 433 c 1
289 433 m 1
 280 452 l 1
 334 489 362 526 362 558 c 0
 362 566 356 572 348 572 c 0
 347 572 347 572 340 570 c 0
 334 569 327 568 321 568 c 0
 284 568 262 587 262 619 c 0
 262 653 286 676 321 676 c 0
 366 676 401 637 401 587 c 0
 401 527 356 466 289 433 c 1
EndSplineSet
EndChar

StartChar: quotedblleft
Encoding: 8220 8220 230
Width: 444
Flags: MW
HStem: 433 104<82.4103 170.47 314.41 402.47> 656 20<155 155 387 387>
VStem: 43 39<547 552> 275 39<547 552>
LayerCount: 2
Fore
SplineSet
155 676 m 1
 164 657 l 1
 110 620 82 584 82 551 c 0
 82 543 88 537 96 537 c 0
 97 537 97 537 104 539 c 0
 110 540 117 541 123 541 c 0
 159 541 182 522 182 490 c 0
 182 456 158 433 123 433 c 0
 78 433 43 471 43 522 c 0
 43 582 88 643 155 676 c 1
387 676 m 1
 396 657 l 1
 342 620 314 584 314 551 c 0
 314 543 320 537 328 537 c 0
 329 537 329 537 336 539 c 0
 342 540 349 541 355 541 c 0
 391 541 414 522 414 490 c 0
 414 456 390 433 355 433 c 0
 310 433 275 471 275 522 c 0
 275 582 320 643 387 676 c 1
EndSplineSet
EndChar

StartChar: quotedblbase
Encoding: 8222 8222 231
Width: 444
Flags: W
HStem: -6 20 -2 104<56.221 144.59 288.221 376.59>
VStem: 145 39<-17 -12> 377 39<-17 -12>
LayerCount: 2
Fore
SplineSet
72 -141 m 1x70
 63 -122 l 1
 117 -85 145 -48 145 -16 c 0
 145 -8 139 -2 131 -2 c 0x70
 130 -2 130 -2 123 -4 c 0
 117 -5 110 -6 104 -6 c 0xb0
 67 -6 45 13 45 45 c 0
 45 79 69 102 104 102 c 0
 149 102 184 63 184 13 c 0
 184 -47 139 -108 72 -141 c 1x70
304 -141 m 1
 295 -122 l 1
 349 -85 377 -48 377 -16 c 0
 377 -8 371 -2 363 -2 c 0x70
 362 -2 362 -2 355 -4 c 0
 349 -5 342 -6 336 -6 c 0xb0
 299 -6 277 13 277 45 c 0
 277 79 301 102 336 102 c 0
 381 102 416 63 416 13 c 0
 416 -47 371 -108 304 -141 c 1
EndSplineSet
EndChar

StartChar: exclam
Encoding: 33 33 232
Width: 333
Flags: MW
HStem: -9 107<168 198> 656 20<166.5 200>
LayerCount: 2
Fore
SplineSet
189 176 m 1
 176 176 l 1
 167 284 l 2
 165 309 159 362 150 422 c 0
 139 494 130 576 130 599 c 0
 130 646 150 676 183 676 c 0
 217 676 236 648 236 596 c 0
 236 582 235 571 234 559 c 1
 189 176 l 1
183 98 m 0
 213 98 237 73 237 43 c 0
 237 13 214 -9 182 -9 c 0
 152 -9 130 13 130 43 c 0
 130 74 153 98 183 98 c 0
EndSplineSet
EndChar

StartChar: exclamdown
Encoding: 161 161 233
Width: 333
Flags: MW
HStem: -218 20 362 107<135 165>
LayerCount: 2
Fore
SplineSet
144 282 m 1
 157 282 l 1
 166 174 l 2
 170 127 176 81 183 36 c 0
 195 -35 203 -106 203 -140 c 0
 203 -188 183 -218 150 -218 c 0
 116 -218 97 -190 97 -138 c 0
 97 -126 98 -113 99 -101 c 1
 144 282 l 1
151 469 m 0
 180 469 204 446 204 417 c 0
 204 387 180 362 150 362 c 0
 120 362 97 386 97 418 c 0
 97 448 119 469 151 469 c 0
EndSplineSet
EndChar

StartChar: question
Encoding: 63 63 234
Width: 444
Flags: MW
HStem: -8 107<222 251.5> 449 20<100.5 128> 646 30<189.5 244>
VStem: 68 51<511 605.141> 184 107<29 59> 322 92<503 540>
LayerCount: 2
Fore
SplineSet
244 164 m 1
 227 164 l 1
 228 208 238 257 257 306 c 1
 285 370 l 2
 309 425 322 480 322 526 c 0
 322 593 274 646 214 646 c 0
 165 646 119 616 119 584 c 0
 119 576 124 567 136 553 c 0
 151 536 157 524 157 510 c 0
 157 486 140 469 116 469 c 0
 85 469 68 491 68 531 c 0
 68 614 138 676 230 676 c 0
 284 676 343 653 378 618 c 0
 401 595 414 559 414 521 c 0
 414 480 401 444 369 395 c 0
 355 374 355 374 309 318 c 0
 272 271 255 231 244 164 c 1
237 99 m 0
 266 99 291 74 291 44 c 0
 291 14 268 -8 236 -8 c 0
 206 -8 184 14 184 43 c 0
 184 75 207 99 237 99 c 0
EndSplineSet
EndChar

StartChar: questiondown
Encoding: 191 191 235
Width: 444
Flags: MW
HStem: -218 30<200 254> -11 20 361 107<192 221.5>
VStem: 30 92<-82 -45> 154 107<401 430.5> 325 51<-147.141 -53>
LayerCount: 2
Fore
SplineSet
200 294 m 1
 217 294 l 1
 216 250 206 200 187 152 c 1
 159 88 l 2
 135 33 122 -22 122 -68 c 0
 122 -135 170 -188 230 -188 c 0
 278 -188 325 -158 325 -126 c 0
 325 -118 320 -109 308 -95 c 0
 293 -78 287 -66 287 -52 c 0
 287 -28 303 -11 328 -11 c 0
 359 -11 376 -33 376 -73 c 0
 376 -156 306 -218 214 -218 c 0
 160 -218 101 -195 66 -160 c 0
 43 -137 30 -101 30 -63 c 0
 30 -12 54 42 105 104 c 0
 168 178 186 213 200 294 c 1
208 468 m 0
 237 468 261 445 261 416 c 0
 261 386 236 361 207 361 c 0
 177 361 154 385 154 417 c 0
 154 447 176 468 208 468 c 0
EndSplineSet
EndChar

StartChar: guillemotright
Encoding: 187 187 236
Width: 500
Flags: W
LayerCount: 2
Fore
SplineSet
458 222 m 1
 427 195 l 2
 354 132 314 95 257 39 c 1
 253 34 251 33 247 33 c 0
 241 33 237 37 237 42 c 0
 237 54 280 116 355 211 c 2
 361 218 l 1
 365 224 l 1
 343 252 334 264 290 317 c 0
 261 352 236 393 236 406 c 0
 236 411 241 416 246 416 c 0
 252 416 273 398 290 377 c 1
 292 372 321 344 351 318 c 0
 360 309 368 302 374 297 c 2
 377 295 l 2
 382 290 387 285 393 281 c 1
 458 222 l 1
266 222 m 1
 235 195 l 2
 162 132 122 95 65 39 c 1
 61 34 59 33 55 33 c 0
 49 33 45 37 45 42 c 0
 45 54 88 116 163 211 c 2
 169 218 l 1
 173 224 l 1
 151 252 142 264 98 317 c 0
 69 352 44 393 44 406 c 0
 44 411 49 416 54 416 c 0
 60 416 81 398 98 377 c 1
 100 372 129 344 159 318 c 0
 168 309 176 302 182 297 c 2
 185 295 l 2
 190 290 195 285 201 281 c 1
 266 222 l 1
EndSplineSet
EndChar

StartChar: guillemotleft
Encoding: 171 171 237
Width: 500
Flags: W
LayerCount: 2
Fore
SplineSet
42 222 m 1
 107 281 l 1
 113 285 118 290 123 295 c 2
 126 297 l 2
 134 304 141 311 150 318 c 0
 179 344 206 371 210 377 c 0
 227 398 248 416 254 416 c 0
 259 416 264 411 264 406 c 0
 264 393 239 353 210 317 c 0
 173 273 158 255 135 224 c 1
 141 215 142 215 145 211 c 0
 222 114 263 55 263 42 c 0
 263 37 259 33 254 33 c 0
 249 33 247 34 243 39 c 1
 186 95 145 133 73 195 c 2
 42 222 l 1
234 222 m 1
 299 281 l 1
 305 285 310 290 315 295 c 2
 318 297 l 2
 326 304 333 311 342 318 c 0
 371 344 398 371 402 377 c 0
 419 398 440 416 446 416 c 0
 451 416 456 411 456 406 c 0
 456 393 431 353 402 317 c 0
 365 273 350 255 327 224 c 1
 333 215 334 215 337 211 c 0
 414 114 455 55 455 42 c 0
 455 37 451 33 446 33 c 0
 441 33 439 34 435 39 c 1
 378 95 337 133 265 195 c 2
 234 222 l 1
EndSplineSet
EndChar

StartChar: guilsinglright
Encoding: 8250 8250 238
Width: 333
Flags: W
LayerCount: 2
Fore
SplineSet
270 222 m 1
 239 195 l 2
 166 132 126 95 69 39 c 1
 65 34 63 33 59 33 c 0
 53 33 49 37 49 42 c 0
 49 54 92 116 167 211 c 2
 173 218 l 1
 177 224 l 1
 155 252 146 264 102 317 c 0
 73 352 48 393 48 406 c 0
 48 411 53 416 58 416 c 0
 64 416 85 398 102 377 c 1
 104 372 133 344 163 318 c 0
 172 309 180 302 186 297 c 2
 189 295 l 2
 194 290 199 285 205 281 c 1
 270 222 l 1
EndSplineSet
EndChar

StartChar: guilsinglleft
Encoding: 8249 8249 239
Width: 333
Flags: W
LayerCount: 2
Fore
SplineSet
63 222 m 1
 128 281 l 1
 134 285 139 290 144 295 c 2
 147 297 l 2
 155 304 162 311 171 318 c 0
 200 344 227 371 231 377 c 0
 248 398 269 416 275 416 c 0
 280 416 285 411 285 406 c 0
 285 393 260 353 231 317 c 0
 194 273 179 255 156 224 c 1
 162 215 163 215 166 211 c 0
 243 114 284 55 284 42 c 0
 284 37 280 33 275 33 c 0
 270 33 268 34 264 39 c 1
 207 95 166 133 94 195 c 2
 63 222 l 1
EndSplineSet
EndChar

StartChar: slash
Encoding: 47 47 240
Width: 441
Flags: HMW
LayerCount: 2
Fore
SplineSet
379 678 m 1
 114 -161 l 1
 62 -161 l 1
 327 678 l 1
 379 678 l 1
EndSplineSet
EndChar

StartChar: hyphen
Encoding: 45 45 241
Width: 333
Flags: MW
HStem: 194 63<39 285>
VStem: 39 246<194 257>
LayerCount: 2
Fore
SplineSet
39 257 m 1
 285 257 l 1
 285 194 l 1
 39 194 l 1
 39 257 l 1
EndSplineSet
EndChar

StartChar: endash
Encoding: 8211 8211 242
Width: 500
Flags: MW
HStem: 201 49<0 500>
LayerCount: 2
Fore
SplineSet
0 250 m 1
 500 250 l 1
 500 201 l 1
 0 201 l 1
 0 250 l 1
EndSplineSet
EndChar

StartChar: emdash
Encoding: 8212 8212 243
Width: 1000
Flags: MW
HStem: 201 49<0 1000>
LayerCount: 2
Fore
SplineSet
0 250 m 1
 1000 250 l 1
 1000 201 l 1
 0 201 l 1
 0 250 l 1
EndSplineSet
EndChar

StartChar: parenleft
Encoding: 40 40 244
Width: 333
Flags: HMW
HStem: 656 20<295 295>
VStem: 48 86<205 307.5>
LayerCount: 2
Fore
SplineSet
295 676 m 1
 304 660 l 1
 232 602 202 566 174 504 c 0
 147 442 134 360 134 255 c 0
 134 155 145 79 169 12 c 0
 196 -63 224 -98 304 -161 c 1
 292 -177 l 1
 240 -145 214 -123 173 -75 c 0
 85 27 48 125 48 252 c 0
 48 369 83 469 154 556 c 0
 191 602 221 628 295 676 c 1
EndSplineSet
EndChar

StartChar: parenright
Encoding: 41 41 245
Width: 333
Flags: HMW
HStem: 656 20<41 41>
VStem: 199 86<192 294>
LayerCount: 2
Fore
SplineSet
38 -177 m 1
 29 -161 l 1
 101 -103 131 -67 159 -4 c 0
 186 57 199 140 199 244 c 0
 199 344 188 420 164 487 c 0
 136 562 109 597 29 660 c 1
 41 676 l 1
 93 644 119 622 160 574 c 0
 248 472 285 375 285 247 c 0
 285 130 250 30 179 -57 c 0
 142 -103 112 -129 38 -177 c 1
EndSplineSet
EndChar

StartChar: bracketleft
Encoding: 91 91 246
Width: 333
Flags: MW
HStem: -156 25<213 299> 637 25<193 209 209 299>
VStem: 88 76<-96.5 -79 -79 593>
LayerCount: 2
Fore
SplineSet
299 -131 m 1
 299 -156 l 1
 88 -156 l 1
 88 662 l 1
 299 662 l 1
 299 637 l 1
 209 637 l 2
 177 637 164 624 164 593 c 2
 164 -79 l 2
 164 -114 180 -131 213 -131 c 2
 299 -131 l 1
EndSplineSet
EndChar

StartChar: bracketright
Encoding: 93 93 247
Width: 333
Flags: MW
HStem: -156 25<34 124 124 139.5> 637 25<34 120>
VStem: 169 76<-87 585 585 602.5>
LayerCount: 2
Fore
SplineSet
34 -131 m 1
 124 -131 l 2
 155 -131 169 -118 169 -87 c 2
 169 585 l 2
 169 620 153 637 120 637 c 2
 34 637 l 1
 34 662 l 1
 245 662 l 1
 245 -156 l 1
 34 -156 l 1
 34 -131 l 1
EndSplineSet
EndChar

StartChar: ampersand
Encoding: 38 38 248
Width: 778
Flags: W
HStem: -13 52<228 253.5> -13 71<617 631> 644 32<335 381>
VStem: 42 92<141.5 181> 202 79<539.5 565> 438 53<538.5 583.5> 495 216<405 426>
LayerCount: 2
Fore
SplineSet
711 426 m 1xbe
 711 405 l 1
 661 399 641 387 617 346 c 2
 591 300 l 2
 560 246 535 209 491 150 c 1
 537 89 589 58 645 58 c 0
 681 58 703 71 735 111 c 1
 750 100 l 1
 720 29 663 -13 599 -13 c 0x7e
 541 -13 492 13 429 78 c 1
 354 12 294 -13 213 -13 c 0
 107 -13 42 44 42 139 c 0
 42 223 93 294 199 355 c 2
 237 377 l 1
 210 452 202 484 202 522 c 0
 202 608 270 676 356 676 c 0
 435 676 491 626 491 555 c 0
 491 522 478 487 457 464 c 0
 429 433 404 416 336 384 c 1
 380 298 412 247 468 178 c 1
 532 263 559 317 559 360 c 0
 559 390 545 400 495 405 c 1
 495 426 l 1
 711 426 l 1xbe
321 416 m 1
 403 460 438 503 438 559 c 0
 438 608 404 644 358 644 c 0
 312 644 281 610 281 562 c 0
 281 517 291 479 321 416 c 1
252 343 m 1x9e
 165 287 134 244 134 180 c 0
 134 103 193 39 263 39 c 0
 305 39 345 57 404 104 c 1
 347 174 312 229 252 343 c 1x9e
EndSplineSet
EndChar

StartChar: section
Encoding: 167 167 249
Width: 500
Flags: HW
HStem: -148 21<218.5 270.5> 383 22 655 21<215.5 268>
VStem: 70 53<296.5 319> 374 52<213.5 245.5>
LayerCount: 2
Fore
SplineSet
426 247 m 0
 426 180 382 117 296 125 c 1
 294 123 l 1
 360 67 386 34 386 -22 c 0
 386 -85 341 -148 244 -148 c 0
 165 -148 104 -105 104 -48 c 0
 104 -12 132 6 158 6 c 0
 191 6 206 -18 206 -35 c 0
 206 -69 172 -79 172 -92 c 0
 172 -103 191 -127 246 -127 c 0
 295 -127 330 -98 330 -48 c 0
 330 -6 314 10 168 122 c 0
 99 175 70 233 70 282 c 0
 70 356 122 414 205 404 c 1
 207 406 l 1
 152 452 110 487 110 554 c 0
 110 638 179 676 252 676 c 0
 316 676 377 637 377 579 c 0
 377 549 361 525 326 525 c 0
 288 525 279 554 279 568 c 0
 279 600 313 615 313 622 c 0
 313 640 291 655 245 655 c 0
 185 655 166 608 166 585 c 0
 166 565 175 534 200 513 c 2
 337 400 l 2
 385 360 426 306 426 247 c 0
374 216 m 0
 374 275 247 383 192 383 c 0
 162 383 123 365 123 317 c 0
 123 276 148 250 169 229 c 0
 207 191 256 146 303 146 c 0
 340 146 374 172 374 216 c 0
EndSplineSet
EndChar

StartChar: dagger
Encoding: 8224 8224 250
Width: 500
Flags: HMW
HStem: -149 20 404 87<91 123 378 410>
VStem: 241 21<-149 -149>
LayerCount: 2
Fore
SplineSet
442 448 m 0
 442 413 419 404 401 404 c 0
 355 404 347 432 261 438 c 1
 261 392 261 296 303 253 c 1
 284 214 264 97 263 -26 c 2
 262 -149 l 1
 241 -149 l 1
 240 -26 l 2
 239 97 215 214 198 253 c 1
 240 296 240 392 240 438 c 1
 154 432 146 404 100 404 c 0
 82 404 59 413 59 448 c 0
 59 479 82 491 100 491 c 0
 146 491 154 458 240 456 c 1
 241 577 204 581 204 629 c 0
 204 654 225 676 251 676 c 0
 275 676 297 654 297 629 c 0
 297 581 260 577 261 456 c 1
 347 458 355 491 401 491 c 0
 419 491 442 479 442 448 c 0
EndSplineSet
EndChar

StartChar: daggerdbl
Encoding: 8225 8225 251
Width: 500
Flags: HMW
HStem: -153 20 32 87<90 122 377 409> 404 87<91 123 378 410>
VStem: 199 102<260 260>
LayerCount: 2
Fore
SplineSet
442 448 m 0
 442 413 419 404 401 404 c 0
 355 404 347 432 261 438 c 1
 261 402 256 312 301 260 c 1
 256 212 260 126 260 85 c 1
 346 91 354 119 400 119 c 0
 418 119 441 110 441 75 c 0
 441 44 418 32 400 32 c 0
 354 32 346 65 260 67 c 1
 259 -54 296 -58 296 -106 c 0
 296 -131 274 -153 250 -153 c 0
 224 -153 203 -131 203 -106 c 0
 203 -58 240 -54 239 67 c 1
 153 65 145 32 99 32 c 0
 81 32 58 44 58 75 c 0
 58 110 81 119 99 119 c 0
 145 119 153 91 239 85 c 1
 239 126 242 222 199 260 c 1
 242 314 240 402 240 438 c 1
 154 432 146 404 100 404 c 0
 82 404 59 413 59 448 c 0
 59 479 82 491 100 491 c 0
 146 491 154 458 240 456 c 1
 241 577 204 581 204 629 c 0
 204 654 225 676 251 676 c 0
 275 676 297 654 297 629 c 0
 297 581 260 577 261 456 c 1
 347 458 355 491 401 491 c 0
 419 491 442 479 442 448 c 0
EndSplineSet
EndChar

StartChar: asterisk
Encoding: 42 42 252
Width: 500
Flags: MW
HStem: 656 20<241 261>
VStem: 241 19<449 456 486 499 499 510>
LayerCount: 2
Fore
SplineSet
241 449 m 1
 241 456 l 1
 206 434 199 429 189 420 c 0
 181 413 176 408 147 375 c 0
 130 356 121 351 105 351 c 0
 83 351 69 364 69 386 c 0
 69 411 86 423 131 431 c 0
 177 440 193 446 234 471 c 1
 223 478 l 2
 204 491 174 501 137 508 c 0
 89 517 69 531 69 555 c 0
 69 575 84 591 103 591 c 0
 119 591 131 583 151 559 c 1
 184 523 203 507 241 486 c 1
 241 499 l 2
 241 526 236 557 226 590 c 0
 220 611 216 629 216 641 c 0
 216 661 231 676 251 676 c 0
 271 676 287 660 287 639 c 0
 287 628 283 612 277 593 c 0
 266 562 260 534 260 510 c 2
 260 484 l 1
 267 488 l 2
 289 500 314 522 339 552 c 0
 363 580 380 593 395 593 c 0
 416 593 431 577 431 554 c 0
 431 529 418 518 380 512 c 0
 336 505 317 498 268 470 c 1
 276 465 l 2
 302 449 334 437 373 431 c 0
 417 424 432 413 432 387 c 0
 432 365 418 350 397 350 c 0
 379 350 362 362 337 393 c 0
 310 426 289 444 267 453 c 2
 260 456 l 1
 260 449 l 2
 260 410 267 372 280 337 c 0
 285 324 288 311 288 305 c 0
 288 284 270 265 249 265 c 0
 230 265 214 282 214 302 c 0
 214 313 218 330 225 348 c 0
 238 382 244 411 242 432 c 1
 241 449 l 1
EndSplineSet
EndChar

StartChar: quotesingle
Encoding: 39 39 253
Width: 180
Flags: MW
HStem: 431 245<80 101 80 80>
LayerCount: 2
Fore
SplineSet
101 431 m 1
 80 431 l 1
 63 521 48 619 48 635 c 0
 48 658 67 676 91 676 c 0
 114 676 133 658 133 636 c 0
 133 607 124 547 108 471 c 1
 101 431 l 1
EndSplineSet
EndChar

StartChar: quotedbl
Encoding: 34 34 254
Width: 408
Flags: MW
HStem: 431 245<109 130 109 109 278 299 278 278>
LayerCount: 2
Fore
SplineSet
299 431 m 1
 278 431 l 1
 261 521 246 619 246 635 c 0
 246 658 265 676 289 676 c 0
 312 676 331 658 331 636 c 0
 331 607 322 547 306 471 c 1
 299 431 l 1
130 431 m 1
 109 431 l 1
 92 521 77 619 77 635 c 0
 77 658 96 676 120 676 c 0
 143 676 162 658 162 636 c 0
 162 607 153 547 137 471 c 1
 130 431 l 1
EndSplineSet
EndChar

StartChar: at
Encoding: 64 64 255
Width: 921
Flags: W
HStem: -14 39<407 518> 143 33<627 673> 144 43<385.062 478.031> 436 20<589 589> 645 31<445.5 560.5>
VStem: 116 84<236 369.5> 321 71<246 292.5> 769 40<323 447.5>
LayerCount: 2
Fore
SplineSet
688 73 m 1xdf
 700 43 l 1
 603 -1 553 -14 483 -14 c 0
 276 -14 116 134 116 326 c 0
 116 521 278 676 481 676 c 0
 666 676 809 548 809 383 c 0
 809 254 724 143 625 143 c 0xcf
 577 143 540 172 534 216 c 1
 500 171 453 144 409 144 c 0x27
 360 144 321 193 321 256 c 0
 321 329 352 405 405 458 c 0
 439 492 474 508 517 508 c 0
 552 508 567 497 589 456 c 1
 599 494 l 1
 668 494 l 1
 603 240 l 1
 602 234 601 229 601 222 c 0
 601 191 614 176 640 176 c 0
 706 176 769 273 769 373 c 0
 769 522 639 645 482 645 c 0
 409 645 342 618 293 569 c 0
 236 510 200 416 200 323 c 0
 200 149 322 25 492 25 c 0
 559 25 610 38 688 73 c 1xdf
531 464 m 0x27
 507 466 472 446 444 414 c 0
 410 376 392 326 392 272 c 0
 392 220 415 187 452 187 c 0
 479 187 508 209 527 245 c 0
 553 292 570 351 572 399 c 0
 574 438 559 462 531 464 c 0x27
EndSplineSet
EndChar

StartChar: numbersign
Encoding: 35 35 256
Width: 500
Flags: MW
HStem: 0 20 216 55<5 112 179 304 371 471> 405 55<32 142 208 333 399 496> 642 20<181 239 239 239 371 429 429 429>
LayerCount: 2
Fore
SplineSet
471 271 m 1
 471 216 l 1
 362 216 l 1
 331 0 l 1
 273 0 l 1
 304 216 l 1
 170 216 l 1
 137 0 l 1
 79 0 l 1
 112 216 l 1
 5 216 l 1
 5 271 l 1
 121 271 l 1
 142 405 l 1
 32 405 l 1
 32 460 l 1
 150 460 l 1
 181 662 l 1
 239 662 l 1
 208 460 l 1
 341 460 l 1
 371 662 l 1
 429 662 l 1
 399 460 l 1
 496 460 l 1
 496 405 l 1
 391 405 l 1
 371 271 l 1
 471 271 l 1
333 405 m 1
 200 405 l 1
 179 271 l 1
 313 271 l 1
 333 405 l 1
EndSplineSet
EndChar

StartChar: degree
Encoding: 176 176 257
Width: 400
Flags: MW
HStem: 390 34<171 228> 642 34<171.5 228>
VStem: 57 39<503.5 562.5> 304 39<503 562.5>
LayerCount: 2
Fore
SplineSet
200 676 m 0
 280 676 343 613 343 532 c 0
 343 452 279 390 198 390 c 0
 120 390 57 454 57 533 c 0
 57 613 120 676 200 676 c 0
200 642 m 0
 143 642 96 592 96 533 c 0
 96 474 143 424 199 424 c 0
 257 424 304 473 304 533 c 0
 304 592 256 642 200 642 c 0
EndSplineSet
EndChar

StartChar: plus
Encoding: 43 43 258
Width: 564
Flags: MW
HStem: 0 20 220 66<30 249 315 534>
VStem: 249 66<0 220 286 506>
LayerCount: 2
Fore
SplineSet
249 286 m 1
 249 506 l 1
 315 506 l 1
 315 286 l 1
 534 286 l 1
 534 220 l 1
 315 220 l 1
 315 0 l 1
 249 0 l 1
 249 220 l 1
 30 220 l 1
 30 286 l 1
 249 286 l 1
EndSplineSet
EndChar

StartChar: minus
Encoding: 8722 8722 259
Width: 636
Flags: HMW
HStem: 229 56<62 574>
LayerCount: 2
Fore
SplineSet
574 229 m 5
 62 229 l 5
 62 285 l 5
 574 285 l 5
 574 229 l 5
EndSplineSet
EndChar

StartChar: multiply
Encoding: 215 215 260
Width: 636
Flags: HW
LayerCount: 2
Fore
SplineSet
580 35 m 1
 540 -5 l 1
 318 218 l 1
 96 -5 l 1
 56 35 l 1
 278 257 l 1
 56 480 l 1
 96 520 l 1
 318 297 l 1
 540 520 l 1
 580 480 l 1
 357 257 l 1
 580 35 l 1
EndSplineSet
EndChar

StartChar: divide
Encoding: 247 247 261
Width: 636
Flags: HMW
HStem: 0 110<310 340> 229 56<62 574> 404 110<310 340>
VStem: 271 110<40 70 444 474>
LayerCount: 2
Fore
SplineSet
381 459 m 0
 381 429 355 404 325 404 c 0
 295 404 271 429 271 459 c 0
 271 489 295 514 325 514 c 0
 355 514 381 489 381 459 c 0
574 229 m 1
 62 229 l 1
 62 285 l 1
 574 285 l 1
 574 229 l 1
381 55 m 0
 381 25 355 0 325 0 c 0
 295 0 271 25 271 55 c 0
 271 85 295 110 325 110 c 0
 355 110 381 85 381 55 c 0
EndSplineSet
EndChar

StartChar: equal
Encoding: 61 61 262
Width: 564
Flags: MW
HStem: 120 66<30 534> 320 66<30 534>
LayerCount: 2
Fore
SplineSet
534 386 m 1
 534 320 l 1
 30 320 l 1
 30 386 l 1
 534 386 l 1
534 186 m 1
 534 120 l 1
 30 120 l 1
 30 186 l 1
 534 186 l 1
EndSplineSet
EndChar

StartChar: trademark
Encoding: 8482 8482 263
Width: 980
Flags: MW
HStem: 642 20<100 118 118 167 238 288 238 238>
VStem: 167 71<332 642> 488 26<343 566> 830 71<332 568 568 568>
LayerCount: 2
Fore
SplineSet
238 642 m 1
 238 332 l 2
 238 284 238 284 288 278 c 1
 288 258 l 1
 117 258 l 1
 117 278 l 1
 167 284 167 284 167 332 c 2
 167 642 l 1
 118 642 l 2
 82 642 63 623 50 574 c 1
 30 574 l 1
 30 662 l 1
 375 662 l 1
 375 574 l 1
 355 574 l 1
 341 623 323 642 288 642 c 2
 238 642 l 1
665 256 m 1
 514 566 l 1
 514 343 l 2
 514 295 524 283 567 278 c 1
 567 258 l 1
 436 258 l 1
 436 278 l 1
 478 283 488 295 488 343 c 2
 488 592 l 1
 475 622 449 641 419 642 c 1
 419 662 l 1
 540 662 l 1
 694 353 l 1
 854 662 l 1
 957 662 l 1
 957 642 l 1
 914 639 901 626 901 587 c 2
 901 332 l 2
 901 284 901 284 951 278 c 1
 951 258 l 1
 781 258 l 1
 781 278 l 1
 812 282 816 283 823 287 c 0
 829 291 830 300 830 332 c 2
 830 568 l 1
 676 256 l 1
 665 256 l 1
EndSplineSet
Ligature2: "'liga' Standard Ligatures lookup 0 subtable" T M
EndChar

